<?xml version="1.0" encoding="UTF-8" standalone="no"?>
<svg
   xmlns:dc="http://purl.org/dc/elements/1.1/"
   xmlns:cc="http://creativecommons.org/ns#"
   xmlns:rdf="http://www.w3.org/1999/02/22-rdf-syntax-ns#"
   xmlns:svg="http://www.w3.org/2000/svg"
   xmlns="http://www.w3.org/2000/svg"
   xmlns:sodipodi="http://sodipodi.sourceforge.net/DTD/sodipodi-0.dtd"
   xmlns:inkscape="http://www.inkscape.org/namespaces/inkscape"
   width="431pt"
   height="114pt"
   viewBox="0 0 431 114"
   version="1.1"
   id="svg2985"
   inkscape:version="0.48.4 r9939"
   sodipodi:docname="entete1.svg"
   enable-background="new">
  <metadata
     id="metadata3215">
    <rdf:RDF>
      <cc:Work
         rdf:about="">
        <dc:format>image/svg+xml</dc:format>
        <dc:type
           rdf:resource="http://purl.org/dc/dcmitype/StillImage" />
        <dc:title></dc:title>
      </cc:Work>
    </rdf:RDF>
  </metadata>
  <sodipodi:namedview
     pagecolor="#ffffff"
     bordercolor="#666666"
     borderopacity="1"
     objecttolerance="10"
     gridtolerance="10"
     guidetolerance="10"
     inkscape:pageopacity="0"
     inkscape:pageshadow="2"
     inkscape:window-width="1680"
     inkscape:window-height="1030"
     id="namedview3213"
     showgrid="false"
     inkscape:zoom="1.88"
     inkscape:cx="305.55545"
     inkscape:cy="30.912487"
     inkscape:window-x="-2"
     inkscape:window-y="-3"
     inkscape:window-maximized="1"
     inkscape:current-layer="layer3"
     showguides="true"
     inkscape:guide-bbox="true" />
  <defs
     id="defs2987">
    <clipPath
       id="clip0">
      <rect
         width="431"
         height="114"
         id="rect2990" />
    </clipPath>
    <clipPath
       id="clip0-5">
      <rect
         y="0"
         x="0"
         width="431"
         height="114"
         id="rect2990-8" />
    </clipPath>
    <filter
       inkscape:collect="always"
       id="filter4660">
      <feBlend
         inkscape:collect="always"
         mode="lighten"
         in2="BackgroundImage"
         id="feBlend4662" />
    </filter>
  </defs>
  <g
     inkscape:groupmode="layer"
     id="layer3"
     inkscape:label="com"
     style="display:inline">
    <g
       style="font-size:47.20000076px;font-style:normal;font-variant:normal;font-weight:normal;font-stretch:normal;text-align:start;line-height:125%;letter-spacing:0px;word-spacing:0px;writing-mode:lr-tb;text-anchor:start;fill:#000000;fill-opacity:1;stroke:none;font-family:Billo;-inkscape-font-specification:Billo"
       id="text4683">
      <path
         d="m 205.48208,94.653077 c -3e-5,1.195737 -0.40909,2.202669 -1.2272,3.0208 -0.81816,0.818134 -1.82509,1.2272 -3.0208,1.2272 l -7.4576,0 c -3.24108,0 -5.99441,-1.132799 -8.26,-3.3984 -2.26561,-2.265594 -3.39841,-5.018925 -3.3984,-8.26 -1e-5,-3.241052 1.11706,-5.978649 3.3512,-8.2128 2.26559,-2.234111 5.03465,-3.36691 8.3072,-3.3984 l 8.6376,-0.0472 c 0.84957,2.3e-5 1.57331,0.31469 2.1712,0.944 0.59784,0.597888 0.89677,1.321621 0.8968,2.1712 -3e-5,0.849619 -0.29896,1.589085 -0.8968,2.2184 -0.59789,0.597884 -1.32163,0.896817 -2.1712,0.8968 l -5.0976,0 c -0.94402,1.7e-5 -1.74642,0.330417 -2.4072,0.9912 -0.62935,0.629349 -0.94402,1.416015 -0.944,2.36 -2e-5,0.912546 0.33038,1.699212 0.9912,2.36 0.66078,0.660811 1.44745,0.99121 2.36,0.9912 l 3.9176,-0.0472 c 1.16424,1.1e-5 2.15544,0.42481 2.9736,1.2744 0.84957,0.818142 1.27437,1.809341 1.2744,2.9736 l 0,1.9352"
         style=""
         id="path4759" />
      <path
         d="m 230.83585,87.761877 c -2e-5,3.241075 -1.13282,5.994405 -3.3984,8.26 -2.26562,2.265601 -5.01895,3.3984 -8.26,3.3984 -3.24108,0 -5.99441,-1.132799 -8.26,-3.3984 -2.23414,-2.265595 -3.3512,-5.018925 -3.3512,-8.26 0,-3.241052 1.11706,-5.97865 3.3512,-8.2128 2.26559,-2.265578 5.01892,-3.398377 8.26,-3.3984 3.24105,2.3e-5 5.99438,1.132822 8.26,3.3984 2.26558,2.23415 3.39838,4.971748 3.3984,8.2128 m -7.4576,0.236 c -2e-5,-0.440522 -0.17308,-0.818122 -0.5192,-1.1328 -0.31468,-0.346121 -0.69228,-0.519187 -1.1328,-0.5192 -0.44055,1.3e-5 -0.83388,0.173079 -1.18,0.5192 -0.31468,0.314678 -0.47201,0.692278 -0.472,1.1328 -1e-5,0.440544 0.15732,0.833877 0.472,1.18 0.34612,0.314676 0.73945,0.472009 1.18,0.472 0.44052,9e-6 0.81812,-0.157324 1.1328,-0.472 0.34612,-0.346123 0.51918,-0.739456 0.5192,-1.18 m 2.0296,4.5312 c -2e-5,-0.59786 -0.29895,-0.896793 -0.8968,-0.8968 -0.59788,7e-6 -0.89682,0.29894 -0.8968,0.8968 -2e-5,0.597873 0.29892,0.896806 0.8968,0.8968 0.59785,6e-6 0.89678,-0.298927 0.8968,-0.8968 m -4.0592,0 c -1e-5,-0.943993 -0.33041,-1.730658 -0.9912,-2.36 -0.66081,-0.66079 -1.46321,-0.99119 -2.4072,-0.9912 -0.94401,1e-5 -1.74641,0.33041 -2.4072,0.9912 -0.62934,0.629342 -0.94401,1.416007 -0.944,2.36 -1e-5,1.416005 0.56639,2.407204 1.6992,2.9736 0.56639,0.283203 1.11706,0.424803 1.652,0.4248 0.94399,3e-6 1.74639,-0.330396 2.4072,-0.9912 0.66079,-0.660795 0.99119,-1.463194 0.9912,-2.4072"
         style=""
         id="path4761" />
      <path
         d="m 268.93142,95.785877 c -4e-5,0.881069 -0.29897,1.620535 -0.8968,2.2184 -0.56644,0.597867 -1.29017,0.8968 -2.1712,0.8968 -0.8811,0 -1.62057,-0.283199 -2.2184,-0.8496 -0.5979,-0.597865 -0.89684,-1.337331 -0.8968,-2.2184 l 0,-5.428 c -4e-5,-0.912524 -0.33044,-1.69919 -0.9912,-2.36 -0.66083,-0.660788 -1.4475,-0.991188 -2.36,-0.9912 -0.91256,1.2e-5 -1.69923,0.298945 -2.36,0.8968 -0.66083,0.56641 -0.99123,1.305876 -0.9912,2.2184 l 0,5.6168 c -3e-5,0.881069 -0.29896,1.620535 -0.8968,2.2184 -0.56643,0.597867 -1.29016,0.8968 -2.1712,0.8968 -0.88109,0 -1.62056,-0.283199 -2.2184,-0.8496 -0.59789,-0.597865 -0.89682,-1.337331 -0.8968,-2.2184 l 0,-5.428 c -2e-5,-0.912524 -0.33042,-1.69919 -0.9912,-2.36 -0.66082,-0.660788 -1.44749,-0.991188 -2.36,-0.9912 -0.94402,1.2e-5 -1.74642,0.330412 -2.4072,0.9912 -0.62935,0.629344 -0.94402,1.41601 -0.944,2.36 l 0,4.248 c -2e-5,1.16427 -0.42482,2.171202 -1.2744,3.0208 -0.81815,0.818134 -1.80935,1.2272 -2.9736,1.2272 l -1.9352,0 c -1.16428,0 -2.17121,-0.409066 -3.0208,-1.2272 -0.81814,-0.849598 -1.22721,-1.85653 -1.2272,-3.0208 l 0,-14.2544 c -1e-5,-1.164247 0.40906,-2.155446 1.2272,-2.9736 0.84959,-0.849578 1.85652,-1.274377 3.0208,-1.2744 l 0.3304,0 c 0.94399,2.3e-5 1.79359,0.298956 2.5488,0.8968 1.44745,-0.629311 2.95785,-0.943977 4.5312,-0.944 2.35998,2.3e-5 4.51544,0.660822 6.4664,1.9824 1.95091,-1.290111 4.09064,-1.935177 6.4192,-1.9352 3.20957,2.3e-5 5.94716,1.132822 8.2128,3.3984 2.29703,2.265617 3.44556,5.003214 3.4456,8.2128 l 0,8.024"
         style=""
         id="path4763" />
    </g>
  </g>
  <g
     inkscape:label="net"
     id="g4687"
     inkscape:groupmode="layer"
     style="display:inline">
    <g
       style="font-size:47.20000076px;font-style:normal;font-variant:normal;font-weight:normal;font-stretch:normal;text-align:start;line-height:125%;letter-spacing:0px;word-spacing:0px;writing-mode:lr-tb;text-anchor:start;fill:#000000;fill-opacity:1;stroke:none;font-family:Billo;-inkscape-font-specification:Billo"
       id="text4689">
      <path
         d="m 220.80446,95.785877 c -3e-5,0.881069 -0.29896,1.620535 -0.8968,2.2184 -0.56642,0.597867 -1.29016,0.8968 -2.1712,0.8968 -0.88109,0 -1.62055,-0.283199 -2.2184,-0.8496 -0.59789,-0.597865 -0.89682,-1.337331 -0.8968,-2.2184 l 0,-5.428 c -2e-5,-0.912524 -0.33042,-1.69919 -0.9912,-2.36 -0.66082,-0.660788 -1.44748,-0.991188 -2.36,-0.9912 -0.94401,1.2e-5 -1.74641,0.330412 -2.4072,0.9912 -0.62935,0.629344 -0.94401,1.41601 -0.944,2.36 l 0,4.248 c -1e-5,1.16427 -0.42481,2.171202 -1.2744,3.0208 -0.81814,0.818134 -1.80934,1.2272 -2.9736,1.2272 l -1.9352,0 c -1.16427,0 -2.1712,-0.409066 -3.0208,-1.2272 -0.81814,-0.849598 -1.2272,-1.85653 -1.2272,-3.0208 l 0,-14.2544 c 0,-1.164247 0.40906,-2.155446 1.2272,-2.9736 0.8496,-0.849578 1.85653,-1.274377 3.0208,-1.2744 l 0.3304,0 c 0.94399,2.3e-5 1.79359,0.298956 2.5488,0.8968 1.44746,-0.629311 2.95785,-0.943977 4.5312,-0.944 3.30398,2.3e-5 6.07305,1.148555 8.3072,3.4456 2.23411,2.297084 3.35117,5.097614 3.3512,8.4016 l 0,7.8352"
         id="path4740"
         inkscape:connector-curvature="0" />
      <path
         d="m 243.75103,83.089077 c -2e-5,1.950947 -0.67655,3.602946 -2.0296,4.956 -1.32161,1.353076 -2.95788,2.029609 -4.9088,2.0296 l -2.3128,0 c -0.94401,9e-6 -1.41601,0.472008 -1.416,1.416 -1e-5,0.944007 0.47199,1.416006 1.416,1.416 l 6.0888,0 c 0.84958,6e-6 1.55758,0.298939 2.124,0.8968 0.59785,0.566405 0.89678,1.274404 0.8968,2.124 -2e-5,0.849602 -0.29895,1.573335 -0.8968,2.1712 -0.56642,0.566401 -1.27442,0.8496 -2.124,0.8496 l -6.4664,0 c -3.17814,0 -5.86854,-1.101332 -8.0712,-3.304 -2.20267,-2.234128 -3.304,-4.940258 -3.304,-8.1184 0,-3.178119 1.10133,-5.868516 3.304,-8.0712 2.20266,-2.202645 4.89306,-3.303977 8.0712,-3.304 l 2.6904,0 c 1.91945,2.3e-5 3.55572,0.676555 4.9088,2.0296 1.35305,1.353086 2.02958,2.989351 2.0296,4.9088 m -5.7112,-0.0944 c -1e-5,-0.440517 -0.15735,-0.818117 -0.472,-1.1328 -0.31468,-0.314649 -0.69228,-0.471983 -1.1328,-0.472 -1.10134,1.7e-5 -1.65201,0.53495 -1.652,1.6048 -1e-5,1.101348 0.55066,1.652014 1.652,1.652 1.06985,1.4e-5 1.60479,-0.550652 1.6048,-1.652 m -3.1624,-2.5488 c -1e-5,-0.755181 -0.37761,-1.13278 -1.1328,-1.1328 -0.75521,2e-5 -1.13281,0.377619 -1.1328,1.1328 -1e-5,0.755218 0.37759,1.132817 1.1328,1.1328 0.75519,1.7e-5 1.13279,-0.377582 1.1328,-1.1328 m -0.8024,4.248 c -1e-5,-0.818118 -0.29894,-1.510384 -0.8968,-2.0768 -0.56641,-0.59785 -1.25867,-0.896783 -2.0768,-0.8968 -0.8496,1.7e-5 -1.57334,0.283217 -2.1712,0.8496 -0.5664,0.566416 -0.8496,1.274415 -0.8496,2.124 0,0.849613 0.2832,1.573346 0.8496,2.1712 0.59786,0.566412 1.3216,0.849611 2.1712,0.8496 0.84959,1.1e-5 1.55759,-0.283188 2.124,-0.8496 0.56639,-0.597854 0.84959,-1.321587 0.8496,-2.1712"
         id="path4742"
         inkscape:connector-curvature="0" />
      <path
         d="m 268.92634,83.702677 -0.0472,3.54 c -0.0315,3.272542 -1.16429,6.041606 -3.3984,8.3072 -2.20269,2.234135 -4.94029,3.3512 -8.2128,3.3512 -3.24108,0 -5.99441,-1.132799 -8.26,-3.3984 -2.26561,-2.265594 -3.39841,-5.018925 -3.3984,-8.26 l 0,-17.1808 c -1e-5,-1.195704 0.40906,-2.202636 1.2272,-3.0208 0.81812,-0.818101 1.82506,-1.227167 3.0208,-1.2272 l 1.9352,0 c 1.16425,3.3e-5 2.17119,0.424832 3.0208,1.2744 0.84958,0.818164 1.25865,1.809363 1.2272,2.9736 l -0.0472,3.2568 5.7112,0.0472 c 0.84958,2.5e-5 1.57331,0.314692 2.1712,0.944 0.62931,0.597891 0.94397,1.321623 0.944,2.1712 -3e-5,0.849621 -0.31469,1.589087 -0.944,2.2184 -0.59789,0.597886 -1.32162,0.896819 -2.1712,0.8968 l -5.7112,0 0,4.1064 c -2e-5,0.912548 0.33038,1.699214 0.9912,2.36 0.66078,0.660812 1.44745,0.991212 2.36,0.9912 0.94398,1.2e-5 1.73065,-0.314654 2.36,-0.944 0.66078,-0.660786 0.99118,-1.447452 0.9912,-2.36 -2e-5,-0.943984 0.28318,-1.699183 0.8496,-2.2656 0.59784,-0.566382 1.35304,-0.849582 2.2656,-0.8496 0.84957,1.8e-5 1.57331,0.298951 2.1712,0.8968 0.6293,0.597883 0.94397,1.321616 0.944,2.1712"
         id="path4744"
         inkscape:connector-curvature="0" />
    </g>
  </g>
  <g
     style="display:inline"
     inkscape:groupmode="layer"
     id="g4714"
     inkscape:label="works">
    <g
       style="font-size:47.20000076px;font-style:normal;font-variant:normal;font-weight:normal;font-stretch:normal;text-align:start;line-height:125%;letter-spacing:0px;word-spacing:0px;writing-mode:lr-tb;text-anchor:start;fill:#000000;fill-opacity:1;stroke:none;font-family:Billo;-inkscape-font-specification:Billo"
       id="text4716">
      <path
         d="m 282.48011,85.354677 -2.5016,2.6904 -1.0384,3.4928 -3.3512,-1.5576 -3.6344,0.0944 0.4248,-3.6344 -1.18,-3.4456 3.5872,-0.708 2.9264,-2.2184 1.7464,3.2096 3.0208,2.0768"
         id="path4727"
         inkscape:connector-curvature="0" />
      <path
         d="m 322.37443,80.398677 -0.0472,7.316 c -0.0315,3.241075 -1.1643,5.994405 -3.3984,8.26 -2.23416,2.265601 -4.97176,3.3984 -8.2128,3.3984 -2.36002,0 -4.51549,-0.645066 -6.4664,-1.9352 -1.95095,1.290134 -4.09068,1.9352 -6.4192,1.9352 -3.24108,0 -5.99441,-1.132799 -8.26,-3.3984 -2.2656,-2.265595 -3.3984,-5.018925 -3.3984,-8.26 l 0,-8.496 c 0,-0.84958 0.29893,-1.573312 0.8968,-2.1712 0.59786,-0.597844 1.3216,-0.896777 2.1712,-0.8968 0.8496,2.3e-5 1.57333,0.298956 2.1712,0.8968 0.62933,0.597888 0.94399,1.32162 0.944,2.1712 l 0,4.956 c -1e-5,0.944014 0.31466,1.746413 0.944,2.4072 0.66079,0.629345 1.46319,0.944011 2.4072,0.944 0.88106,1.1e-5 1.65199,-0.298922 2.3128,-0.8968 0.69225,-0.597854 1.03839,-1.321586 1.0384,-2.1712 l 0,-5.2392 c -1e-5,-0.84958 0.29892,-1.573312 0.8968,-2.1712 0.59785,-0.597844 1.32158,-0.896777 2.1712,-0.8968 0.84958,2.3e-5 1.57332,0.298956 2.1712,0.8968 0.62931,0.597888 0.94398,1.32162 0.944,2.1712 l 0,4.956 c -2e-5,0.944014 0.31465,1.746413 0.944,2.4072 0.66078,0.629345 1.46318,0.944011 2.4072,0.944 0.91251,1.1e-5 1.69918,-0.330388 2.36,-0.9912 0.66077,-0.660787 0.99117,-1.447453 0.9912,-2.36 l 0,-3.776 c -3e-5,-1.195714 0.40904,-2.202646 1.2272,-3.0208 0.81811,-0.818111 1.82504,-1.227177 3.0208,-1.2272 l 1.9352,0 c 1.16423,2.3e-5 2.15543,0.424822 2.9736,1.2744 0.84956,0.818154 1.27436,1.809353 1.2744,2.9736"
         id="path4729"
         inkscape:connector-curvature="0" />
      <path
         d="m 347.79607,87.761877 c -3e-5,3.241075 -1.13283,5.994405 -3.3984,8.26 -2.26562,2.265601 -5.01895,3.3984 -8.26,3.3984 -3.24108,0 -5.99441,-1.132799 -8.26,-3.3984 -2.23414,-2.265595 -3.35121,-5.018925 -3.3512,-8.26 -1e-5,-3.241052 1.11706,-5.97865 3.3512,-8.2128 2.26559,-2.265578 5.01892,-3.398377 8.26,-3.3984 3.24105,2.3e-5 5.99438,1.132822 8.26,3.3984 2.26557,2.23415 3.39837,4.971748 3.3984,8.2128 m -7.4576,0.236 c -2e-5,-0.440522 -0.17309,-0.818122 -0.5192,-1.1328 -0.31469,-0.346121 -0.69229,-0.519187 -1.1328,-0.5192 -0.44055,1.3e-5 -0.83389,0.173079 -1.18,0.5192 -0.31469,0.314678 -0.47202,0.692278 -0.472,1.1328 -2e-5,0.440544 0.15731,0.833877 0.472,1.18 0.34611,0.314676 0.73945,0.472009 1.18,0.472 0.44051,9e-6 0.81811,-0.157324 1.1328,-0.472 0.34611,-0.346123 0.51918,-0.739456 0.5192,-1.18 m 2.0296,4.5312 c -2e-5,-0.59786 -0.29896,-0.896793 -0.8968,-0.8968 -0.59789,7e-6 -0.89682,0.29894 -0.8968,0.8968 -2e-5,0.597873 0.29891,0.896806 0.8968,0.8968 0.59784,6e-6 0.89678,-0.298927 0.8968,-0.8968 m -4.0592,0 c -2e-5,-0.943993 -0.33042,-1.730658 -0.9912,-2.36 -0.66082,-0.66079 -1.46322,-0.99119 -2.4072,-0.9912 -0.94402,1e-5 -1.74641,0.33041 -2.4072,0.9912 -0.62935,0.629342 -0.94401,1.416007 -0.944,2.36 -1e-5,1.416005 0.56639,2.407204 1.6992,2.9736 0.56638,0.283203 1.11705,0.424803 1.652,0.4248 0.94398,3e-6 1.74638,-0.330396 2.4072,-0.9912 0.66078,-0.660795 0.99118,-1.463194 0.9912,-2.4072"
         id="path4731"
         inkscape:connector-curvature="0" />
      <path
         d="m 373.00603,90.546677 c -3e-5,0.881074 -0.29896,1.62054 -0.8968,2.2184 -0.56643,0.597872 -1.29016,0.896805 -2.1712,0.8968 -0.88109,5e-6 -1.62056,-0.283194 -2.2184,-0.8496 -0.59789,-0.59786 -0.89682,-1.337326 -0.8968,-2.2184 l 0,-0.1888 c -2e-5,-0.912524 -0.33042,-1.69919 -0.9912,-2.36 -0.66082,-0.660788 -1.44748,-0.991188 -2.36,-0.9912 -0.94402,1.2e-5 -1.74642,0.330412 -2.4072,0.9912 -0.62935,0.629344 -0.94401,1.41601 -0.944,2.36 l 0,4.248 c -10e-6,1.16427 -0.42481,2.171202 -1.2744,3.0208 -0.81815,0.818134 -1.80934,1.2272 -2.9736,1.2272 l -1.9352,0 c -1.16427,0 -2.17121,-0.409066 -3.0208,-1.2272 -0.81814,-0.849598 -1.2272,-1.85653 -1.2272,-3.0208 l 0,-14.2544 c 0,-1.164247 0.40906,-2.155446 1.2272,-2.9736 0.84959,-0.849578 1.85653,-1.274377 3.0208,-1.2744 l 0.3304,0 c 0.94399,2.3e-5 1.79359,0.298956 2.5488,0.8968 1.44745,-0.629311 2.95785,-0.943977 4.5312,-0.944 3.30398,2.3e-5 6.07305,1.148555 8.3072,3.4456 2.23411,2.297084 3.35117,5.097614 3.3512,8.4016 l 0,2.596"
         id="path4733"
         inkscape:connector-curvature="0" />
      <path
         d="m 398.2654,93.756277 c -3e-5,1.416004 -0.50349,2.627469 -1.5104,3.6344 -1.00696,1.006934 -2.21842,1.5104 -3.6344,1.5104 -1.44749,0 -2.65895,-0.487733 -3.6344,-1.4632 -0.97548,-1.006931 -1.46322,-2.234129 -1.4632,-3.6816 l 0,-1.0384 c -2e-5,-1.069859 -0.51922,-1.746392 -1.5576,-2.0296 -0.31468,-0.03146 -0.64508,-0.06292 -0.9912,-0.0944 -1.00695,0.188808 -1.57335,0.786674 -1.6992,1.7936 l 0,2.2656 c -10e-6,1.16427 -0.42481,2.171202 -1.2744,3.0208 -0.81814,0.818134 -1.80934,1.2272 -2.9736,1.2272 l -0.3304,0 c -1.16427,0 -2.17121,-0.409066 -3.0208,-1.2272 -0.81814,-0.849598 -1.2272,-1.85653 -1.2272,-3.0208 l 0,-24.5912 c 0,-1.164237 0.40906,-2.155436 1.2272,-2.9736 0.84959,-0.849568 1.85653,-1.274367 3.0208,-1.2744 l 1.9352,0 c 1.16425,3.3e-5 2.15545,0.424832 2.9736,1.2744 0.84959,0.818164 1.27439,1.809363 1.2744,2.9736 l 0,6.3248 c -10e-6,0.944021 0.31465,1.746421 0.944,2.4072 0.66078,0.629353 1.46318,0.944019 2.4072,0.944 0.91251,1.9e-5 1.69918,-0.330381 2.36,-0.9912 0.66078,-0.660779 0.99118,-1.447445 0.9912,-2.36 l 0,-1.3688 c -2e-5,-0.881042 0.29891,-1.604775 0.8968,-2.1712 0.59784,-0.59784 1.33731,-0.896773 2.2184,-0.8968 0.84957,2.7e-5 1.57331,0.29896 2.1712,0.8968 0.59784,0.597892 0.89677,1.321625 0.8968,2.1712 l 0,3.8232 c -3e-5,2.863484 -0.88109,5.380815 -2.6432,7.552 1.76211,2.139744 2.64317,4.594141 2.6432,7.3632"
         id="path4735"
         inkscape:connector-curvature="0" />
      <path
         d="m 423.66637,91.915477 c -3e-5,1.919472 -0.69229,3.57147 -2.0768,4.956 -1.35309,1.353068 -2.98936,2.0296 -4.9088,2.0296 l -13.4048,0 c -0.84961,0 -1.57334,-0.298933 -2.1712,-0.8968 -0.59787,-0.597865 -0.89681,-1.321598 -0.8968,-2.1712 -10e-6,-0.849596 0.29893,-1.573328 0.8968,-2.1712 0.62933,-0.597861 1.36879,-0.896794 2.2184,-0.8968 l 3.9176,0 c 0.88105,6e-6 1.32159,-0.440527 1.3216,-1.3216 -10e-6,-0.881058 -0.45628,-1.321591 -1.3688,-1.3216 -1.95094,9e-6 -3.60294,-0.676524 -4.956,-2.0296 -1.35307,-1.353054 -2.02961,-3.005053 -2.0296,-4.956 -10e-6,-1.919449 0.67653,-3.555714 2.0296,-4.9088 1.38452,-1.384511 3.03652,-2.076777 4.956,-2.0768 l 13.4048,0 c 0.84957,2.3e-5 1.57331,0.298956 2.1712,0.8968 0.59784,0.597888 0.89677,1.32162 0.8968,2.1712 -3e-5,0.849619 -0.3147,1.573351 -0.944,2.1712 -0.59789,0.597884 -1.32163,0.896817 -2.1712,0.8968 l -4.9088,0 c -0.88109,1.7e-5 -1.32162,0.44055 -1.3216,1.3216 -2e-5,0.881081 0.45625,1.321614 1.3688,1.3216 l 0.9912,0 c 1.91944,1.4e-5 3.55571,0.69228 4.9088,2.0768 1.38451,1.353077 2.07677,2.989342 2.0768,4.9088"
         id="path4737"
         inkscape:connector-curvature="0" />
    </g>
  </g>
  <g
     inkscape:groupmode="layer"
     id="layer2"
     inkscape:label="dascritch fond"
     style="display:inline;filter:url(#filter4660)">
    <g
       style="font-size:72px;font-style:normal;font-variant:normal;font-weight:normal;font-stretch:normal;line-height:125%;letter-spacing:0px;word-spacing:0px;fill:#5e94bd;fill-opacity:1;stroke:none;font-family:Billo Dream;-inkscape-font-specification:Billo Dream"
       id="text3696">
      <path
         d="m 69.35223,7.7 c -2.784029,5.41e-5 -5.157027,0.9820528 -7.125,2.95 -1.968023,1.968049 -2.950022,4.341046 -2.95,7.125 l 0,5.7 c -0.336022,3.8e-5 -0.662021,3.8e-5 -0.95,0 -5.904015,3.8e-5 -10.94901,2.099036 -15.125,6.275 -4.176002,4.176027 -6.25,9.169022 -6.25,15.025 0,5.904011 2.073998,10.949006 6.25,15.125 4.17599,4.175997 9.220985,6.274995 15.125,6.275 2.591976,-5e-6 5.126974,-0.463004 7.575,-1.375 1.10397,0.383996 2.249969,0.574996 3.45,0.575 l 0.5,0 c 2.735965,-4e-6 5.081962,-0.982003 7.05,-2.95 2.015958,-1.967999 3.02496,-4.340997 3.025,-7.125 l 0,-37.525 c -4e-5,-2.783954 -1.009042,-5.156951 -3.025,-7.125 -1.968038,-1.9679472 -4.314035,-2.9499459 -7.05,-2.95 z m -14.1,30.625 c 1.481058,0 2.675,1.180219 2.675,2.65 0,1.469781 -1.193942,2.675 -2.675,2.675 -1.481058,0 -2.675,-1.205219 -2.675,-2.675 0,-1.469781 1.193942,-2.65 2.675,-2.65 z"
         id="path3701"
         inkscape:connector-curvature="0"
         style="fill:#5e94bd;fill-opacity:1"
         sodipodi:nodetypes="cssccsssscssccccccsssss" />
      <path
         d="m 126.96875,29.34375 c -7.38002,4.7e-5 -13.65501,2.623795 -18.875,7.84375 -5.22,5.220034 -7.84375,11.461278 -7.84375,18.78125 0,7.380014 2.62375,13.686257 7.84375,18.90625 5.21999,5.219996 11.49498,7.843744 18.875,7.84375 3.23997,-6e-6 6.40873,-0.578755 9.46875,-1.71875 1.37996,0.479995 2.81246,0.718745 4.3125,0.71875 l 0.625,0 c 3.41996,-5e-6 6.35245,-1.227504 8.8125,-3.6875 2.51995,-2.459999 3.7812,-5.426246 3.78125,-8.90625 l 0,-27.1875 c -5e-5,-3.479961 -1.2613,-6.446209 -3.78125,-8.90625 -2.46005,-2.459954 -5.39254,-3.687453 -8.8125,-3.6875 l -0.625,0 c -1.98004,4.7e-5 -3.85379,0.410048 -5.59375,1.25 -2.64002,-0.839952 -5.36753,-1.249953 -8.1875,-1.25 z m -2.25,18.59375 c 1.85132,0 3.34375,1.506524 3.34375,3.34375 0,1.837226 -1.49243,3.3125 -3.34375,3.3125 -1.85132,0 -3.34375,-1.475274 -3.34375,-3.3125 0,-1.837226 1.49243,-3.34375 3.34375,-3.34375 z"
         transform="scale(0.8,0.8)"
         id="path3703"
         inkscape:connector-curvature="0"
         style="fill:#5e94bd;fill-opacity:1"
         sodipodi:nodetypes="csssscssccccccccsssss" />
      <path
         d="m 188.83577,51.121779 c -5e-5,3.936006 -1.39204,7.296003 -4.176,10.08 -2.78404,2.783997 -6.14404,4.175996 -10.08,4.176 l -20.448,0 c -2.30401,-4e-6 -4.27201,-0.816003 -5.904,-2.448 -1.584,-1.584 -2.376,-3.527998 -2.376,-5.832 0,-1.823994 0.528,-3.455992 1.584,-4.896 1.10399,-1.439989 2.49599,-2.423988 4.176,-2.952 -3.84,-2.879985 -5.76,-6.719981 -5.76,-11.52 0,-3.935972 1.392,-7.295969 4.176,-10.08 2.78399,-2.783963 6.14399,-4.175962 10.08,-4.176 l 20.448,0 c 2.30396,3.8e-5 4.24796,0.816037 5.832,2.448 1.63196,1.584034 2.44795,3.528032 2.448,5.832 -5e-5,1.824028 -0.55205,3.456026 -1.656,4.896 -1.05604,1.440023 -2.44804,2.448022 -4.176,3.024 3.88796,2.832019 5.83195,6.648015 5.832,11.448"
         id="path3705"
         inkscape:connector-curvature="0"
         style="fill:#5e94bd;fill-opacity:1"
         sodipodi:nodetypes="ccssssccssscccccc" />
      <path
         d="m 231.35083,55.297779 c -4e-5,2.784003 -0.98404,5.160001 -2.952,7.128 -1.96804,1.967997 -4.34403,2.951996 -7.128,2.952 l -11.448,0 c -5.85601,-4e-6 -10.87201,-2.088002 -15.048,-6.264 -4.176,-4.175994 -6.264,-9.215988 -6.264,-15.12 0,-5.855977 2.088,-10.871972 6.264,-15.048 4.17599,-4.175963 9.19199,-6.263961 15.048,-6.264 l 13.176,-0.072 c 2.30397,3.9e-5 4.27196,0.816038 5.904,2.448 1.63196,1.632035 2.44796,3.600033 2.448,5.904 -4e-5,2.304028 -0.81604,4.272026 -2.448,5.904 -1.58404,1.632023 -3.52803,2.448022 -5.832,2.448 l -7.776,0 c -1.00802,2.2e-5 -1.51202,0.504022 -1.512,1.512 -2e-5,1.00802 0.50398,1.512019 1.512,1.512 -0.048,1.9e-5 0.74397,1.9e-5 2.376,0 1.63197,-0.04798 2.83197,-0.07198 3.6,-0.072 2.78397,1.9e-5 5.15996,0.984018 7.128,2.952 1.96796,1.968014 2.95196,4.344012 2.952,7.128 l 0,2.952"
         id="path3707"
         inkscape:connector-curvature="0"
         style="fill:#5e94bd;fill-opacity:1"
         sodipodi:nodetypes="ccssssscccccscccccccc" />
      <path
         d="m 274.33394,49.033779 c -5e-5,2.30401 -0.81604,4.272008 -2.448,5.904 -1.63204,1.632005 -3.57604,2.448004 -5.832,2.448 -2.30403,4e-6 -4.27203,-0.791995 -5.904,-2.376 -1.63203,-1.631992 -2.44803,-3.59999 -2.448,-5.904 -3e-5,-1.199987 -0.50403,-1.799986 -1.512,-1.8 -1.05603,1.4e-5 -1.56003,0.504014 -1.512,1.512 -3e-5,-0.04799 -3e-5,0.840012 0,2.664 -3e-5,1.776008 -3e-5,3.048007 0,3.816 -3e-5,2.784003 -0.98402,5.160001 -2.952,7.128 -1.96802,1.967997 -4.34402,2.951996 -7.128,2.952 l -2.952,0 c -2.78401,-4e-6 -5.16001,-0.984003 -7.128,-2.952 -1.968,-1.967999 -2.952,-4.343997 -2.952,-7.128 l 0,-21.744 c 0,-2.783969 0.984,-5.159967 2.952,-7.128 1.96799,-1.967963 4.34399,-2.951962 7.128,-2.952 l 0.504,0 c 1.48799,3.8e-5 2.90398,0.312038 4.248,0.936 2.15998,-0.671962 4.34398,-1.007962 6.552,-1.008 5.80797,3.8e-5 10.79997,2.112036 14.976,6.336 4.22396,4.224027 6.35995,9.336022 6.408,15.336 l 0,3.96"
         id="path3709"
         inkscape:connector-curvature="0"
         style="fill:#5e94bd;fill-opacity:1"
         sodipodi:nodetypes="ccsccccccsssssscccccccc" />
      <path
         d="m 298.78624,17.658416 -4.88166,5.167363 -1.224,4.176 c 1.63198,1.872033 2.44798,4.05603 2.448,6.552 l 0,21.744 c -2e-5,2.784003 -1.00802,5.160001 -3.024,7.128 -1.96802,1.967997 -4.32002,2.951996 -7.056,2.952 l -0.504,0 c -2.78401,-4e-6 -5.16001,-0.984003 -7.128,-2.952 -1.968,-1.967999 -2.952,-4.343997 -2.952,-7.128 l 0,-21.744 c 0,-2.15997 0.624,-4.103968 1.872,-5.832 l -2.016,0 1.152,-8.856 -2.952,-8.424 8.784,-1.6560004 7.128,-5.4 c 0,0 2.29696,5.6025686 4.248,7.8480004 1.6259,1.871236 5.98183,4.418532 5.98183,4.418532"
         id="path3711"
         inkscape:connector-curvature="0"
         sodipodi:nodetypes="cccsscsssssccccccac"
         style="fill:#5e94bd;fill-opacity:1" />
      <path
         d="m 338.14217,38.665779 -0.072,5.4 c -0.0481,5.904011 -2.16004,10.944006 -6.336,15.12 -4.12804,4.127998 -9.12003,6.191996 -14.976,6.192 -5.90402,-4e-6 -10.94401,-2.088002 -15.12,-6.264 -4.176,-4.175994 -6.264,-9.191989 -6.264,-15.048 l 0,-26.28 c 0,-2.783954 0.984,-5.159951 2.952,-7.128 1.96799,-1.9679473 4.34399,-2.9519463 7.128,-2.9520004 l 2.952,0 c 2.78398,5.41e-5 5.15998,0.9840531 7.128,2.9520004 1.96798,1.968049 2.95197,4.344046 2.952,7.128 l 0,1.44 5.04,0 c 2.30397,4.2e-5 4.27196,0.816041 5.904,2.448 1.63196,1.632038 2.44796,3.600036 2.448,5.904 -4e-5,1.008033 -0.16804,1.968032 -0.504,2.88 1.91996,0.384031 3.52796,1.34403 4.824,2.88 1.29596,1.536027 1.94395,3.312025 1.944,5.328 m -16.272,-2.736 0,0 -3.456,0 0,2.664 c -3e-5,1.008022 0.50397,1.512021 1.512,1.512 1.00797,2.1e-5 1.51197,-0.479978 1.512,-1.44 -3e-5,-0.959976 0.14397,-1.871975 0.432,-2.736"
         id="path3713"
         inkscape:connector-curvature="0"
         style="fill:#5e94bd;fill-opacity:1"
         sodipodi:nodetypes="ccsssssccccccccccccccccccc" />
      <path
         d="m 380.91479,55.297779 c -5e-5,2.784003 -0.98404,5.160001 -2.952,7.128 -1.96804,1.967997 -4.34404,2.951996 -7.128,2.952 l -11.448,0 c -5.85602,-4e-6 -10.87201,-2.088002 -15.048,-6.264 -4.176,-4.175994 -6.264,-9.215988 -6.264,-15.12 0,-5.855977 2.088,-10.871972 6.264,-15.048 4.17599,-4.175963 9.19198,-6.263961 15.048,-6.264 l 13.176,-0.072 c 2.30396,3.9e-5 4.27196,0.816038 5.904,2.448 1.63196,1.632035 2.44795,3.600033 2.448,5.904 -5e-5,2.304028 -0.81604,4.272026 -2.448,5.904 -1.58404,1.632023 -3.52804,2.448022 -5.832,2.448 l -7.776,0 c -1.00803,2.2e-5 -1.51203,0.504022 -1.512,1.512 -3e-5,1.00802 0.50397,1.512019 1.512,1.512 -0.048,1.9e-5 0.74397,1.9e-5 2.376,0 1.63197,-0.04798 2.83197,-0.07198 3.6,-0.072 2.78396,1.9e-5 5.15996,0.984018 7.128,2.952 1.96796,1.968014 2.95195,4.344012 2.952,7.128 l 0,2.952"
         id="path3715"
         inkscape:connector-curvature="0"
         style="fill:#5e94bd;fill-opacity:1"
         sodipodi:nodetypes="ccssssscccccscccccccc" />
      <path
         d="m 424.12759,57.025779 c -4e-5,2.304002 -0.81604,4.272 -2.448,5.904 -1.63204,1.631997 -3.57603,2.447996 -5.832,2.448 -2.30403,-4e-6 -4.27203,-0.816003 -5.904,-2.448 -1.63202,-1.584 -2.44802,-3.527998 -2.448,-5.832 l 0,-8.28 c -2e-5,-1.007986 -0.50402,-1.511986 -1.512,-1.512 -1.05602,1.4e-5 -1.58402,0.504014 -1.584,1.512 l 0.072,6.48 c -2e-5,2.784003 -0.98402,5.160001 -2.952,7.128 -1.96802,1.967997 -4.34401,2.951996 -7.128,2.952 l -2.952,0 c -2.78401,-4e-6 -5.16,-0.984003 -7.128,-2.952 -1.968,-1.967999 -2.952,-4.343997 -2.952,-7.128 l 0,-37.512 c 0,-2.783954 0.984,-5.159951 2.952,-7.128 1.968,-1.9679473 4.34399,-2.9519463 7.128,-2.9520004 l 0.504,0 c 2.73599,5.41e-5 5.08799,0.9840531 7.056,2.9520004 2.01598,1.968049 3.02398,4.344046 3.024,7.128 l 0,5.616 c 6.14398,-0.191962 11.35197,1.848036 15.624,6.12 4.31996,4.224028 6.47996,9.408022 6.48,15.552 l 0,11.952"
         id="path3717"
         inkscape:connector-curvature="0"
         style="fill:#5e94bd;fill-opacity:1"
         sodipodi:nodetypes="ccscsccccssssssccccsccsc" />
    </g>
  </g>
  <g
     style="display:inline"
     inkscape:label="dascritch contour"
     id="g4626"
     inkscape:groupmode="layer">
    <g
       id="g4628"
       style="font-size:72px;font-style:normal;font-variant:normal;font-weight:normal;font-stretch:normal;line-height:125%;letter-spacing:0px;word-spacing:0px;fill:#000000;fill-opacity:1;stroke:none;font-family:Billo Dream;-inkscape-font-specification:Billo Dream">
      <path
         inkscape:connector-curvature="0"
         id="path4630"
         d="m 69.35223,7.7 c -2.784029,5.41e-5 -5.157027,0.9820528 -7.125,2.95 -1.968023,1.968049 -2.950022,4.341046 -2.95,7.125 l 0,5.7 c -0.336022,3.8e-5 -0.662021,3.8e-5 -0.95,0 -5.904015,3.8e-5 -10.94901,2.099036 -15.125,6.275 -4.176002,4.176027 -6.25,9.169022 -6.25,15.025 0,5.904011 2.073998,10.949006 6.25,15.125 4.17599,4.175997 9.220985,6.274995 15.125,6.275 2.591976,-5e-6 5.126974,-0.463004 7.575,-1.375 1.10397,0.383996 2.249969,0.574996 3.45,0.575 l 0.5,0 c 2.735965,-4e-6 5.081962,-0.982003 7.05,-2.95 2.015958,-1.967999 3.02496,-4.340997 3.025,-7.125 l 0,-37.525 c -4e-5,-2.783954 -1.009042,-5.156951 -3.025,-7.125 -1.968038,-1.9679472 -4.314035,-2.9499459 -7.05,-2.95 l -0.5,0 z m 0,3.6 0.5,0 c 1.775966,5e-5 3.276964,0.654049 4.525,1.95 1.295961,1.248047 1.949961,2.749045 1.95,4.525 l 0,37.525 c -3.9e-5,1.776004 -0.654039,3.304003 -1.95,4.6 -1.248036,1.248 -2.749034,1.875 -4.525,1.875 l -0.5,0 c -1.200031,0 -2.34403,-0.301 -3.4,-0.925 -2.400026,1.151999 -4.937024,1.724999 -7.625,1.725 -4.944016,-1e-6 -9.144012,-1.743999 -12.6,-5.2 -3.456005,-3.455993 -5.175003,-7.655988 -5.175,-12.6 -3e-6,-4.895978 1.718995,-9.068974 5.175,-12.525 3.455988,-3.455967 7.655984,-5.174966 12.6,-5.175 1.535977,3.4e-5 3.061976,0.191034 4.55,0.575 l 0,-9.875 c -2.6e-5,-1.775955 0.626974,-3.276953 1.875,-4.525 1.295971,-1.295951 2.82397,-1.94995 4.6,-1.95 z m 3.375,9.575 c -0.480035,4.1e-5 -0.725035,0.24504 -0.725,0.725 l 0,30.025 c -3.5e-5,1.248009 -0.411034,2.311007 -1.275,3.175 -0.864033,0.864006 -1.927032,1.300005 -3.175,1.3 l -0.375,0 c -0.48003,5e-6 -0.700029,0.220005 -0.7,0.7 -2.9e-5,0.480004 0.21997,0.725004 0.7,0.725 l 0.375,0 c 1.631968,4e-6 3.022967,-0.572996 4.175,-1.725 1.151964,-1.151993 1.724964,-2.542992 1.725,-4.175 l 0,-30.025 c -3.6e-5,-0.47996 -0.245036,-0.724959 -0.725,-0.725 z M 55.30223,34.7 c -1.776016,2.7e-5 -3.250015,0.627026 -4.45,1.875 -1.200013,1.200024 -1.800012,2.672022 -1.8,4.4 -1.2e-5,1.728019 0.599987,3.202017 1.8,4.45 1.199985,1.200015 2.673984,1.800014 4.45,1.8 1.72798,1.4e-5 3.199979,-0.599985 4.4,-1.8 1.247976,-1.247983 1.874976,-2.721981 1.875,-4.45 -2.4e-5,-1.727978 -0.627024,-3.199976 -1.875,-4.4 -1.200021,-1.247974 -2.67202,-1.874973 -4.4,-1.875 z m -0.05,3.625 c 1.481058,0 2.675,1.180219 2.675,2.65 0,1.469781 -1.193942,2.675 -2.675,2.675 -1.481058,0 -2.675,-1.205219 -2.675,-2.675 0,-1.469781 1.193942,-2.65 2.675,-2.65 z m -11.1,4.225 c -0.480007,1.9e-5 -0.725006,0.245019 -0.725,0.725 -6e-6,4.080014 1.444992,7.572011 4.325,10.5 2.927986,2.928005 6.446983,4.400003 10.575,4.4 0.479978,3e-6 0.724978,-0.244997 0.725,-0.725 -2.2e-5,-0.479996 -0.245022,-0.699995 -0.725,-0.7 -3.744017,5e-6 -6.935014,-1.334994 -9.575,-3.975 -2.592009,-2.639989 -3.875008,-5.803986 -3.875,-9.5 -8e-6,-0.479981 -0.245007,-0.724981 -0.725,-0.725 z" />
      <path
         inkscape:connector-curvature="0"
         id="path4632"
         transform="scale(0.8,0.8)"
         d="m 126.96875,29.34375 c -7.38002,4.7e-5 -13.65501,2.623795 -18.875,7.84375 -5.22,5.220034 -7.84375,11.461278 -7.84375,18.78125 0,7.380014 2.62375,13.686257 7.84375,18.90625 5.21999,5.219996 11.49498,7.843744 18.875,7.84375 3.23997,-6e-6 6.40873,-0.578755 9.46875,-1.71875 1.37996,0.479995 2.81246,0.718745 4.3125,0.71875 l 0.625,0 c 3.41996,-5e-6 6.35245,-1.227504 8.8125,-3.6875 2.51995,-2.459999 3.7812,-5.426246 3.78125,-8.90625 l 0,-27.1875 c -5e-5,-3.479961 -1.2613,-6.446209 -3.78125,-8.90625 -2.46005,-2.459954 -5.39254,-3.687453 -8.8125,-3.6875 l -0.625,0 c -1.98004,4.7e-5 -3.85379,0.410048 -5.59375,1.25 -2.64002,-0.839952 -5.36753,-1.249953 -8.1875,-1.25 z m 0,4.5 c 2.99997,4.3e-5 5.92998,0.612542 8.75,1.8125 1.43996,-1.199958 3.11121,-1.812458 5.03125,-1.8125 l 0.625,0 c 2.21996,4.3e-5 4.12746,0.817542 5.6875,2.4375 1.61995,1.560039 2.4062,3.436287 2.40625,5.65625 l 0,27.1875 c -5e-5,2.220005 -0.7863,4.130004 -2.40625,5.75 -1.56004,1.56 -3.46754,2.34375 -5.6875,2.34375 l -0.625,0 c -1.50004,0 -2.89879,-0.37625 -4.21875,-1.15625 -3.00002,1.439999 -6.20253,2.156249 -9.5625,2.15625 -6.18002,-10e-7 -11.43001,-2.179999 -15.75,-6.5 -4.32001,-4.319991 -6.46875,-9.569985 -6.46875,-15.75 0,-6.119972 2.14874,-11.336217 6.46875,-15.65625 4.31998,-4.319959 9.56998,-6.468708 15.75,-6.46875 z m -2.25,9.53125 c -2.16002,3.4e-5 -4.00252,0.783783 -5.5625,2.34375 -1.50002,1.50003 -2.25002,3.340027 -2.25,5.5 -2e-5,2.160024 0.74998,4.002521 2.25,5.5625 1.55998,1.500019 3.40248,2.250017 5.5625,2.25 2.15997,1.8e-5 3.99998,-0.749981 5.5,-2.25 1.55997,-1.559979 2.34373,-3.402476 2.34375,-5.5625 -2e-5,-2.159973 -0.78377,-3.99997 -2.34375,-5.5 -1.50003,-1.559967 -3.34003,-2.343716 -5.5,-2.34375 z m 20.25,0.46875 c -0.60004,3.3e-5 -0.87504,0.275033 -0.875,0.875 l 0,21.78125 c -4e-5,1.560009 -0.54504,2.888757 -1.625,3.96875 -1.08004,1.080005 -2.40879,1.625005 -3.96875,1.625 l -0.4375,0 c -0.60004,5e-6 -0.90629,0.306254 -0.90625,0.90625 -4e-5,0.600004 0.30621,0.906252 0.90625,0.90625 l 0.4375,0 c 2.03996,3e-6 3.77871,-0.747496 5.21875,-2.1875 1.43996,-1.439994 2.15621,-3.178741 2.15625,-5.21875 l 0,-21.78125 c -4e-5,-0.599968 -0.30629,-0.874968 -0.90625,-0.875 z m -20.25,4.09375 c 1.85132,0 3.34375,1.506524 3.34375,3.34375 0,1.837226 -1.49243,3.3125 -3.34375,3.3125 -1.85132,0 -3.34375,-1.475274 -3.34375,-3.3125 0,-1.837226 1.49243,-3.34375 3.34375,-3.34375 z m -15.46875,7.25 c -0.60001,2.1e-5 -0.90626,0.275021 -0.90625,0.875 -1e-5,5.100015 1.80624,9.496261 5.40625,13.15625 3.65998,3.660004 8.05873,5.468753 13.21875,5.46875 0.59997,3e-6 0.90623,-0.274997 0.90625,-0.875 -2e-5,-0.599996 -0.30627,-0.906246 -0.90625,-0.90625 -4.68002,4e-6 -8.66877,-1.668745 -11.96875,-4.96875 -3.24001,-3.299987 -4.84376,-7.254984 -4.84375,-11.875 -1e-5,-0.599979 -0.30626,-0.874979 -0.90625,-0.875 z" />
      <path
         inkscape:connector-curvature="0"
         id="path4634"
         d="m 188.83577,51.121779 c -5e-5,3.936006 -1.39204,7.296003 -4.176,10.08 -2.78404,2.783997 -6.14404,4.175996 -10.08,4.176 l -20.448,0 c -2.30401,-4e-6 -4.27201,-0.816003 -5.904,-2.448 -1.584,-1.584 -2.376,-3.527998 -2.376,-5.832 0,-1.823994 0.528,-3.455992 1.584,-4.896 1.10399,-1.439989 2.49599,-2.423988 4.176,-2.952 -3.84,-2.879985 -5.76,-6.719981 -5.76,-11.52 0,-3.935972 1.392,-7.295969 4.176,-10.08 2.78399,-2.783963 6.14399,-4.175962 10.08,-4.176 l 20.448,0 c 2.30396,3.8e-5 4.24796,0.816037 5.832,2.448 1.63196,1.584034 2.44795,3.528032 2.448,5.832 -5e-5,1.824028 -0.55205,3.456026 -1.656,4.896 -1.05604,1.440023 -2.44804,2.448022 -4.176,3.024 3.88796,2.832019 5.83195,6.648015 5.832,11.448 m -3.6,0 c -4e-5,-2.927987 -1.05604,-5.423984 -3.168,-7.488 -2.06404,-2.11198 -4.56003,-3.167979 -7.488,-3.168 l -1.512,0 c -1.39203,2.1e-5 -2.08803,-0.671978 -2.088,-2.016 -3e-5,-1.343976 0.67197,-2.015975 2.016,-2.016 l 7.488,0 c 1.29596,2.5e-5 2.39996,-0.455975 3.312,-1.368 0.95996,-0.911973 1.43996,-2.015972 1.44,-3.312 -4e-5,-1.295969 -0.45604,-2.399968 -1.368,-3.312 -0.91204,-0.911966 -2.01604,-1.367966 -3.312,-1.368 l -20.448,0 c -2.92801,3.4e-5 -5.44801,1.056033 -7.56,3.168 -2.06401,2.064029 -3.09601,4.560027 -3.096,7.488 -1e-5,2.976021 1.03199,5.496018 3.096,7.56 2.11199,2.064014 4.63199,3.096013 7.56,3.096 1.39198,1.3e-5 2.08798,0.672012 2.088,2.016 -2e-5,1.34401 -0.67202,2.016009 -2.016,2.016 l -5.976,0 c -1.29601,9e-6 -2.42401,0.456009 -3.384,1.368 -0.91201,0.912007 -1.36801,2.016006 -1.368,3.312 -1e-5,1.296003 0.45599,2.400002 1.368,3.312 0.91199,0.912 2.01599,1.368 3.312,1.368 l 20.448,0 c 2.92797,0 5.42396,-1.031999 7.488,-3.096 2.11196,-2.111995 3.16796,-4.631993 3.168,-7.56 m -7.344,-19.872 -16.344,0 c -2.16002,3e-5 -4.00801,0.768029 -5.544,2.304 -1.48801,1.536026 -2.23201,3.384024 -2.232,5.544 -1e-5,1.96802 0.64799,3.696019 1.944,5.184 0.14399,0.144017 0.21599,0.312017 0.216,0.504 -1e-5,0.480016 -0.24001,0.720016 -0.72,0.72 -0.19201,1.6e-5 -0.36001,-0.07198 -0.504,-0.216 -1.58401,-1.775982 -2.37601,-3.83998 -2.376,-6.192 -1e-5,-2.543975 0.88799,-4.727973 2.664,-6.552 1.82399,-1.823969 4.00798,-2.735968 6.552,-2.736 l 16.344,0 c 0.47996,3.2e-5 0.71996,0.240031 0.72,0.72 -4e-5,0.48003 -0.24004,0.72003 -0.72,0.72 m 4.464,18.504 c -4e-5,2.592009 -0.91204,4.800007 -2.736,6.624 -1.77603,1.776003 -3.93603,2.664002 -6.48,2.664 l -16.344,0 c -0.48001,2e-6 -0.72001,-0.239997 -0.72,-0.72 -1e-5,-0.479996 0.23999,-0.719996 0.72,-0.72 l 16.344,0 c 2.15997,4e-6 3.98397,-0.767995 5.472,-2.304 1.53596,-1.535992 2.30396,-3.383991 2.304,-5.544 -4e-5,-0.479988 0.23996,-0.719988 0.72,-0.72 0.47996,1.2e-5 0.71996,0.240012 0.72,0.72" />
      <path
         inkscape:connector-curvature="0"
         id="path4636"
         d="m 231.35083,55.297779 c -4e-5,2.784003 -0.98404,5.160001 -2.952,7.128 -1.96804,1.967997 -4.34403,2.951996 -7.128,2.952 l -11.448,0 c -5.85601,-4e-6 -10.87201,-2.088002 -15.048,-6.264 -4.176,-4.175994 -6.264,-9.215988 -6.264,-15.12 0,-5.855977 2.088,-10.871972 6.264,-15.048 4.17599,-4.175963 9.19199,-6.263961 15.048,-6.264 l 13.176,-0.072 c 2.30397,3.9e-5 4.27196,0.816038 5.904,2.448 1.63196,1.632035 2.44796,3.600033 2.448,5.904 -4e-5,2.304028 -0.81604,4.272026 -2.448,5.904 -1.58404,1.632023 -3.52803,2.448022 -5.832,2.448 l -7.776,0 c -1.00802,2.2e-5 -1.51202,0.504022 -1.512,1.512 -2e-5,1.00802 0.50398,1.512019 1.512,1.512 -0.048,1.9e-5 0.74397,1.9e-5 2.376,0 1.63197,-0.04798 2.83197,-0.07198 3.6,-0.072 2.78397,1.9e-5 5.15996,0.984018 7.128,2.952 1.96796,1.968014 2.95196,4.344012 2.952,7.128 l 0,2.952 m -3.6,0 0,-2.952 c -4e-5,-1.775989 -0.64804,-3.287988 -1.944,-4.536 -1.24803,-1.295985 -2.76003,-1.943984 -4.536,-1.944 -1.24803,1.6e-5 -3.24003,0.02402 -5.976,0.072 -1.39202,1.5e-5 -2.59202,-0.503984 -3.6,-1.512 -1.00802,-1.007982 -1.51202,-2.207981 -1.512,-3.6 -2e-5,-1.439978 0.50398,-2.639977 1.512,-3.6 1.00798,-1.007975 2.20798,-1.511974 3.6,-1.512 l 7.776,0 c 1.29597,2.6e-5 2.39997,-0.455974 3.312,-1.368 0.91196,-0.959972 1.36796,-2.087971 1.368,-3.384 -4e-5,-1.295968 -0.45604,-2.399967 -1.368,-3.312 -0.91203,-0.959965 -2.01603,-1.439965 -3.312,-1.44 l -13.176,0.072 c -4.94401,3.5e-5 -9.14401,1.728033 -12.6,5.184 -3.456,3.456026 -5.184,7.632022 -5.184,12.528 0,4.896013 1.728,9.096008 5.184,12.6 3.45599,3.456001 7.65599,5.184 12.6,5.184 l 11.376,0 c 1.77597,0 3.28797,-0.624 4.536,-1.872 1.29596,-1.247997 1.94396,-2.783996 1.944,-4.608 m -7.344,-24.768 -10.512,0 c -0.48002,3.1e-5 -0.72002,-0.239969 -0.72,-0.72 -2e-5,-0.479968 0.23998,-0.719968 0.72,-0.72 l 10.512,0 c 0.47997,3.2e-5 0.71997,0.240032 0.72,0.72 -3e-5,0.480031 -0.24003,0.720031 -0.72,0.72 m 4.536,22.536 c -3e-5,1.632007 -0.57603,3.024005 -1.728,4.176 -1.15203,1.152003 -2.56803,1.728002 -4.248,1.728 l -9.072,0 c -4.12802,2e-6 -7.65601,-1.463996 -10.584,-4.392 -2.92801,-2.92799 -4.392,-6.455987 -4.392,-10.584 0,-0.479982 0.24,-0.719982 0.72,-0.72 0.47999,1.8e-5 0.71999,0.240018 0.72,0.72 -1e-5,3.744014 1.31999,6.93601 3.96,9.576 2.63999,2.640005 5.83198,3.960004 9.576,3.96 l 9.144,0 c 1.19997,4e-6 2.23197,-0.431996 3.096,-1.296 0.91197,-0.863994 1.36797,-1.919993 1.368,-3.168 l 0,-2.376 c -3e-5,-0.479989 0.23997,-0.719989 0.72,-0.72 0.47997,1.1e-5 0.71997,0.240011 0.72,0.72 l 0,2.376" />
      <path
         inkscape:connector-curvature="0"
         id="path4638"
         d="m 274.33394,49.033779 c -5e-5,2.30401 -0.81604,4.272008 -2.448,5.904 -1.63204,1.632005 -3.57604,2.448004 -5.832,2.448 -2.30403,4e-6 -4.27203,-0.791995 -5.904,-2.376 -1.63203,-1.631992 -2.44803,-3.59999 -2.448,-5.904 -3e-5,-1.199987 -0.50403,-1.799986 -1.512,-1.8 -1.05603,1.4e-5 -1.56003,0.504014 -1.512,1.512 -3e-5,-0.04799 -3e-5,0.840012 0,2.664 -3e-5,1.776008 -3e-5,3.048007 0,3.816 -3e-5,2.784003 -0.98402,5.160001 -2.952,7.128 -1.96802,1.967997 -4.34402,2.951996 -7.128,2.952 l -2.952,0 c -2.78401,-4e-6 -5.16001,-0.984003 -7.128,-2.952 -1.968,-1.967999 -2.952,-4.343997 -2.952,-7.128 l 0,-21.744 c 0,-2.783969 0.984,-5.159967 2.952,-7.128 1.96799,-1.967963 4.34399,-2.951962 7.128,-2.952 l 0.504,0 c 1.48799,3.8e-5 2.90398,0.312038 4.248,0.936 2.15998,-0.671962 4.34398,-1.007962 6.552,-1.008 5.80797,3.8e-5 10.79997,2.112036 14.976,6.336 4.22396,4.224027 6.35995,9.336022 6.408,15.336 l 0,3.96 m -3.6,0 0,-3.96 c 0.048,-5.039979 -1.68004,-9.311974 -5.184,-12.816 -3.50403,-3.503967 -7.70403,-5.255966 -12.6,-5.256 -2.40002,3.4e-5 -4.70402,0.480034 -6.912,1.44 -1.15202,-0.911966 -2.44801,-1.367966 -3.888,-1.368 l -0.504,0 c -1.77601,3.4e-5 -3.31201,0.648034 -4.608,1.944 -1.24801,1.248031 -1.87201,2.76003 -1.872,4.536 l 0,21.744 c -1e-5,1.776004 0.62399,3.312003 1.872,4.608 1.29599,1.248 2.83199,1.872 4.608,1.872 l 2.952,0 c 1.77598,0 3.28798,-0.624 4.536,-1.872 1.29598,-1.295997 1.94398,-2.831996 1.944,-4.608 -2e-5,-1.247993 -2e-5,-3.40799 0,-6.48 -2e-5,-1.391986 0.47998,-2.591985 1.44,-3.6 1.00798,-1.007983 2.23197,-1.511982 3.672,-1.512 1.39197,1.8e-5 2.59197,0.504017 3.6,1.512 1.00797,1.008015 1.51197,2.208014 1.512,3.6 l 0,0.288 c -3e-5,1.296011 0.45597,2.40001 1.368,3.312 0.91197,0.912008 2.03996,1.368008 3.384,1.368 1.29596,8e-6 2.39996,-0.455992 3.312,-1.368 0.91196,-0.91199 1.36796,-2.039989 1.368,-3.384 m -2.88,-4.104 c -4e-5,0.480016 -0.24004,0.720016 -0.72,0.72 -0.48004,1.6e-5 -0.72004,-0.239984 -0.72,-0.72 0.096,-3.79198 -1.20004,-7.031976 -3.888,-9.72 -2.68803,-2.687971 -5.88003,-4.03197 -9.576,-4.032 -1.77602,3e-5 -3.52802,0.36003 -5.256,1.08 -0.67202,0.288029 -1.00802,0.07203 -1.008,-0.648 -2e-5,-0.33597 0.14398,-0.55197 0.432,-0.648 1.91998,-0.815969 3.86398,-1.223968 5.832,-1.224 4.07997,3.2e-5 7.60797,1.48803 10.584,4.464 2.97596,2.928024 4.41596,6.504021 4.32,10.728 m -23.04,14.112 -0.936,0 c -1.63201,2e-6 -3.02401,-0.575997 -4.176,-1.728 -1.15201,-1.151995 -1.72801,-2.543993 -1.728,-4.176 l 0,-17.424 c -1e-5,-1.631973 0.57599,-3.023971 1.728,-4.176 1.15199,-1.151969 2.54399,-1.727968 4.176,-1.728 l 0.432,0 c 0.47998,3.2e-5 0.71998,0.240031 0.72,0.72 -2e-5,0.48003 -0.24002,0.72003 -0.72,0.72 l -0.432,0 c -1.20001,3e-5 -2.25601,0.45603 -3.168,1.368 -0.86401,0.864028 -1.29601,1.896027 -1.296,3.096 l 0,17.424 c -1e-5,1.200007 0.43199,2.256006 1.296,3.168 0.91199,0.864004 1.96799,1.296004 3.168,1.296 l 0.936,0 c 0.47998,4e-6 0.71998,0.240004 0.72,0.72 -2e-5,0.480003 -0.24002,0.720002 -0.72,0.72" />
      <path
         sodipodi:nodetypes="cccsscsssssccccccaccccccccccccccccccsscssccccccccccccccccccccssscsscccccccccccc"
         inkscape:connector-curvature="0"
         id="path4640"
         d="m 298.78624,17.658416 -4.88166,5.167363 -1.224,4.176 c 1.63198,1.872033 2.44798,4.05603 2.448,6.552 l 0,21.744 c -2e-5,2.784003 -1.00802,5.160001 -3.024,7.128 -1.96802,1.967997 -4.32002,2.951996 -7.056,2.952 l -0.504,0 c -2.78401,-4e-6 -5.16001,-0.984003 -7.128,-2.952 -1.968,-1.967999 -2.952,-4.343997 -2.952,-7.128 l 0,-21.744 c 0,-2.15997 0.624,-4.103968 1.872,-5.832 l -2.016,0 1.152,-8.856 -2.952,-8.424 8.784,-1.6560004 7.128,-5.4 c 0,0 2.29696,5.6025686 4.248,7.8480004 1.6259,1.871236 5.98183,4.418532 5.98183,4.418532 m -4.10983,1.269468 -4.608,-3.24 -2.664,-4.8960004 -4.464,3.3840004 -5.472,1.08 1.8,5.256 -0.72,5.544 5.616,-0.144 5.04,2.448 1.656,-5.4 3.816,-4.032 m -3.024,38.376 0,-21.744 c -2e-5,-1.77597 -0.64802,-3.287969 -1.944,-4.536 -1.24802,-1.295966 -2.76002,-1.943966 -4.536,-1.944 l -0.504,0 c -1.77601,3.4e-5 -3.31201,0.648034 -4.608,1.944 -1.24801,1.248031 -1.87201,2.76003 -1.872,4.536 l 0,21.744 c -10e-6,1.776004 0.62399,3.312003 1.872,4.608 1.29599,1.248 2.83199,1.872 4.608,1.872 l 0.504,0 c 1.77598,0 3.28798,-0.624 4.536,-1.872 1.29598,-1.295997 1.94398,-2.831996 1.944,-4.608 m -3.6,-40.392 c 0.096,0.144046 0.14398,0.264046 0.144,0.36 -2e-5,0.480046 -0.26402,0.720045 -0.792,0.72 -0.24002,4.5e-5 -0.43202,-0.119954 -0.576,-0.36 l -1.008,-1.8 c -1.05601,0.816047 -1.63201,1.248046 -1.728,1.296 -0.096,0.04805 -0.81601,0.192046 -2.16,0.432 0.47999,1.344045 0.71999,2.112044 0.72,2.304 -10e-6,-0.04796 -0.12001,0.888043 -0.36,2.808 -0.048,0.43204 -0.28801,0.64804 -0.72,0.648 -0.57601,4e-5 -0.81601,-0.28796 -0.72,-0.864 l 0.36,-2.664 c -0.62401,-1.727955 -0.93601,-2.687954 -0.936,-2.88 -10e-6,-0.287953 0.23999,-0.503953 0.72,-0.648 0.81599,-0.143953 1.65599,-0.287953 2.52,-0.432 1.53599,-1.199951 2.39999,-1.799951 2.592,-1.8 0.23999,4.9e-5 0.88798,0.960048 1.944,2.88 m 2.232,38.232 c -2e-5,1.632007 -0.57602,3.024005 -1.728,4.176 -1.15202,1.152003 -2.54401,1.728002 -4.176,1.728 l -0.36,0 c -0.48001,2e-6 -0.72001,-0.239997 -0.72,-0.72 -10e-6,-0.479996 0.23999,-0.719996 0.72,-0.72 l 0.36,0 c 1.24799,4e-6 2.30399,-0.431996 3.168,-1.296 0.86398,-0.911994 1.29598,-1.967993 1.296,-3.168 l 0,-17.424 c -2e-5,-1.199973 -0.43202,-2.231972 -1.296,-3.096 -0.86401,-0.91197 -1.92001,-1.36797 -3.168,-1.368 l -0.36,0 c -0.48001,3e-5 -0.72001,-0.23997 -0.72,-0.72 -10e-6,-0.479969 0.23999,-0.719968 0.72,-0.72 l 0.36,0 c 1.63199,3.2e-5 3.02398,0.576031 4.176,1.728 1.15198,1.152029 1.72798,2.544027 1.728,4.176 l 0,17.424" />
      <path
         inkscape:connector-curvature="0"
         id="path4642"
         d="m 338.14217,38.665779 -0.072,5.4 c -0.0481,5.904011 -2.16004,10.944006 -6.336,15.12 -4.12804,4.127998 -9.12003,6.191996 -14.976,6.192 -5.90402,-4e-6 -10.94401,-2.088002 -15.12,-6.264 -4.176,-4.175994 -6.264,-9.191989 -6.264,-15.048 l 0,-26.28 c 0,-2.783954 0.984,-5.159951 2.952,-7.128 1.96799,-1.9679473 4.34399,-2.9519463 7.128,-2.9520004 l 2.952,0 c 2.78398,5.41e-5 5.15998,0.9840531 7.128,2.9520004 1.96798,1.968049 2.95197,4.344046 2.952,7.128 l 0,1.44 5.04,0 c 2.30397,4.2e-5 4.27196,0.816041 5.904,2.448 1.63196,1.632038 2.44796,3.600036 2.448,5.904 -4e-5,1.008033 -0.16804,1.968032 -0.504,2.88 1.91996,0.384031 3.52796,1.34403 4.824,2.88 1.29596,1.536027 1.94395,3.312025 1.944,5.328 m -16.272,-2.736 0,0 -3.456,0 0,2.664 c -3e-5,1.008022 0.50397,1.512021 1.512,1.512 1.00797,2.1e-5 1.51197,-0.479978 1.512,-1.44 -3e-5,-0.959976 0.14397,-1.871975 0.432,-2.736 m 12.672,2.664 c -4e-5,-1.295976 -0.48004,-2.399975 -1.44,-3.312 -0.91204,-0.911973 -2.01604,-1.367973 -3.312,-1.368 -1.34404,2.7e-5 -2.47203,0.432027 -3.384,1.296 -0.91203,0.864025 -1.36803,1.992024 -1.368,3.384 -3e-5,1.392021 -0.50403,2.59202 -1.512,3.6 -0.96003,1.008018 -2.16003,1.512018 -3.6,1.512 -1.39203,1.8e-5 -2.59202,-0.503982 -3.6,-1.512 -1.00802,-1.00798 -1.51202,-2.207979 -1.512,-3.6 l 0,-6.264 8.712,0 c 1.29597,2.9e-5 2.39997,-0.45597 3.312,-1.368 0.95996,-0.959969 1.43996,-2.087967 1.44,-3.384 -4e-5,-1.295965 -0.48004,-2.399964 -1.44,-3.312 -0.91203,-0.959962 -2.01603,-1.439961 -3.312,-1.44 l -8.712,-0.072 0.072,-4.968 c -2e-5,-1.775955 -0.64802,-3.287953 -1.944,-4.536 -1.24802,-1.295951 -2.76002,-1.94395 -4.536,-1.944 l -2.952,0 c -1.82401,5e-5 -3.36001,0.648049 -4.608,1.944 -1.24801,1.248047 -1.87201,2.760045 -1.872,4.536 l 0,26.208 c -1e-5,4.896013 1.72799,9.096008 5.184,12.6 3.50398,3.456001 7.70398,5.184 12.6,5.184 4.89597,0 9.07197,-1.727999 12.528,-5.184 3.45596,-3.455992 5.18396,-7.655988 5.184,-12.6 l 0.072,-5.4 m -12.384,-13.752 c 0.47997,3.7e-5 0.71997,0.240036 0.72,0.72 -3e-5,0.480035 -0.24003,0.720035 -0.72,0.72 l -6.912,0 c -0.48002,3.5e-5 -0.72002,-0.239965 -0.72,-0.72 -2e-5,-0.479964 0.23998,-0.719963 0.72,-0.72 l 6.912,0 m 9.504,17.712 c -0.048,2.784016 -0.76804,5.352013 -2.16,7.704 -1.39204,2.304009 -3.26403,4.104007 -5.616,5.4 -0.14403,0.04801 -0.26403,0.07201 -0.36,0.072 -0.48003,6e-6 -0.72003,-0.263994 -0.72,-0.792 -3e-5,-0.239993 0.11997,-0.431993 0.36,-0.576 2.11197,-1.151992 3.81597,-2.78399 5.112,-4.896 1.29596,-2.111986 1.94396,-4.415984 1.944,-6.912 -4e-5,-0.479981 0.23996,-0.71998 0.72,-0.72 0.47996,2e-5 0.71996,0.240019 0.72,0.72 m -19.8,12.528 c 0.28798,0.144006 0.43198,0.360006 0.432,0.648 -2e-5,0.720005 -0.33602,0.960005 -1.008,0.72 -2.78402,-1.103994 -5.06401,-2.903992 -6.84,-5.4 -1.77601,-2.543987 -2.66401,-5.375984 -2.664,-8.496 l 0,-21.024 c -1e-5,-0.47996 0.23999,-0.719959 0.72,-0.72 0.47999,4.1e-5 0.71999,0.24004 0.72,0.72 l 0,21.024 c -1e-5,2.784016 0.79199,5.328014 2.376,7.632 1.63199,2.256009 3.71998,3.888007 6.264,4.896" />
      <path
         inkscape:connector-curvature="0"
         id="path4644"
         d="m 380.91479,55.297779 c -5e-5,2.784003 -0.98404,5.160001 -2.952,7.128 -1.96804,1.967997 -4.34404,2.951996 -7.128,2.952 l -11.448,0 c -5.85602,-4e-6 -10.87201,-2.088002 -15.048,-6.264 -4.176,-4.175994 -6.264,-9.215988 -6.264,-15.12 0,-5.855977 2.088,-10.871972 6.264,-15.048 4.17599,-4.175963 9.19198,-6.263961 15.048,-6.264 l 13.176,-0.072 c 2.30396,3.9e-5 4.27196,0.816038 5.904,2.448 1.63196,1.632035 2.44795,3.600033 2.448,5.904 -5e-5,2.304028 -0.81604,4.272026 -2.448,5.904 -1.58404,1.632023 -3.52804,2.448022 -5.832,2.448 l -7.776,0 c -1.00803,2.2e-5 -1.51203,0.504022 -1.512,1.512 -3e-5,1.00802 0.50397,1.512019 1.512,1.512 -0.048,1.9e-5 0.74397,1.9e-5 2.376,0 1.63197,-0.04798 2.83197,-0.07198 3.6,-0.072 2.78396,1.9e-5 5.15996,0.984018 7.128,2.952 1.96796,1.968014 2.95195,4.344012 2.952,7.128 l 0,2.952 m -3.6,0 0,-2.952 c -4e-5,-1.775989 -0.64804,-3.287988 -1.944,-4.536 -1.24804,-1.295985 -2.76004,-1.943984 -4.536,-1.944 -1.24803,1.6e-5 -3.24003,0.02402 -5.976,0.072 -1.39203,1.5e-5 -2.59203,-0.503984 -3.6,-1.512 -1.00802,-1.007982 -1.51202,-2.207981 -1.512,-3.6 -2e-5,-1.439978 0.50398,-2.639977 1.512,-3.6 1.00797,-1.007975 2.20797,-1.511974 3.6,-1.512 l 7.776,0 c 1.29596,2.6e-5 2.39996,-0.455974 3.312,-1.368 0.91196,-0.959972 1.36796,-2.087971 1.368,-3.384 -4e-5,-1.295968 -0.45604,-2.399967 -1.368,-3.312 -0.91204,-0.959965 -2.01604,-1.439965 -3.312,-1.44 l -13.176,0.072 c -4.94402,3.5e-5 -9.14402,1.728033 -12.6,5.184 -3.45601,3.456026 -5.18401,7.632022 -5.184,12.528 -10e-6,4.896013 1.72799,9.096008 5.184,12.6 3.45598,3.456001 7.65598,5.184 12.6,5.184 l 11.376,0 c 1.77596,0 3.28796,-0.624 4.536,-1.872 1.29596,-1.247997 1.94396,-2.783996 1.944,-4.608 m -7.344,-24.768 -10.512,0 c -0.48002,3.1e-5 -0.72002,-0.239969 -0.72,-0.72 -2e-5,-0.479968 0.23998,-0.719968 0.72,-0.72 l 10.512,0 c 0.47996,3.2e-5 0.71996,0.240032 0.72,0.72 -4e-5,0.480031 -0.24004,0.720031 -0.72,0.72 m 4.536,22.536 c -4e-5,1.632007 -0.57604,3.024005 -1.728,4.176 -1.15204,1.152003 -2.56803,1.728002 -4.248,1.728 l -9.072,0 c -4.12802,2e-6 -7.65602,-1.463996 -10.584,-4.392 -2.92801,-2.92799 -4.39201,-6.455987 -4.392,-10.584 -1e-5,-0.479982 0.23999,-0.719982 0.72,-0.72 0.47999,1.8e-5 0.71999,0.240018 0.72,0.72 -1e-5,3.744014 1.31999,6.93601 3.96,9.576 2.63998,2.640005 5.83198,3.960004 9.576,3.96 l 9.144,0 c 1.19997,4e-6 2.23196,-0.431996 3.096,-1.296 0.91196,-0.863994 1.36796,-1.919993 1.368,-3.168 l 0,-2.376 c -4e-5,-0.479989 0.23996,-0.719989 0.72,-0.72 0.47996,1.1e-5 0.71996,0.240011 0.72,0.72 l 0,2.376" />
      <path
         inkscape:connector-curvature="0"
         id="path4646"
         d="m 424.12759,57.025779 c -4e-5,2.304002 -0.81604,4.272 -2.448,5.904 -1.63204,1.631997 -3.57603,2.447996 -5.832,2.448 -2.30403,-4e-6 -4.27203,-0.816003 -5.904,-2.448 -1.63202,-1.584 -2.44802,-3.527998 -2.448,-5.832 l 0,-8.28 c -2e-5,-1.007986 -0.50402,-1.511986 -1.512,-1.512 -1.05602,1.4e-5 -1.58402,0.504014 -1.584,1.512 l 0.072,6.48 c -2e-5,2.784003 -0.98402,5.160001 -2.952,7.128 -1.96802,1.967997 -4.34401,2.951996 -7.128,2.952 l -2.952,0 c -2.78401,-4e-6 -5.16,-0.984003 -7.128,-2.952 -1.968,-1.967999 -2.952,-4.343997 -2.952,-7.128 l 0,-37.512 c 0,-2.783954 0.984,-5.159951 2.952,-7.128 1.968,-1.9679473 4.34399,-2.9519463 7.128,-2.9520004 l 0.504,0 c 2.73599,5.41e-5 5.08799,0.9840531 7.056,2.9520004 2.01598,1.968049 3.02398,4.344046 3.024,7.128 l 0,5.616 c 6.14398,-0.191962 11.35197,1.848036 15.624,6.12 4.31996,4.224028 6.47996,9.408022 6.48,15.552 l 0,11.952 m -3.6,0 0,-11.952 c -4e-5,-5.087979 -1.75204,-9.359974 -5.256,-12.816 -3.45603,-3.503967 -7.63202,-5.255966 -12.528,-5.256 -1.48802,3.4e-5 -2.92802,0.192034 -4.32,0.576 l 0,-9.792 c -10e-6,-1.775955 -0.64801,-3.287953 -1.944,-4.536 -1.24801,-1.295951 -2.76001,-1.94395 -4.536,-1.944 l -0.504,0 c -1.77601,5e-5 -3.312,0.648049 -4.608,1.944 -1.248,1.248047 -1.872,2.760045 -1.872,4.536 l 0,37.512 c 0,1.776004 0.624,3.312003 1.872,4.608 1.296,1.248 2.83199,1.872 4.608,1.872 l 2.952,0 c 1.77599,0 3.28799,-0.624 4.536,-1.872 1.29598,-1.295997 1.94398,-2.831996 1.944,-4.608 -2e-5,-1.247993 -2e-5,-3.40799 0,-6.48 -0.048,-1.391986 0.43198,-2.591985 1.44,-3.6 1.00798,-1.007983 2.23198,-1.511982 3.672,-1.512 1.39198,1.8e-5 2.59197,0.504017 3.6,1.512 1.00797,1.008015 1.51197,2.208014 1.512,3.6 l 0,8.28 c -3e-5,1.296003 0.45597,2.400002 1.368,3.312 0.91197,0.912 2.03997,1.368 3.384,1.368 1.29597,0 2.39997,-0.456 3.312,-1.368 0.91196,-0.911998 1.36796,-2.039997 1.368,-3.384 m -2.808,-4.104 c -3e-5,0.528008 -0.24003,0.792008 -0.72,0.792 -0.48003,8e-6 -0.72003,-0.239992 -0.72,-0.72 l -0.072,-9.648 c -3e-5,-3.887978 -1.32003,-7.127975 -3.96,-9.72 -0.14403,-0.191972 -0.21603,-0.359972 -0.216,-0.504 -3e-5,-0.527971 0.26397,-0.791971 0.792,-0.792 0.14397,2.9e-5 0.31197,0.07203 0.504,0.216 2.87997,2.928026 4.31997,6.528022 4.32,10.8 l 0.072,9.576 m -23.832,4.536 -0.216,0 c -1.63201,4e-6 -3.02401,-0.575995 -4.176,-1.728 -1.152,-1.151993 -1.728,-2.543992 -1.728,-4.176 l 0,-30.024 c 0,-0.47996 0.24,-0.719959 0.72,-0.72 0.47999,4.1e-5 0.71999,0.24004 0.72,0.72 l 0,30.024 c -10e-6,1.248009 0.43199,2.304008 1.296,3.168 0.91199,0.864006 1.96799,1.296005 3.168,1.296 l 0.216,0 c 0.47999,5e-6 0.71999,0.240005 0.72,0.72 -1e-5,0.480004 -0.24001,0.720004 -0.72,0.72" />
    </g>
  </g>
</svg>
