<?xml version="1.0" encoding="UTF-8" standalone="no"?>
<svg xmlns:rdf="http://www.w3.org/1999/02/22-rdf-syntax-ns#" xmlns="http://www.w3.org/2000/svg" height="114pt" width="431pt" version="1.1" enable-background="new" xmlns:cc="http://creativecommons.org/ns#" xmlns:dc="http://purl.org/dc/elements/1.1/" viewBox="0 0 431 114">
	<metadata>
		<rdf:RDF>
			<cc:Work rdf:about="">
				<dc:format>image/svg+xml</dc:format>
				<dc:type rdf:resource="http://purl.org/dc/dcmitype/StillImage"/>
				<dc:title/>
			</cc:Work>
		</rdf:RDF>
	</metadata>
	<style>
		#tldcom { display : none }
		#com:target #tldcom { display : inline }
		#com:target #tldnet { display : none }
	</style>
	<g id="com">
		<g fill="#000" id="tldcom">
			<path style="" d="m205.5,94.65c-0.00003,1.196-0.4091,2.203-1.227,3.021-0.8182,0.8181-1.825,1.227-3.021,1.227h-7.458c-3.241,0-5.994-1.133-8.26-3.398-2.266-2.266-3.398-5.019-3.398-8.26-0.00001-3.241,1.117-5.979,3.351-8.213,2.266-2.234,5.035-3.367,8.307-3.398l8.638-0.0472c0.8496,0.000023,1.573,0.3147,2.171,0.944,0.5978,0.5979,0.8968,1.322,0.8968,2.171-0.00003,0.8496-0.299,1.589-0.8968,2.218-0.5979,0.5979-1.322,0.8968-2.171,0.8968h-5.098c-0.944,0.000017-1.746,0.3304-2.407,0.9912-0.6294,0.6293-0.944,1.416-0.944,2.36-0.00002,0.9125,0.3304,1.699,0.9912,2.36,0.6608,0.6608,1.447,0.9912,2.36,0.9912l3.918-0.0472c1.164,0.000011,2.155,0.4248,2.974,1.274,0.8496,0.8181,1.274,1.809,1.274,2.974v1.935"/>
			<path style="" d="m230.8,87.76c-0.00002,3.241-1.133,5.994-3.398,8.26-2.266,2.266-5.019,3.398-8.26,3.398s-5.994-1.133-8.26-3.398c-2.234-2.266-3.351-5.019-3.351-8.26s1.117-5.979,3.351-8.213c2.266-2.266,5.019-3.398,8.26-3.398,3.241,0.000023,5.994,1.133,8.26,3.398,2.266,2.234,3.398,4.972,3.398,8.213m-7.458,0.236c-0.00002-0.4405-0.1731-0.8181-0.5192-1.133-0.3147-0.3461-0.6923-0.5192-1.133-0.5192-0.4406,0.000013-0.8339,0.1731-1.18,0.5192-0.3147,0.3147-0.472,0.6923-0.472,1.133-0.00001,0.4405,0.1573,0.8339,0.472,1.18,0.3461,0.3147,0.7394,0.472,1.18,0.472,0.4405,0.000009,0.8181-0.1573,1.133-0.472,0.3461-0.3461,0.5192-0.7395,0.5192-1.18m2.03,4.531c-0.00002-0.5979-0.299-0.8968-0.8968-0.8968-0.5979,0.000007-0.8968,0.2989-0.8968,0.8968-0.00002,0.5979,0.2989,0.8968,0.8968,0.8968,0.5978,0.000006,0.8968-0.2989,0.8968-0.8968m-4.059,0c-0.00001-0.944-0.3304-1.731-0.9912-2.36-0.6608-0.6608-1.463-0.9912-2.407-0.9912-0.944,0.00001-1.746,0.3304-2.407,0.9912-0.6293,0.6293-0.944,1.416-0.944,2.36-0.00001,1.416,0.5664,2.407,1.699,2.974,0.5664,0.2832,1.117,0.4248,1.652,0.4248,0.944,0.000003,1.746-0.3304,2.407-0.9912,0.6608-0.6608,0.9912-1.463,0.9912-2.407"/>
			<path style="" d="m268.9,95.79c-0.00004,0.8811-0.299,1.621-0.8968,2.218-0.5664,0.5979-1.29,0.8968-2.171,0.8968-0.8811,0-1.621-0.2832-2.218-0.8496-0.5979-0.5979-0.8968-1.337-0.8968-2.218v-5.428c-0.00004-0.9125-0.3304-1.699-0.9912-2.36-0.6608-0.6608-1.448-0.9912-2.36-0.9912-0.9126,0.000012-1.699,0.2989-2.36,0.8968-0.6608,0.5664-0.9912,1.306-0.9912,2.218v5.617c-0.00003,0.8811-0.299,1.621-0.8968,2.218-0.5664,0.5979-1.29,0.8968-2.171,0.8968-0.8811,0-1.621-0.2832-2.218-0.8496-0.5979-0.5979-0.8968-1.337-0.8968-2.218v-5.428c-0.00002-0.9125-0.3304-1.699-0.9912-2.36-0.6608-0.6608-1.447-0.9912-2.36-0.9912-0.944,0.000012-1.746,0.3304-2.407,0.9912-0.6294,0.6293-0.944,1.416-0.944,2.36v4.248c-0.00002,1.164-0.4248,2.171-1.274,3.021-0.8182,0.8181-1.809,1.227-2.974,1.227h-1.935c-1.164,0-2.171-0.4091-3.021-1.227-0.8181-0.8496-1.227-1.857-1.227-3.021v-14.25c-0.00001-1.164,0.4091-2.155,1.227-2.974,0.8496-0.8496,1.857-1.274,3.021-1.274h0.3304c0.944,0.000023,1.794,0.299,2.549,0.8968,1.447-0.6293,2.958-0.944,4.531-0.944,2.36,0.000023,4.515,0.6608,6.466,1.982,1.951-1.29,4.091-1.935,6.419-1.935,3.21,0.000023,5.947,1.133,8.213,3.398,2.297,2.266,3.446,5.003,3.446,8.213v8.024"/>
		</g>
		<g fill="#000" id="tldnet">
			<path d="m220.8,95.79c-0.00003,0.8811-0.299,1.621-0.8968,2.218-0.5664,0.5979-1.29,0.8968-2.171,0.8968-0.8811,0-1.621-0.2832-2.218-0.8496-0.5979-0.5979-0.8968-1.337-0.8968-2.218v-5.428c-0.00002-0.9125-0.3304-1.699-0.9912-2.36-0.6608-0.6608-1.447-0.9912-2.36-0.9912-0.944,0.000012-1.746,0.3304-2.407,0.9912-0.6294,0.6293-0.944,1.416-0.944,2.36v4.248c-0.00001,1.164-0.4248,2.171-1.274,3.021-0.8181,0.8181-1.809,1.227-2.974,1.227h-1.935c-1.164,0-2.171-0.4091-3.021-1.227-0.8181-0.8496-1.227-1.857-1.227-3.021v-14.25c0-1.164,0.4091-2.155,1.227-2.974,0.8496-0.8496,1.857-1.274,3.021-1.274h0.3304c0.944,0.000023,1.794,0.299,2.549,0.8968,1.447-0.6293,2.958-0.944,4.531-0.944,3.304,0.000023,6.073,1.149,8.307,3.446s3.351,5.098,3.351,8.402v7.835"/>
			<path d="m243.8,83.09c-0.00002,1.951-0.6766,3.603-2.03,4.956-1.322,1.353-2.958,2.03-4.909,2.03h-2.313c-0.944,0.000009-1.416,0.472-1.416,1.416-0.00001,0.944,0.472,1.416,1.416,1.416h6.089c0.8496,0.000006,1.558,0.2989,2.124,0.8968,0.5978,0.5664,0.8968,1.274,0.8968,2.124-0.00002,0.8496-0.299,1.573-0.8968,2.171-0.5664,0.5664-1.274,0.8496-2.124,0.8496h-6.466c-3.178,0-5.869-1.101-8.071-3.304-2.203-2.234-3.304-4.94-3.304-8.118s1.101-5.869,3.304-8.071c2.203-2.203,4.893-3.304,8.071-3.304h2.69c1.919,0.000023,3.556,0.6766,4.909,2.03s2.03,2.989,2.03,4.909m-5.711-0.0944c-0.00001-0.4405-0.1574-0.8181-0.472-1.133-0.3147-0.3146-0.6923-0.472-1.133-0.472-1.101,0.000017-1.652,0.535-1.652,1.605-0.00001,1.101,0.5507,1.652,1.652,1.652,1.07,0.000014,1.605-0.5507,1.605-1.652m-3.162-2.549c-0.00001-0.7552-0.3776-1.133-1.133-1.133-0.7552,0.00002-1.133,0.3776-1.133,1.133-0.00001,0.7552,0.3776,1.133,1.133,1.133,0.7552,0.000017,1.133-0.3776,1.133-1.133m-0.8024,4.248c-0.00001-0.8181-0.2989-1.51-0.8968-2.077-0.5664-0.5978-1.259-0.8968-2.077-0.8968-0.8496,0.000017-1.573,0.2832-2.171,0.8496-0.5664,0.5664-0.8496,1.274-0.8496,2.124,0,0.8496,0.2832,1.573,0.8496,2.171,0.5979,0.5664,1.322,0.8496,2.171,0.8496,0.8496,0.000011,1.558-0.2832,2.124-0.8496,0.5664-0.5979,0.8496-1.322,0.8496-2.171"/>
			<path d="m268.9,83.7-0.0472,3.54c-0.0315,3.273-1.164,6.042-3.398,8.307-2.203,2.234-4.94,3.351-8.213,3.351-3.241,0-5.994-1.133-8.26-3.398-2.266-2.266-3.398-5.019-3.398-8.26v-17.18c-0.00001-1.196,0.4091-2.203,1.227-3.021,0.8181-0.8181,1.825-1.227,3.021-1.227h1.935c1.164,0.000033,2.171,0.4248,3.021,1.274,0.8496,0.8182,1.259,1.809,1.227,2.974l-0.0472,3.257,5.711,0.0472c0.8496,0.000025,1.573,0.3147,2.171,0.944,0.6293,0.5979,0.944,1.322,0.944,2.171-0.00003,0.8496-0.3147,1.589-0.944,2.218-0.5979,0.5979-1.322,0.8968-2.171,0.8968h-5.711v4.106c-0.00002,0.9125,0.3304,1.699,0.9912,2.36,0.6608,0.6608,1.447,0.9912,2.36,0.9912,0.944,0.000012,1.731-0.3147,2.36-0.944,0.6608-0.6608,0.9912-1.447,0.9912-2.36-0.00002-0.944,0.2832-1.699,0.8496-2.266,0.5978-0.5664,1.353-0.8496,2.266-0.8496,0.8496,0.000018,1.573,0.299,2.171,0.8968,0.6293,0.5979,0.944,1.322,0.944,2.171"/>
		</g>
	</g>
	<g>
		<g fill="#000">
			<path d="m282.5,85.35-2.502,2.69-1.038,3.493-3.351-1.558-3.634,0.0944,0.4248-3.634-1.18-3.446,3.587-0.708,2.926-2.218,1.746,3.21,3.021,2.077"/>
			<path d="m322.4,80.4-0.0472,7.316c-0.0315,3.241-1.164,5.994-3.398,8.26s-4.972,3.398-8.213,3.398c-2.36,0-4.515-0.6451-6.466-1.935-1.951,1.29-4.091,1.935-6.419,1.935-3.241,0-5.994-1.133-8.26-3.398-2.266-2.266-3.398-5.019-3.398-8.26v-8.496c0-0.8496,0.2989-1.573,0.8968-2.171,0.5979-0.5978,1.322-0.8968,2.171-0.8968,0.8496,0.000023,1.573,0.299,2.171,0.8968,0.6293,0.5979,0.944,1.322,0.944,2.171v4.956c-0.00001,0.944,0.3147,1.746,0.944,2.407,0.6608,0.6293,1.463,0.944,2.407,0.944,0.8811,0.000011,1.652-0.2989,2.313-0.8968,0.6922-0.5979,1.038-1.322,1.038-2.171v-5.239c-0.00001-0.8496,0.2989-1.573,0.8968-2.171,0.5978-0.5978,1.322-0.8968,2.171-0.8968,0.8496,0.000023,1.573,0.299,2.171,0.8968,0.6293,0.5979,0.944,1.322,0.944,2.171v4.956c-0.00002,0.944,0.3146,1.746,0.944,2.407,0.6608,0.6293,1.463,0.944,2.407,0.944,0.9125,0.000011,1.699-0.3304,2.36-0.9912,0.6608-0.6608,0.9912-1.447,0.9912-2.36v-3.776c-0.00003-1.196,0.409-2.203,1.227-3.021,0.8181-0.8181,1.825-1.227,3.021-1.227h1.935c1.164,0.000023,2.155,0.4248,2.974,1.274,0.8496,0.8182,1.274,1.809,1.274,2.974"/>
			<path d="m347.8,87.76c-0.00003,3.241-1.133,5.994-3.398,8.26-2.266,2.266-5.019,3.398-8.26,3.398s-5.994-1.133-8.26-3.398c-2.234-2.266-3.351-5.019-3.351-8.26-0.00001-3.241,1.117-5.979,3.351-8.213,2.266-2.266,5.019-3.398,8.26-3.398,3.241,0.000023,5.994,1.133,8.26,3.398,2.266,2.234,3.398,4.972,3.398,8.213m-7.458,0.236c-0.00002-0.4405-0.1731-0.8181-0.5192-1.133-0.3147-0.3461-0.6923-0.5192-1.133-0.5192-0.4406,0.000013-0.8339,0.1731-1.18,0.5192-0.3147,0.3147-0.472,0.6923-0.472,1.133-0.00002,0.4405,0.1573,0.8339,0.472,1.18,0.3461,0.3147,0.7394,0.472,1.18,0.472,0.4405,0.000009,0.8181-0.1573,1.133-0.472,0.3461-0.3461,0.5192-0.7395,0.5192-1.18m2.03,4.531c-0.00002-0.5979-0.299-0.8968-0.8968-0.8968-0.5979,0.000007-0.8968,0.2989-0.8968,0.8968-0.00002,0.5979,0.2989,0.8968,0.8968,0.8968,0.5978,0.000006,0.8968-0.2989,0.8968-0.8968m-4.059,0c-0.00002-0.944-0.3304-1.731-0.9912-2.36-0.6608-0.6608-1.463-0.9912-2.407-0.9912-0.944,0.00001-1.746,0.3304-2.407,0.9912-0.6294,0.6293-0.944,1.416-0.944,2.36-0.00001,1.416,0.5664,2.407,1.699,2.974,0.5664,0.2832,1.117,0.4248,1.652,0.4248,0.944,0.000003,1.746-0.3304,2.407-0.9912,0.6608-0.6608,0.9912-1.463,0.9912-2.407"/>
			<path d="m373,90.55c-0.00003,0.8811-0.299,1.621-0.8968,2.218-0.5664,0.5979-1.29,0.8968-2.171,0.8968-0.8811,0.000005-1.621-0.2832-2.218-0.8496-0.5979-0.5979-0.8968-1.337-0.8968-2.218v-0.1888c-0.00002-0.9125-0.3304-1.699-0.9912-2.36-0.6608-0.6608-1.447-0.9912-2.36-0.9912-0.944,0.000012-1.746,0.3304-2.407,0.9912-0.6294,0.6293-0.944,1.416-0.944,2.36v4.248c-0.00001,1.164-0.4248,2.171-1.274,3.021-0.8182,0.8181-1.809,1.227-2.974,1.227h-1.935c-1.164,0-2.171-0.4091-3.021-1.227-0.8181-0.8496-1.227-1.857-1.227-3.021v-14.25c0-1.164,0.4091-2.155,1.227-2.974,0.8496-0.8496,1.857-1.274,3.021-1.274h0.3304c0.944,0.000023,1.794,0.299,2.549,0.8968,1.447-0.6293,2.958-0.944,4.531-0.944,3.304,0.000023,6.073,1.149,8.307,3.446s3.351,5.098,3.351,8.402v2.596"/>
			<path d="m398.3,93.76c-0.00003,1.416-0.5035,2.627-1.51,3.634-1.007,1.007-2.218,1.51-3.634,1.51-1.447,0-2.659-0.4877-3.634-1.463-0.9755-1.007-1.463-2.234-1.463-3.682v-1.038c-0.00002-1.07-0.5192-1.746-1.558-2.03-0.3147-0.03146-0.6451-0.06292-0.9912-0.0944-1.007,0.1888-1.573,0.7867-1.699,1.794v2.266c-0.00001,1.164-0.4248,2.171-1.274,3.021-0.8181,0.8181-1.809,1.227-2.974,1.227h-0.3304c-1.164,0-2.171-0.4091-3.021-1.227-0.8181-0.8496-1.227-1.857-1.227-3.021v-24.59c0-1.164,0.4091-2.155,1.227-2.974,0.8496-0.8496,1.857-1.274,3.021-1.274h1.935c1.164,0.000033,2.155,0.4248,2.974,1.274,0.8496,0.8182,1.274,1.809,1.274,2.974v6.325c-0.00001,0.944,0.3146,1.746,0.944,2.407,0.6608,0.6294,1.463,0.944,2.407,0.944,0.9125,0.000019,1.699-0.3304,2.36-0.9912,0.6608-0.6608,0.9912-1.447,0.9912-2.36v-1.369c-0.00002-0.881,0.2989-1.605,0.8968-2.171,0.5978-0.5978,1.337-0.8968,2.218-0.8968,0.8496,0.000027,1.573,0.299,2.171,0.8968,0.5978,0.5979,0.8968,1.322,0.8968,2.171v3.823c-0.00003,2.863-0.8811,5.381-2.643,7.552,1.762,2.14,2.643,4.594,2.643,7.363"/>
			<path d="m423.7,91.92c-0.00003,1.919-0.6923,3.571-2.077,4.956-1.353,1.353-2.989,2.03-4.909,2.03h-13.4c-0.8496,0-1.573-0.2989-2.171-0.8968-0.5979-0.5979-0.8968-1.322-0.8968-2.171-0.00001-0.8496,0.2989-1.573,0.8968-2.171,0.6293-0.5979,1.369-0.8968,2.218-0.8968h3.918c0.881,0.000006,1.322-0.4405,1.322-1.322-0.00001-0.8811-0.4563-1.322-1.369-1.322-1.951,0.000009-3.603-0.6765-4.956-2.03-1.353-1.353-2.03-3.005-2.03-4.956-0.00001-1.919,0.6765-3.556,2.03-4.909,1.385-1.385,3.037-2.077,4.956-2.077h13.4c0.8496,0.000023,1.573,0.299,2.171,0.8968,0.5978,0.5979,0.8968,1.322,0.8968,2.171-0.00003,0.8496-0.3147,1.573-0.944,2.171-0.5979,0.5979-1.322,0.8968-2.171,0.8968h-4.909c-0.8811,0.000017-1.322,0.4406-1.322,1.322-0.00002,0.8811,0.4562,1.322,1.369,1.322h0.9912c1.919,0.000014,3.556,0.6923,4.909,2.077,1.385,1.353,2.077,2.989,2.077,4.909"/>
		</g>
	</g>
	<g>
		<g fill="#5e94bd">
			<path d="m69.35,7.7c-2.784,0.0000541-5.157,0.9821-7.125,2.95s-2.95,4.341-2.95,7.125v5.7c-0.336,0.000038-0.662,0.000038-0.95,0-5.904,0.000038-10.95,2.099-15.12,6.275-4.176,4.176-6.25,9.169-6.25,15.02,0,5.904,2.074,10.95,6.25,15.12,4.176,4.176,9.221,6.275,15.12,6.275,2.592-0.000005,5.127-0.463,7.575-1.375,1.104,0.384,2.25,0.575,3.45,0.575h0.5c2.736-0.000004,5.082-0.982,7.05-2.95,2.016-1.968,3.025-4.341,3.025-7.125v-37.52c-0.00004-2.784-1.009-5.157-3.025-7.125-1.968-1.968-4.314-2.95-7.05-2.95zm-14.1,30.62c1.481,0,2.675,1.18,2.675,2.65s-1.194,2.675-2.675,2.675-2.675-1.205-2.675-2.675,1.194-2.65,2.675-2.65z"/>
			<path d="m127,29.34c-7.38,0.000047-13.66,2.624-18.88,7.844s-7.844,11.46-7.844,18.78c0,7.38,2.624,13.69,7.844,18.91s11.49,7.844,18.88,7.844c3.24-0.000006,6.409-0.5788,9.469-1.719,1.38,0.48,2.812,0.7187,4.312,0.7188h0.625c3.42-0.000005,6.352-1.228,8.812-3.688,2.52-2.46,3.781-5.426,3.781-8.906v-27.19c-0.00005-3.48-1.261-6.446-3.781-8.906-2.46-2.46-5.393-3.687-8.812-3.688h-0.625c-1.98,0.000047-3.854,0.41-5.594,1.25-2.64-0.84-5.368-1.25-8.188-1.25zm-2.25,18.59c1.851,0,3.344,1.507,3.344,3.344s-1.492,3.312-3.344,3.312c-1.851,0-3.344-1.475-3.344-3.312s1.492-3.344,3.344-3.344z" transform="scale(0.8,0.8)"/>
			<path d="m188.8,51.12c-0.00005,3.936-1.392,7.296-4.176,10.08s-6.144,4.176-10.08,4.176h-20.45c-2.304-0.000004-4.272-0.816-5.904-2.448-1.584-1.584-2.376-3.528-2.376-5.832,0-1.824,0.528-3.456,1.584-4.896,1.104-1.44,2.496-2.424,4.176-2.952-3.84-2.88-5.76-6.72-5.76-11.52,0-3.936,1.392-7.296,4.176-10.08s6.144-4.176,10.08-4.176h20.45c2.304,0.000038,4.248,0.816,5.832,2.448,1.632,1.584,2.448,3.528,2.448,5.832-0.00005,1.824-0.552,3.456-1.656,4.896-1.056,1.44-2.448,2.448-4.176,3.024,3.888,2.832,5.832,6.648,5.832,11.45"/>
			<path d="m231.4,55.3c-0.00004,2.784-0.984,5.16-2.952,7.128s-4.344,2.952-7.128,2.952h-11.45c-5.856-0.000004-10.87-2.088-15.05-6.264-4.176-4.176-6.264-9.216-6.264-15.12,0-5.856,2.088-10.87,6.264-15.05,4.176-4.176,9.192-6.264,15.05-6.264l13.18-0.072c2.304,0.000039,4.272,0.816,5.904,2.448s2.448,3.6,2.448,5.904c-0.00004,2.304-0.816,4.272-2.448,5.904-1.584,1.632-3.528,2.448-5.832,2.448h-7.776c-1.008,0.000022-1.512,0.504-1.512,1.512-0.00002,1.008,0.504,1.512,1.512,1.512-0.048,0.000019,0.744,0.000019,2.376,0,1.632-0.04798,2.832-0.07198,3.6-0.072,2.784,0.000019,5.16,0.984,7.128,2.952s2.952,4.344,2.952,7.128v2.952"/>
			<path d="m274.3,49.03c-0.00005,2.304-0.816,4.272-2.448,5.904s-3.576,2.448-5.832,2.448c-2.304,0.000004-4.272-0.792-5.904-2.376-1.632-1.632-2.448-3.6-2.448-5.904-0.00003-1.2-0.504-1.8-1.512-1.8-1.056,0.000014-1.56,0.504-1.512,1.512-0.00003-0.04799-0.00003,0.84,0,2.664-0.00003,1.776-0.00003,3.048,0,3.816-0.00003,2.784-0.984,5.16-2.952,7.128s-4.344,2.952-7.128,2.952h-2.952c-2.784-0.000004-5.16-0.984-7.128-2.952s-2.952-4.344-2.952-7.128v-21.74c0-2.784,0.984-5.16,2.952-7.128s4.344-2.952,7.128-2.952h0.504c1.488,0.000038,2.904,0.312,4.248,0.936,2.16-0.672,4.344-1.008,6.552-1.008,5.808,0.000038,10.8,2.112,14.98,6.336,4.224,4.224,6.36,9.336,6.408,15.34v3.96"/>
			<path d="m298.8,17.66-4.882,5.167-1.224,4.176c1.632,1.872,2.448,4.056,2.448,6.552v21.74c-0.00002,2.784-1.008,5.16-3.024,7.128-1.968,1.968-4.32,2.952-7.056,2.952h-0.504c-2.784-0.000004-5.16-0.984-7.128-2.952s-2.952-4.344-2.952-7.128v-21.74c0-2.16,0.624-4.104,1.872-5.832h-2.016l1.152-8.856-2.952-8.424,8.784-1.656,7.128-5.4s2.297,5.603,4.248,7.848c1.626,1.871,5.982,4.419,5.982,4.419"/>
			<path d="m338.1,38.67-0.072,5.4c-0.0481,5.904-2.16,10.94-6.336,15.12-4.128,4.128-9.12,6.192-14.98,6.192-5.904-0.000004-10.94-2.088-15.12-6.264-4.176-4.176-6.264-9.192-6.264-15.05v-26.28c0-2.784,0.984-5.16,2.952-7.128s4.344-2.952,7.128-2.952h2.952c2.784,0.0000541,5.16,0.9841,7.128,2.952s2.952,4.344,2.952,7.128v1.44h5.04c2.304,0.000042,4.272,0.816,5.904,2.448s2.448,3.6,2.448,5.904c-0.00004,1.008-0.168,1.968-0.504,2.88,1.92,0.384,3.528,1.344,4.824,2.88s1.944,3.312,1.944,5.328m-16.27-2.736-3.456,0,0,2.664c-0.00003,1.008,0.504,1.512,1.512,1.512,1.008,0.000021,1.512-0.48,1.512-1.44-0.00003-0.96,0.144-1.872,0.432-2.736"/>
			<path d="m380.9,55.3c-0.00005,2.784-0.984,5.16-2.952,7.128s-4.344,2.952-7.128,2.952h-11.45c-5.856-0.000004-10.87-2.088-15.05-6.264-4.176-4.176-6.264-9.216-6.264-15.12,0-5.856,2.088-10.87,6.264-15.05,4.176-4.176,9.192-6.264,15.05-6.264l13.18-0.072c2.304,0.000039,4.272,0.816,5.904,2.448s2.448,3.6,2.448,5.904c-0.00005,2.304-0.816,4.272-2.448,5.904-1.584,1.632-3.528,2.448-5.832,2.448h-7.776c-1.008,0.000022-1.512,0.504-1.512,1.512-0.00003,1.008,0.504,1.512,1.512,1.512-0.048,0.000019,0.744,0.000019,2.376,0,1.632-0.04798,2.832-0.07198,3.6-0.072,2.784,0.000019,5.16,0.984,7.128,2.952s2.952,4.344,2.952,7.128v2.952"/>
			<path d="m424.1,57.03c-0.00004,2.304-0.816,4.272-2.448,5.904s-3.576,2.448-5.832,2.448c-2.304-0.000004-4.272-0.816-5.904-2.448-1.632-1.584-2.448-3.528-2.448-5.832v-8.28c-0.00002-1.008-0.504-1.512-1.512-1.512-1.056,0.000014-1.584,0.504-1.584,1.512l0.072,6.48c-0.00002,2.784-0.984,5.16-2.952,7.128s-4.344,2.952-7.128,2.952h-2.952c-2.784-0.000004-5.16-0.984-7.128-2.952s-2.952-4.344-2.952-7.128v-37.51c0-2.784,0.984-5.16,2.952-7.128s4.344-2.952,7.128-2.952h0.504c2.736,0.0000541,5.088,0.9841,7.056,2.952,2.016,1.968,3.024,4.344,3.024,7.128v5.616c6.144-0.192,11.35,1.848,15.62,6.12,4.32,4.224,6.48,9.408,6.48,15.55v11.95"/>
		</g>
	</g>
	<g>
		<g fill="#000">
			<path d="m69.35,7.7c-2.784,0.0000541-5.157,0.9821-7.125,2.95s-2.95,4.341-2.95,7.125v5.7c-0.336,0.000038-0.662,0.000038-0.95,0-5.904,0.000038-10.95,2.099-15.12,6.275-4.176,4.176-6.25,9.169-6.25,15.02,0,5.904,2.074,10.95,6.25,15.12,4.176,4.176,9.221,6.275,15.12,6.275,2.592-0.000005,5.127-0.463,7.575-1.375,1.104,0.384,2.25,0.575,3.45,0.575h0.5c2.736-0.000004,5.082-0.982,7.05-2.95,2.016-1.968,3.025-4.341,3.025-7.125v-37.52c-0.00004-2.784-1.009-5.157-3.025-7.125-1.968-1.968-4.314-2.95-7.05-2.95h-0.5zm0,3.6,0.5,0c1.776,0.00005,3.277,0.654,4.525,1.95,1.296,1.248,1.95,2.749,1.95,4.525v37.52c-0.000039,1.776-0.654,3.304-1.95,4.6-1.248,1.248-2.749,1.875-4.525,1.875h-0.5c-1.2,0-2.344-0.301-3.4-0.925-2.4,1.152-4.937,1.725-7.625,1.725-4.944-0.000001-9.144-1.744-12.6-5.2s-5.175-7.656-5.175-12.6c-0.000003-4.896,1.719-9.069,5.175-12.52,3.456-3.456,7.656-5.175,12.6-5.175,1.536,0.000034,3.062,0.191,4.55,0.575v-9.875c-0.000026-1.776,0.627-3.277,1.875-4.525,1.296-1.296,2.824-1.95,4.6-1.95zm3.375,9.575c-0.48,0.000041-0.725,0.245-0.725,0.725v30.02c-0.000035,1.248-0.411,2.311-1.275,3.175s-1.927,1.3-3.175,1.3h-0.375c-0.48,0.000005-0.7,0.22-0.7,0.7-0.000029,0.48,0.22,0.725,0.7,0.725h0.375c1.632,0.000004,3.023-0.573,4.175-1.725s1.725-2.543,1.725-4.175v-30.02c-0.000036-0.48-0.245-0.725-0.725-0.725zm-17.42,13.82c-1.776,0.000027-3.25,0.627-4.45,1.875-1.2,1.2-1.8,2.672-1.8,4.4-0.000012,1.728,0.6,3.202,1.8,4.45,1.2,1.2,2.674,1.8,4.45,1.8,1.728,0.000014,3.2-0.6,4.4-1.8,1.248-1.248,1.875-2.722,1.875-4.45-0.000024-1.728-0.627-3.2-1.875-4.4-1.2-1.248-2.672-1.875-4.4-1.875zm-0.05,3.625c1.481,0,2.675,1.18,2.675,2.65s-1.194,2.675-2.675,2.675-2.675-1.205-2.675-2.675,1.194-2.65,2.675-2.65zm-11.1,4.225c-0.48,0.000019-0.725,0.245-0.725,0.725-0.000006,4.08,1.445,7.572,4.325,10.5,2.928,2.928,6.447,4.4,10.58,4.4,0.48,0.000003,0.725-0.245,0.725-0.725-0.000022-0.48-0.245-0.7-0.725-0.7-3.744,0.000005-6.935-1.335-9.575-3.975-2.592-2.64-3.875-5.804-3.875-9.5-0.000008-0.48-0.245-0.725-0.725-0.725z"/>
			<path d="m127,29.34c-7.38,0.000047-13.66,2.624-18.88,7.844s-7.844,11.46-7.844,18.78c0,7.38,2.624,13.69,7.844,18.91s11.49,7.844,18.88,7.844c3.24-0.000006,6.409-0.5788,9.469-1.719,1.38,0.48,2.812,0.7187,4.312,0.7188h0.625c3.42-0.000005,6.352-1.228,8.812-3.688,2.52-2.46,3.781-5.426,3.781-8.906v-27.19c-0.00005-3.48-1.261-6.446-3.781-8.906-2.46-2.46-5.393-3.687-8.812-3.688h-0.625c-1.98,0.000047-3.854,0.41-5.594,1.25-2.64-0.84-5.368-1.25-8.188-1.25zm0,4.5c3,0.000043,5.93,0.6125,8.75,1.812,1.44-1.2,3.111-1.812,5.031-1.812h0.625c2.22,0.000043,4.127,0.8175,5.688,2.438,1.62,1.56,2.406,3.436,2.406,5.656v27.19c-0.00005,2.22-0.7863,4.13-2.406,5.75-1.56,1.56-3.468,2.344-5.688,2.344h-0.625c-1.5,0-2.899-0.3762-4.219-1.156-3,1.44-6.203,2.156-9.562,2.156-6.18-0.000001-11.43-2.18-15.75-6.5s-6.469-9.57-6.469-15.75c0-6.12,2.149-11.34,6.469-15.66s9.57-6.469,15.75-6.469zm-2.25,9.531c-2.16,0.000034-4.003,0.7838-5.562,2.344-1.5,1.5-2.25,3.34-2.25,5.5-0.00002,2.16,0.75,4.003,2.25,5.562,1.56,1.5,3.402,2.25,5.562,2.25,2.16,0.000018,4-0.75,5.5-2.25,1.56-1.56,2.344-3.402,2.344-5.562-0.00002-2.16-0.7838-4-2.344-5.5-1.5-1.56-3.34-2.344-5.5-2.344zm20.25,0.4688c-0.6,0.000033-0.875,0.275-0.875,0.875v21.78c-0.00004,1.56-0.545,2.889-1.625,3.969s-2.409,1.625-3.969,1.625h-0.4375c-0.6,0.000005-0.9063,0.3063-0.9062,0.9062-0.00004,0.6,0.3062,0.9063,0.9062,0.9062h0.4375c2.04,0.000003,3.779-0.7475,5.219-2.188s2.156-3.179,2.156-5.219v-21.78c-0.00004-0.6-0.3063-0.875-0.9062-0.875zm-20.25,4.094c1.851,0,3.344,1.507,3.344,3.344s-1.492,3.312-3.344,3.312c-1.851,0-3.344-1.475-3.344-3.312s1.492-3.344,3.344-3.344zm-15.47,7.25c-0.6,0.000021-0.9063,0.275-0.9062,0.875-0.00001,5.1,1.806,9.496,5.406,13.16,3.66,3.66,8.059,5.469,13.22,5.469,0.6,0.000003,0.9062-0.275,0.9062-0.875-0.00002-0.6-0.3063-0.9062-0.9062-0.9062-4.68,0.000004-8.669-1.669-11.97-4.969-3.24-3.3-4.844-7.255-4.844-11.88-0.00001-0.6-0.3063-0.875-0.9062-0.875z" transform="scale(0.8,0.8)"/>
			<path d="m188.8,51.12c-0.00005,3.936-1.392,7.296-4.176,10.08s-6.144,4.176-10.08,4.176h-20.45c-2.304-0.000004-4.272-0.816-5.904-2.448-1.584-1.584-2.376-3.528-2.376-5.832,0-1.824,0.528-3.456,1.584-4.896,1.104-1.44,2.496-2.424,4.176-2.952-3.84-2.88-5.76-6.72-5.76-11.52,0-3.936,1.392-7.296,4.176-10.08s6.144-4.176,10.08-4.176h20.45c2.304,0.000038,4.248,0.816,5.832,2.448,1.632,1.584,2.448,3.528,2.448,5.832-0.00005,1.824-0.552,3.456-1.656,4.896-1.056,1.44-2.448,2.448-4.176,3.024,3.888,2.832,5.832,6.648,5.832,11.45m-3.6,0c-0.00004-2.928-1.056-5.424-3.168-7.488-2.064-2.112-4.56-3.168-7.488-3.168h-1.512c-1.392,0.000021-2.088-0.672-2.088-2.016-0.00003-1.344,0.672-2.016,2.016-2.016h7.488c1.296,0.000025,2.4-0.456,3.312-1.368,0.96-0.912,1.44-2.016,1.44-3.312-0.00004-1.296-0.456-2.4-1.368-3.312s-2.016-1.368-3.312-1.368h-20.45c-2.928,0.000034-5.448,1.056-7.56,3.168-2.064,2.064-3.096,4.56-3.096,7.488-0.00001,2.976,1.032,5.496,3.096,7.56,2.112,2.064,4.632,3.096,7.56,3.096,1.392,0.000013,2.088,0.672,2.088,2.016-0.00002,1.344-0.672,2.016-2.016,2.016h-5.976c-1.296,0.000009-2.424,0.456-3.384,1.368-0.912,0.912-1.368,2.016-1.368,3.312-0.00001,1.296,0.456,2.4,1.368,3.312s2.016,1.368,3.312,1.368h20.45c2.928,0,5.424-1.032,7.488-3.096,2.112-2.112,3.168-4.632,3.168-7.56m-7.344-19.87-16.34,0c-2.16,0.00003-4.008,0.768-5.544,2.304-1.488,1.536-2.232,3.384-2.232,5.544-0.00001,1.968,0.648,3.696,1.944,5.184,0.144,0.144,0.216,0.312,0.216,0.504-0.00001,0.48-0.24,0.72-0.72,0.72-0.192,0.000016-0.36-0.07198-0.504-0.216-1.584-1.776-2.376-3.84-2.376-6.192-0.00001-2.544,0.888-4.728,2.664-6.552,1.824-1.824,4.008-2.736,6.552-2.736h16.34c0.48,0.000032,0.72,0.24,0.72,0.72-0.00004,0.48-0.24,0.72-0.72,0.72m4.464,18.5c-0.00004,2.592-0.912,4.8-2.736,6.624-1.776,1.776-3.936,2.664-6.48,2.664h-16.34c-0.48,0.000002-0.72-0.24-0.72-0.72-0.00001-0.48,0.24-0.72,0.72-0.72h16.34c2.16,0.000004,3.984-0.768,5.472-2.304,1.536-1.536,2.304-3.384,2.304-5.544-0.00004-0.48,0.24-0.72,0.72-0.72,0.48,0.000012,0.72,0.24,0.72,0.72"/>
			<path d="m231.4,55.3c-0.00004,2.784-0.984,5.16-2.952,7.128s-4.344,2.952-7.128,2.952h-11.45c-5.856-0.000004-10.87-2.088-15.05-6.264-4.176-4.176-6.264-9.216-6.264-15.12,0-5.856,2.088-10.87,6.264-15.05,4.176-4.176,9.192-6.264,15.05-6.264l13.18-0.072c2.304,0.000039,4.272,0.816,5.904,2.448s2.448,3.6,2.448,5.904c-0.00004,2.304-0.816,4.272-2.448,5.904-1.584,1.632-3.528,2.448-5.832,2.448h-7.776c-1.008,0.000022-1.512,0.504-1.512,1.512-0.00002,1.008,0.504,1.512,1.512,1.512-0.048,0.000019,0.744,0.000019,2.376,0,1.632-0.04798,2.832-0.07198,3.6-0.072,2.784,0.000019,5.16,0.984,7.128,2.952s2.952,4.344,2.952,7.128v2.952m-3.6,0,0-2.952c-0.00004-1.776-0.648-3.288-1.944-4.536-1.248-1.296-2.76-1.944-4.536-1.944-1.248,0.000016-3.24,0.02402-5.976,0.072-1.392,0.000015-2.592-0.504-3.6-1.512s-1.512-2.208-1.512-3.6c-0.00002-1.44,0.504-2.64,1.512-3.6,1.008-1.008,2.208-1.512,3.6-1.512h7.776c1.296,0.000026,2.4-0.456,3.312-1.368,0.912-0.96,1.368-2.088,1.368-3.384-0.00004-1.296-0.456-2.4-1.368-3.312-0.912-0.96-2.016-1.44-3.312-1.44l-13.18,0.072c-4.944,0.000035-9.144,1.728-12.6,5.184s-5.184,7.632-5.184,12.53c0,4.896,1.728,9.096,5.184,12.6,3.456,3.456,7.656,5.184,12.6,5.184h11.38c1.776,0,3.288-0.624,4.536-1.872,1.296-1.248,1.944-2.784,1.944-4.608m-7.344-24.77-10.51,0c-0.48,0.000031-0.72-0.24-0.72-0.72-0.00002-0.48,0.24-0.72,0.72-0.72h10.51c0.48,0.000032,0.72,0.24,0.72,0.72-0.00003,0.48-0.24,0.72-0.72,0.72m4.536,22.54c-0.00003,1.632-0.576,3.024-1.728,4.176s-2.568,1.728-4.248,1.728h-9.072c-4.128,0.000002-7.656-1.464-10.58-4.392-2.928-2.928-4.392-6.456-4.392-10.58,0-0.48,0.24-0.72,0.72-0.72,0.48,0.000018,0.72,0.24,0.72,0.72-0.00001,3.744,1.32,6.936,3.96,9.576s5.832,3.96,9.576,3.96h9.144c1.2,0.000004,2.232-0.432,3.096-1.296,0.912-0.864,1.368-1.92,1.368-3.168v-2.376c-0.00003-0.48,0.24-0.72,0.72-0.72,0.48,0.000011,0.72,0.24,0.72,0.72v2.376"/>
			<path d="m274.3,49.03c-0.00005,2.304-0.816,4.272-2.448,5.904s-3.576,2.448-5.832,2.448c-2.304,0.000004-4.272-0.792-5.904-2.376-1.632-1.632-2.448-3.6-2.448-5.904-0.00003-1.2-0.504-1.8-1.512-1.8-1.056,0.000014-1.56,0.504-1.512,1.512-0.00003-0.04799-0.00003,0.84,0,2.664-0.00003,1.776-0.00003,3.048,0,3.816-0.00003,2.784-0.984,5.16-2.952,7.128s-4.344,2.952-7.128,2.952h-2.952c-2.784-0.000004-5.16-0.984-7.128-2.952s-2.952-4.344-2.952-7.128v-21.74c0-2.784,0.984-5.16,2.952-7.128s4.344-2.952,7.128-2.952h0.504c1.488,0.000038,2.904,0.312,4.248,0.936,2.16-0.672,4.344-1.008,6.552-1.008,5.808,0.000038,10.8,2.112,14.98,6.336,4.224,4.224,6.36,9.336,6.408,15.34v3.96m-3.6,0,0-3.96c0.048-5.04-1.68-9.312-5.184-12.82-3.504-3.504-7.704-5.256-12.6-5.256-2.4,0.000034-4.704,0.48-6.912,1.44-1.152-0.912-2.448-1.368-3.888-1.368h-0.504c-1.776,0.000034-3.312,0.648-4.608,1.944-1.248,1.248-1.872,2.76-1.872,4.536v21.74c-0.00001,1.776,0.624,3.312,1.872,4.608,1.296,1.248,2.832,1.872,4.608,1.872h2.952c1.776,0,3.288-0.624,4.536-1.872,1.296-1.296,1.944-2.832,1.944-4.608-0.00002-1.248-0.00002-3.408,0-6.48-0.00002-1.392,0.48-2.592,1.44-3.6,1.008-1.008,2.232-1.512,3.672-1.512,1.392,0.000018,2.592,0.504,3.6,1.512s1.512,2.208,1.512,3.6v0.288c-0.00003,1.296,0.456,2.4,1.368,3.312s2.04,1.368,3.384,1.368c1.296,0.000008,2.4-0.456,3.312-1.368s1.368-2.04,1.368-3.384m-2.88-4.104c-0.00004,0.48-0.24,0.72-0.72,0.72-0.48,0.000016-0.72-0.24-0.72-0.72,0.096-3.792-1.2-7.032-3.888-9.72s-5.88-4.032-9.576-4.032c-1.776,0.00003-3.528,0.36-5.256,1.08-0.672,0.288-1.008,0.07203-1.008-0.648-0.00002-0.336,0.144-0.552,0.432-0.648,1.92-0.816,3.864-1.224,5.832-1.224,4.08,0.000032,7.608,1.488,10.58,4.464,2.976,2.928,4.416,6.504,4.32,10.73m-23.04,14.11-0.936,0c-1.632,0.000002-3.024-0.576-4.176-1.728s-1.728-2.544-1.728-4.176v-17.42c-0.00001-1.632,0.576-3.024,1.728-4.176s2.544-1.728,4.176-1.728h0.432c0.48,0.000032,0.72,0.24,0.72,0.72-0.00002,0.48-0.24,0.72-0.72,0.72h-0.432c-1.2,0.00003-2.256,0.456-3.168,1.368-0.864,0.864-1.296,1.896-1.296,3.096v17.42c-0.00001,1.2,0.432,2.256,1.296,3.168,0.912,0.864,1.968,1.296,3.168,1.296h0.936c0.48,0.000004,0.72,0.24,0.72,0.72-0.00002,0.48-0.24,0.72-0.72,0.72"/>
			<path d="m298.8,17.66-4.882,5.167-1.224,4.176c1.632,1.872,2.448,4.056,2.448,6.552v21.74c-0.00002,2.784-1.008,5.16-3.024,7.128-1.968,1.968-4.32,2.952-7.056,2.952h-0.504c-2.784-0.000004-5.16-0.984-7.128-2.952s-2.952-4.344-2.952-7.128v-21.74c0-2.16,0.624-4.104,1.872-5.832h-2.016l1.152-8.856-2.952-8.424,8.784-1.656,7.128-5.4s2.297,5.603,4.248,7.848c1.626,1.871,5.982,4.419,5.982,4.419m-4.11,1.269-4.608-3.24-2.664-4.896-4.464,3.384-5.472,1.08,1.8,5.256-0.72,5.544,5.616-0.144,5.04,2.448,1.656-5.4,3.816-4.032m-3.024,38.38,0-21.74c-0.00002-1.776-0.648-3.288-1.944-4.536-1.248-1.296-2.76-1.944-4.536-1.944h-0.504c-1.776,0.000034-3.312,0.648-4.608,1.944-1.248,1.248-1.872,2.76-1.872,4.536v21.74c-0.00001,1.776,0.624,3.312,1.872,4.608,1.296,1.248,2.832,1.872,4.608,1.872h0.504c1.776,0,3.288-0.624,4.536-1.872,1.296-1.296,1.944-2.832,1.944-4.608m-3.6-40.39c0.096,0.144,0.144,0.264,0.144,0.36-0.00002,0.48-0.264,0.72-0.792,0.72-0.24,0.000045-0.432-0.12-0.576-0.36l-1.008-1.8c-1.056,0.816-1.632,1.248-1.728,1.296-0.096,0.04805-0.816,0.192-2.16,0.432,0.48,1.344,0.72,2.112,0.72,2.304-0.00001-0.04796-0.12,0.888-0.36,2.808-0.048,0.432-0.288,0.648-0.72,0.648-0.576,0.00004-0.816-0.288-0.72-0.864l0.36-2.664c-0.624-1.728-0.936-2.688-0.936-2.88-0.00001-0.288,0.24-0.504,0.72-0.648,0.816-0.144,1.656-0.288,2.52-0.432,1.536-1.2,2.4-1.8,2.592-1.8,0.24,0.000049,0.888,0.96,1.944,2.88m2.232,38.23c-0.00002,1.632-0.576,3.024-1.728,4.176s-2.544,1.728-4.176,1.728h-0.36c-0.48,0.000002-0.72-0.24-0.72-0.72-0.00001-0.48,0.24-0.72,0.72-0.72h0.36c1.248,0.000004,2.304-0.432,3.168-1.296,0.864-0.912,1.296-1.968,1.296-3.168v-17.42c-0.00002-1.2-0.432-2.232-1.296-3.096-0.864-0.912-1.92-1.368-3.168-1.368h-0.36c-0.48,0.00003-0.72-0.24-0.72-0.72-0.00001-0.48,0.24-0.72,0.72-0.72h0.36c1.632,0.000032,3.024,0.576,4.176,1.728s1.728,2.544,1.728,4.176v17.42"/>
			<path d="m338.1,38.67-0.072,5.4c-0.0481,5.904-2.16,10.94-6.336,15.12-4.128,4.128-9.12,6.192-14.98,6.192-5.904-0.000004-10.94-2.088-15.12-6.264-4.176-4.176-6.264-9.192-6.264-15.05v-26.28c0-2.784,0.984-5.16,2.952-7.128s4.344-2.952,7.128-2.952h2.952c2.784,0.0000541,5.16,0.9841,7.128,2.952s2.952,4.344,2.952,7.128v1.44h5.04c2.304,0.000042,4.272,0.816,5.904,2.448s2.448,3.6,2.448,5.904c-0.00004,1.008-0.168,1.968-0.504,2.88,1.92,0.384,3.528,1.344,4.824,2.88s1.944,3.312,1.944,5.328m-16.27-2.736-3.456,0,0,2.664c-0.00003,1.008,0.504,1.512,1.512,1.512,1.008,0.000021,1.512-0.48,1.512-1.44-0.00003-0.96,0.144-1.872,0.432-2.736m12.67,2.664c-0.00004-1.296-0.48-2.4-1.44-3.312-0.912-0.912-2.016-1.368-3.312-1.368-1.344,0.000027-2.472,0.432-3.384,1.296s-1.368,1.992-1.368,3.384c-0.00003,1.392-0.504,2.592-1.512,3.6-0.96,1.008-2.16,1.512-3.6,1.512-1.392,0.000018-2.592-0.504-3.6-1.512s-1.512-2.208-1.512-3.6v-6.264h8.712c1.296,0.000029,2.4-0.456,3.312-1.368,0.96-0.96,1.44-2.088,1.44-3.384-0.00004-1.296-0.48-2.4-1.44-3.312-0.912-0.96-2.016-1.44-3.312-1.44l-8.712-0.072,0.072-4.968c-0.00002-1.776-0.648-3.288-1.944-4.536-1.248-1.296-2.76-1.944-4.536-1.944h-2.952c-1.824,0.00005-3.36,0.648-4.608,1.944-1.248,1.248-1.872,2.76-1.872,4.536v26.21c-0.00001,4.896,1.728,9.096,5.184,12.6,3.504,3.456,7.704,5.184,12.6,5.184s9.072-1.728,12.53-5.184c3.456-3.456,5.184-7.656,5.184-12.6l0.072-5.4m-12.38-13.75c0.48,0.000037,0.72,0.24,0.72,0.72-0.00003,0.48-0.24,0.72-0.72,0.72h-6.912c-0.48,0.000035-0.72-0.24-0.72-0.72-0.00002-0.48,0.24-0.72,0.72-0.72h6.912m9.504,17.71c-0.048,2.784-0.768,5.352-2.16,7.704-1.392,2.304-3.264,4.104-5.616,5.4-0.144,0.04801-0.264,0.07201-0.36,0.072-0.48,0.000006-0.72-0.264-0.72-0.792-0.00003-0.24,0.12-0.432,0.36-0.576,2.112-1.152,3.816-2.784,5.112-4.896s1.944-4.416,1.944-6.912c-0.00004-0.48,0.24-0.72,0.72-0.72,0.48,0.00002,0.72,0.24,0.72,0.72m-19.8,12.53c0.288,0.144,0.432,0.36,0.432,0.648-0.00002,0.72-0.336,0.96-1.008,0.72-2.784-1.104-5.064-2.904-6.84-5.4-1.776-2.544-2.664-5.376-2.664-8.496v-21.02c-0.00001-0.48,0.24-0.72,0.72-0.72,0.48,0.000041,0.72,0.24,0.72,0.72v21.02c-0.00001,2.784,0.792,5.328,2.376,7.632,1.632,2.256,3.72,3.888,6.264,4.896"/>
			<path d="m380.9,55.3c-0.00005,2.784-0.984,5.16-2.952,7.128s-4.344,2.952-7.128,2.952h-11.45c-5.856-0.000004-10.87-2.088-15.05-6.264-4.176-4.176-6.264-9.216-6.264-15.12,0-5.856,2.088-10.87,6.264-15.05,4.176-4.176,9.192-6.264,15.05-6.264l13.18-0.072c2.304,0.000039,4.272,0.816,5.904,2.448s2.448,3.6,2.448,5.904c-0.00005,2.304-0.816,4.272-2.448,5.904-1.584,1.632-3.528,2.448-5.832,2.448h-7.776c-1.008,0.000022-1.512,0.504-1.512,1.512-0.00003,1.008,0.504,1.512,1.512,1.512-0.048,0.000019,0.744,0.000019,2.376,0,1.632-0.04798,2.832-0.07198,3.6-0.072,2.784,0.000019,5.16,0.984,7.128,2.952s2.952,4.344,2.952,7.128v2.952m-3.6,0,0-2.952c-0.00004-1.776-0.648-3.288-1.944-4.536-1.248-1.296-2.76-1.944-4.536-1.944-1.248,0.000016-3.24,0.02402-5.976,0.072-1.392,0.000015-2.592-0.504-3.6-1.512s-1.512-2.208-1.512-3.6c-0.00002-1.44,0.504-2.64,1.512-3.6,1.008-1.008,2.208-1.512,3.6-1.512h7.776c1.296,0.000026,2.4-0.456,3.312-1.368,0.912-0.96,1.368-2.088,1.368-3.384-0.00004-1.296-0.456-2.4-1.368-3.312-0.912-0.96-2.016-1.44-3.312-1.44l-13.18,0.072c-4.944,0.000035-9.144,1.728-12.6,5.184s-5.184,7.632-5.184,12.53c-0.00001,4.896,1.728,9.096,5.184,12.6,3.456,3.456,7.656,5.184,12.6,5.184h11.38c1.776,0,3.288-0.624,4.536-1.872,1.296-1.248,1.944-2.784,1.944-4.608m-7.344-24.77-10.51,0c-0.48,0.000031-0.72-0.24-0.72-0.72-0.00002-0.48,0.24-0.72,0.72-0.72h10.51c0.48,0.000032,0.72,0.24,0.72,0.72-0.00004,0.48-0.24,0.72-0.72,0.72m4.536,22.54c-0.00004,1.632-0.576,3.024-1.728,4.176s-2.568,1.728-4.248,1.728h-9.072c-4.128,0.000002-7.656-1.464-10.58-4.392-2.928-2.928-4.392-6.456-4.392-10.58-0.00001-0.48,0.24-0.72,0.72-0.72,0.48,0.000018,0.72,0.24,0.72,0.72-0.00001,3.744,1.32,6.936,3.96,9.576s5.832,3.96,9.576,3.96h9.144c1.2,0.000004,2.232-0.432,3.096-1.296,0.912-0.864,1.368-1.92,1.368-3.168v-2.376c-0.00004-0.48,0.24-0.72,0.72-0.72,0.48,0.000011,0.72,0.24,0.72,0.72v2.376"/>
			<path d="m424.1,57.03c-0.00004,2.304-0.816,4.272-2.448,5.904s-3.576,2.448-5.832,2.448c-2.304-0.000004-4.272-0.816-5.904-2.448-1.632-1.584-2.448-3.528-2.448-5.832v-8.28c-0.00002-1.008-0.504-1.512-1.512-1.512-1.056,0.000014-1.584,0.504-1.584,1.512l0.072,6.48c-0.00002,2.784-0.984,5.16-2.952,7.128s-4.344,2.952-7.128,2.952h-2.952c-2.784-0.000004-5.16-0.984-7.128-2.952s-2.952-4.344-2.952-7.128v-37.51c0-2.784,0.984-5.16,2.952-7.128s4.344-2.952,7.128-2.952h0.504c2.736,0.0000541,5.088,0.9841,7.056,2.952,2.016,1.968,3.024,4.344,3.024,7.128v5.616c6.144-0.192,11.35,1.848,15.62,6.12,4.32,4.224,6.48,9.408,6.48,15.55v11.95m-3.6,0,0-11.95c-0.00004-5.088-1.752-9.36-5.256-12.82-3.456-3.504-7.632-5.256-12.53-5.256-1.488,0.000034-2.928,0.192-4.32,0.576v-9.792c-0.00001-1.776-0.648-3.288-1.944-4.536-1.248-1.296-2.76-1.944-4.536-1.944h-0.504c-1.776,0.00005-3.312,0.648-4.608,1.944-1.248,1.248-1.872,2.76-1.872,4.536v37.51c0,1.776,0.624,3.312,1.872,4.608,1.296,1.248,2.832,1.872,4.608,1.872h2.952c1.776,0,3.288-0.624,4.536-1.872,1.296-1.296,1.944-2.832,1.944-4.608-0.00002-1.248-0.00002-3.408,0-6.48-0.048-1.392,0.432-2.592,1.44-3.6s2.232-1.512,3.672-1.512c1.392,0.000018,2.592,0.504,3.6,1.512s1.512,2.208,1.512,3.6v8.28c-0.00003,1.296,0.456,2.4,1.368,3.312s2.04,1.368,3.384,1.368c1.296,0,2.4-0.456,3.312-1.368s1.368-2.04,1.368-3.384m-2.808-4.104c-0.00003,0.528-0.24,0.792-0.72,0.792-0.48,0.000008-0.72-0.24-0.72-0.72l-0.072-9.648c-0.00003-3.888-1.32-7.128-3.96-9.72-0.144-0.192-0.216-0.36-0.216-0.504-0.00003-0.528,0.264-0.792,0.792-0.792,0.144,0.000029,0.312,0.07203,0.504,0.216,2.88,2.928,4.32,6.528,4.32,10.8l0.072,9.576m-23.83,4.536-0.216,0c-1.632,0.000004-3.024-0.576-4.176-1.728s-1.728-2.544-1.728-4.176v-30.02c0-0.48,0.24-0.72,0.72-0.72,0.48,0.000041,0.72,0.24,0.72,0.72v30.02c-0.00001,1.248,0.432,2.304,1.296,3.168,0.912,0.864,1.968,1.296,3.168,1.296h0.216c0.48,0.000005,0.72,0.24,0.72,0.72-0.00001,0.48-0.24,0.72-0.72,0.72"/>
		</g>
	</g>
</svg>
