<?xml version="1.0" encoding="UTF-8"?>
<svg xmlns="http://www.w3.org/2000/svg" xmlns:xlink="http://www.w3.org/1999/xlink" width="431pt" height="114pt" viewBox="0 0 431 114" version="1.1">
<defs>
<clipPath id="clip0">
  <rect width="431" height="114"/>
</clipPath>
</defs>
<g id="surface0" clip-path="url(#clip0)">
<path style="fill: none; stroke-width: 0.1; stroke-linecap: butt; stroke-linejoin: miter; stroke: rgb(100%,100%,100%); opacity: 1;stroke-miterlimit: 10;" d="M 0 0 L 431 0 L 431 114 L 0 114 L 0 0 Z M 0 0 " transform="matrix(1,0,0,1,0,0)"/>
<path style="stroke: none; fill-rule: nonzero; fill: rgb(100%,100%,100%); opacity: 1;" d="M 0 0 L 431 0 L 431 114 L 0 114 L 0 0 Z M 0 0 "/>
<path style="fill: none; stroke-width: 0.1; stroke-linecap: butt; stroke-linejoin: miter; stroke: rgb(0%,0%,0%); opacity: 1;stroke-miterlimit: 10;" d="M 283.310043 7.342514 C 284.986465 6.06427 286.650955 4.770432 288.339096 3.501617 C 290.490768 7.398376 292.130417 11.890213 296.309723 14.09288 C 300.676147 7.051712 312.88829 6.723938 317.185822 13.940857 C 318.342911 15.860596 318.437103 18.162827 318.76445 20.320663 C 322.329437 20.354355 326.540573 19.855911 329.268158 22.700394 C 331.853867 24.854614 332.131989 28.371429 331.754395 31.487518 C 334.538544 32.722366 337.416046 34.77037 337.933929 37.995926 C 338.536514 42.949081 338.453308 48.152817 336.7314 52.891327 C 333.376648 61.893341 323.545441 67.983871 313.965485 66.518524 C 303.429504 65.393204 294.939011 55.5242 295.206512 44.929077 C 294.389282 50.673508 296.791885 57.697205 292.360535 62.385941 C 288.418625 66.874268 280.580124 66.775024 276.769562 62.172302 C 273.804016 59.006836 274.09639 54.324341 274.372208 50.336899 C 273.403854 55.681229 267.237564 59.518829 262.215088 56.879288 C 258.510666 55.396622 257.530701 51.289078 256.912888 47.77594 C 256.371689 47.769608 255.289291 47.756912 254.748108 47.750565 C 254.17482 51.957489 255.412018 56.544479 253.27301 60.438766 C 248.556381 68.95372 232.735153 67.228928 231.30188 56.984711 C 230.35759 61.418198 226.711197 65.334854 222.031265 65.611313 C 217.321075 65.786423 212.596375 65.772003 207.887833 65.60257 C 200.422043 65.155197 193.645416 60.207581 190.368134 53.579788 C 187.188248 46.978516 187.591202 38.685883 191.720322 32.581314 C 195.497253 26.871185 202.025833 22.833664 208.982941 22.911942 C 214.314941 22.931107 219.69133 22.449707 224.998657 23.068939 C 229.65416 24.089493 231.773224 29.176132 231.540924 33.548813 C 231.285583 29.329636 234.194489 25.520004 238.082962 24.194672 C 242.04216 22.751053 246.139359 25.125961 250.141678 23.773895 C 262.057861 21.797516 273.347382 31.993271 274.370438 43.6866 C 274.525543 38.486145 273.252884 32.834671 275.863586 28.000961 C 275.413773 27.966293 274.51413 27.896973 274.064316 27.862305 C 274.394257 24.098679 276.024841 20.13678 274.378082 16.475784 C 273.701294 14.502838 272.978165 12.546936 272.292725 10.578781 C 275.971222 9.645172 280.283325 9.962418 283.310043 7.342514 Z M 283.310043 7.342514 " transform="matrix(1,0,0,1,0,0)"/>
<path style="stroke: none; fill-rule: nonzero; fill: rgb(0%,0%,0%); opacity: 1;" d="M 283.310043 7.342514 C 284.986465 6.06427 286.650955 4.770432 288.339096 3.501617 C 290.490768 7.398376 292.130417 11.890213 296.309723 14.09288 C 300.676147 7.051712 312.88829 6.723938 317.185822 13.940857 C 318.342911 15.860596 318.437103 18.162827 318.76445 20.320663 C 322.329437 20.354355 326.540573 19.855911 329.268158 22.700394 C 331.853867 24.854614 332.131989 28.371429 331.754395 31.487518 C 334.538544 32.722366 337.416046 34.77037 337.933929 37.995926 C 338.536514 42.949081 338.453308 48.152817 336.7314 52.891327 C 333.376648 61.893341 323.545441 67.983871 313.965485 66.518524 C 303.429504 65.393204 294.939011 55.5242 295.206512 44.929077 C 294.389282 50.673508 296.791885 57.697205 292.360535 62.385941 C 288.418625 66.874268 280.580124 66.775024 276.769562 62.172302 C 273.804016 59.006836 274.09639 54.324341 274.372208 50.336899 C 273.403854 55.681229 267.237564 59.518829 262.215088 56.879288 C 258.510666 55.396622 257.530701 51.289078 256.912888 47.77594 C 256.371689 47.769608 255.289291 47.756912 254.748108 47.750565 C 254.17482 51.957489 255.412018 56.544479 253.27301 60.438766 C 248.556381 68.95372 232.735153 67.228928 231.30188 56.984711 C 230.35759 61.418198 226.711197 65.334854 222.031265 65.611313 C 217.321075 65.786423 212.596375 65.772003 207.887833 65.60257 C 200.422043 65.155197 193.645416 60.207581 190.368134 53.579788 C 187.188248 46.978516 187.591202 38.685883 191.720322 32.581314 C 195.497253 26.871185 202.025833 22.833664 208.982941 22.911942 C 214.314941 22.931107 219.69133 22.449707 224.998657 23.068939 C 229.65416 24.089493 231.773224 29.176132 231.540924 33.548813 C 231.285583 29.329636 234.194489 25.520004 238.082962 24.194672 C 242.04216 22.751053 246.139359 25.125961 250.141678 23.773895 C 262.057861 21.797516 273.347382 31.993271 274.370438 43.6866 C 274.525543 38.486145 273.252884 32.834671 275.863586 28.000961 C 275.413773 27.966293 274.51413 27.896973 274.064316 27.862305 C 274.394257 24.098679 276.024841 20.13678 274.378082 16.475784 C 273.701294 14.502838 272.978165 12.546936 272.292725 10.578781 C 275.971222 9.645172 280.283325 9.962418 283.310043 7.342514 Z M 283.310043 7.342514 "/>
<path style="fill: none; stroke-width: 0.1; stroke-linecap: butt; stroke-linejoin: miter; stroke: rgb(0%,0%,0%); opacity: 1;stroke-miterlimit: 10;" d="M 61.745605 11.787186 C 65.402603 6.782944 73.73941 6.526505 77.745789 11.224106 C 79.513275 13.01651 80.348785 15.522873 80.402298 18.007584 C 80.603516 29.995819 80.243362 41.98793 80.458328 53.976257 C 80.69957 57.766235 79.252441 61.761932 75.960037 63.869339 C 73.176514 65.964233 69.535614 65.903336 66.277908 65.250427 C 60.382904 67.068115 53.708557 66.95816 48.282562 63.797775 C 40.249298 59.378128 35.641541 49.613037 37.70842 40.614258 C 39.638016 30.57666 49.437897 23.16803 59.582886 23.494736 C 59.619125 19.557266 59.008972 15.035843 61.745605 11.787186 Z M 61.745605 11.787186 " transform="matrix(1,0,0,1,0,0)"/>
<path style="stroke: none; fill-rule: nonzero; fill: rgb(0%,0%,0%); opacity: 1;" d="M 61.745605 11.787186 C 65.402603 6.782944 73.73941 6.526505 77.745789 11.224106 C 79.513275 13.01651 80.348785 15.522873 80.402298 18.007584 C 80.603516 29.995819 80.243362 41.98793 80.458328 53.976257 C 80.69957 57.766235 79.252441 61.761932 75.960037 63.869339 C 73.176514 65.964233 69.535614 65.903336 66.277908 65.250427 C 60.382904 67.068115 53.708557 66.95816 48.282562 63.797775 C 40.249298 59.378128 35.641541 49.613037 37.70842 40.614258 C 39.638016 30.57666 49.437897 23.16803 59.582886 23.494736 C 59.619125 19.557266 59.008972 15.035843 61.745605 11.787186 Z M 61.745605 11.787186 "/>
<path style="fill: none; stroke-width: 0.1; stroke-linecap: butt; stroke-linejoin: miter; stroke: rgb(0%,0%,0%); opacity: 1;stroke-miterlimit: 10;" d="M 382.059662 15.110641 C 384.627274 8.139053 395.029434 6.695251 399.606094 12.408768 C 402.733383 15.607834 401.952042 20.350616 402.0103 24.40799 C 412.943192 24.007797 423.354996 32.931763 424.023651 43.94136 C 424.222427 49.299454 424.382797 54.697281 423.945358 60.044861 C 423.018036 66.040909 414.832123 68.843018 410.396027 64.695114 C 405.61586 60.753693 408.061661 54.032486 407.188599 48.755234 C 406.561584 48.762238 405.307541 48.77623 404.680527 48.783234 C 404.175598 52.515045 405.13858 56.401184 403.910583 60.032944 C 400.856689 68.626556 386.8703 69.203659 382.546661 61.455307 C 381.497177 59.409836 381.061508 57.214081 381.239655 54.868011 C 382.047379 60.495895 377.792419 66.24379 372.060425 66.607925 C 367.322769 66.787338 362.570343 66.773788 357.835815 66.599182 C 348.038986 65.98114 339.378967 57.613083 338.443222 47.840332 C 338.346313 44.747818 338.57547 41.614883 339.296616 38.601547 C 341.98027 30.310043 350.147903 23.832886 358.994278 23.910873 C 363.99501 23.866684 369.011627 23.615524 374.009323 23.911606 C 377.873047 24.195572 380.697937 27.725067 381.437683 31.328857 C 381.550858 25.972031 380.410187 20.318649 382.059662 15.110641 Z M 382.059662 15.110641 " transform="matrix(1,0,0,1,0,0)"/>
<path style="stroke: none; fill-rule: nonzero; fill: rgb(0%,0%,0%); opacity: 1;" d="M 382.059662 15.110641 C 384.627274 8.139053 395.029434 6.695251 399.606094 12.408768 C 402.733383 15.607834 401.952042 20.350616 402.0103 24.40799 C 412.943192 24.007797 423.354996 32.931763 424.023651 43.94136 C 424.222427 49.299454 424.382797 54.697281 423.945358 60.044861 C 423.018036 66.040909 414.832123 68.843018 410.396027 64.695114 C 405.61586 60.753693 408.061661 54.032486 407.188599 48.755234 C 406.561584 48.762238 405.307541 48.77623 404.680527 48.783234 C 404.175598 52.515045 405.13858 56.401184 403.910583 60.032944 C 400.856689 68.626556 386.8703 69.203659 382.546661 61.455307 C 381.497177 59.409836 381.061508 57.214081 381.239655 54.868011 C 382.047379 60.495895 377.792419 66.24379 372.060425 66.607925 C 367.322769 66.787338 362.570343 66.773788 357.835815 66.599182 C 348.038986 65.98114 339.378967 57.613083 338.443222 47.840332 C 338.346313 44.747818 338.57547 41.614883 339.296616 38.601547 C 341.98027 30.310043 350.147903 23.832886 358.994278 23.910873 C 363.99501 23.866684 369.011627 23.615524 374.009323 23.911606 C 377.873047 24.195572 380.697937 27.725067 381.437683 31.328857 C 381.550858 25.972031 380.410187 20.318649 382.059662 15.110641 Z M 382.059662 15.110641 "/>
<path style="fill: none; stroke-width: 0.1; stroke-linecap: butt; stroke-linejoin: miter; stroke: rgb(37.647063%,58.823532%,74.901962%); opacity: 1;stroke-miterlimit: 10;" d="M 277.369919 13.539383 C 281.029938 13.100006 284.382599 11.605148 287.134186 9.147934 C 288.637802 12.52356 291.11969 15.252029 294.286591 17.144501 C 291.553497 19.642548 289.720016 22.8461 288.902603 26.454941 C 285.719833 24.568649 282.127304 23.784744 278.443741 24.141754 C 279.104431 20.547104 278.820694 16.913376 277.369919 13.539383 Z M 277.369919 13.539383 " transform="matrix(1,0,0,1,0,0)"/>
<path style="stroke: none; fill-rule: nonzero; fill: rgb(37.647063%,58.823532%,74.901962%); opacity: 1;" d="M 277.369919 13.539383 C 281.029938 13.100006 284.382599 11.605148 287.134186 9.147934 C 288.637802 12.52356 291.11969 15.252029 294.286591 17.144501 C 291.553497 19.642548 289.720016 22.8461 288.902603 26.454941 C 285.719833 24.568649 282.127304 23.784744 278.443741 24.141754 C 279.104431 20.547104 278.820694 16.913376 277.369919 13.539383 Z M 277.369919 13.539383 "/>
<path style="fill: none; stroke-width: 0.1; stroke-linecap: butt; stroke-linejoin: miter; stroke: rgb(37.647063%,58.823532%,74.901962%); opacity: 1;stroke-miterlimit: 10;" d="M 63.991226 15.04921 C 66.532684 9.501892 76.155334 10.874481 76.591354 17.121078 C 76.967941 28.388947 76.583328 39.681442 76.762924 50.958984 C 76.670181 54.185867 77.309616 58.190308 74.412109 60.462387 C 72.169968 62.620514 68.925018 61.838226 66.199585 61.35379 C 59.753662 63.770203 51.901642 63.187576 46.785431 58.232819 C 39.238556 51.822556 38.987625 38.954742 46.329742 32.293686 C 50.671249 27.740189 57.308746 26.677353 63.292206 27.674301 C 63.485336 23.490189 62.585022 19.074005 63.991226 15.04921 Z M 63.991226 15.04921 " transform="matrix(1,0,0,1,0,0)"/>
<path style="stroke: none; fill-rule: nonzero; fill: rgb(37.647063%,58.823532%,74.901962%); opacity: 1;" d="M 63.991226 15.04921 C 66.532684 9.501892 76.155334 10.874481 76.591354 17.121078 C 76.967941 28.388947 76.583328 39.681442 76.762924 50.958984 C 76.670181 54.185867 77.309616 58.190308 74.412109 60.462387 C 72.169968 62.620514 68.925018 61.838226 66.199585 61.35379 C 59.753662 63.770203 51.901642 63.187576 46.785431 58.232819 C 39.238556 51.822556 38.987625 38.954742 46.329742 32.293686 C 50.671249 27.740189 57.308746 26.677353 63.292206 27.674301 C 63.485336 23.490189 62.585022 19.074005 63.991226 15.04921 Z M 63.991226 15.04921 "/>
<path style="fill: none; stroke-width: 0.1; stroke-linecap: butt; stroke-linejoin: miter; stroke: rgb(0%,0%,0%); opacity: 1;stroke-miterlimit: 10;" d="M 280.288025 15.090012 C 282.206635 14.042328 284.240829 13.214203 286.193924 12.223312 C 286.922546 13.676788 287.639984 15.133621 288.327194 16.610809 C 287.309143 15.892624 286.314651 15.147369 285.343719 14.375076 C 284.320145 14.906433 283.288162 15.41304 282.247742 15.894897 C 282.250137 18.110672 282.005203 20.321899 281.572632 22.493698 C 280.938095 20.068756 280.457718 17.592026 280.288025 15.090012 Z M 280.288025 15.090012 " transform="matrix(1,0,0,1,0,0)"/>
<path style="stroke: none; fill-rule: nonzero; fill: rgb(0%,0%,0%); opacity: 1;" d="M 280.288025 15.090012 C 282.206635 14.042328 284.240829 13.214203 286.193924 12.223312 C 286.922546 13.676788 287.639984 15.133621 288.327194 16.610809 C 287.309143 15.892624 286.314651 15.147369 285.343719 14.375076 C 284.320145 14.906433 283.288162 15.41304 282.247742 15.894897 C 282.250137 18.110672 282.005203 20.321899 281.572632 22.493698 C 280.938095 20.068756 280.457718 17.592026 280.288025 15.090012 Z M 280.288025 15.090012 "/>
<path style="fill: none; stroke-width: 0.1; stroke-linecap: butt; stroke-linejoin: miter; stroke: rgb(37.647063%,58.823532%,74.901962%); opacity: 1;stroke-miterlimit: 10;" d="M 299.128036 17.911072 C 299.906418 11.997253 307.914352 11.201843 312.147537 13.759232 C 315.563217 16.019669 314.737137 20.491974 314.876251 23.986145 C 318.399551 24.103119 322.032913 23.610886 325.482742 24.502457 C 329.206665 25.973938 329.054764 31.981979 325.21315 33.1884 C 321.782333 33.909561 318.230667 33.448151 314.754425 33.541336 C 314.838608 36.28688 314.520599 39.10376 315.204544 41.794342 C 316.474396 45.308884 321.839828 46.06282 323.934784 42.919769 C 324.91243 41.034668 325.074097 38.848099 325.981903 36.932205 C 327.990692 34.086716 332.974045 34.798569 334.160934 38.073105 C 334.812103 41.33815 334.550598 44.725037 334.206589 48.014435 C 333.182938 56.306778 325.366486 63.109604 317.008331 62.984528 C 307.752762 63.428268 299.093475 55.324936 299.016861 46.042374 C 298.980576 36.669907 298.758255 27.273895 299.128036 17.911072 Z M 299.128036 17.911072 " transform="matrix(1,0,0,1,0,0)"/>
<path style="stroke: none; fill-rule: nonzero; fill: rgb(37.647063%,58.823532%,74.901962%); opacity: 1;" d="M 299.128036 17.911072 C 299.906418 11.997253 307.914352 11.201843 312.147537 13.759232 C 315.563217 16.019669 314.737137 20.491974 314.876251 23.986145 C 318.399551 24.103119 322.032913 23.610886 325.482742 24.502457 C 329.206665 25.973938 329.054764 31.981979 325.21315 33.1884 C 321.782333 33.909561 318.230667 33.448151 314.754425 33.541336 C 314.838608 36.28688 314.520599 39.10376 315.204544 41.794342 C 316.474396 45.308884 321.839828 46.06282 323.934784 42.919769 C 324.91243 41.034668 325.074097 38.848099 325.981903 36.932205 C 327.990692 34.086716 332.974045 34.798569 334.160934 38.073105 C 334.812103 41.33815 334.550598 44.725037 334.206589 48.014435 C 333.182938 56.306778 325.366486 63.109604 317.008331 62.984528 C 307.752762 63.428268 299.093475 55.324936 299.016861 46.042374 C 298.980576 36.669907 298.758255 27.273895 299.128036 17.911072 Z M 299.128036 17.911072 "/>
<path style="fill: none; stroke-width: 0.1; stroke-linecap: butt; stroke-linejoin: miter; stroke: rgb(37.647063%,58.823532%,74.901962%); opacity: 1;stroke-miterlimit: 10;" d="M 386.643784 14.676376 C 389.765366 10.991028 396.708755 12.229782 398.04213 16.978943 C 398.820831 20.776901 398.307098 24.701782 398.369904 28.549683 C 404.90477 27.379028 412.105652 29.222397 416.332626 34.578278 C 422.061523 40.98967 420.317398 50.147263 420.462463 57.998428 C 421.062408 62.616531 414.397354 64.84758 411.947113 61.047333 C 409.940689 56.859085 412.146423 51.809174 410.418457 47.525101 C 408.672043 44.128067 403.239822 44.091141 401.485428 47.493607 C 399.682449 51.94043 402.673447 57.994751 398.495148 61.496994 C 394.197693 64.674515 385.375992 63.444214 385.062881 57.037506 C 384.774048 45.694077 385.081726 34.33548 384.926498 22.986282 C 385.054794 20.196045 384.498871 16.877274 386.643784 14.676376 Z M 386.643784 14.676376 " transform="matrix(1,0,0,1,0,0)"/>
<path style="stroke: none; fill-rule: nonzero; fill: rgb(37.647063%,58.823532%,74.901962%); opacity: 1;" d="M 386.643784 14.676376 C 389.765366 10.991028 396.708755 12.229782 398.04213 16.978943 C 398.820831 20.776901 398.307098 24.701782 398.369904 28.549683 C 404.90477 27.379028 412.105652 29.222397 416.332626 34.578278 C 422.061523 40.98967 420.317398 50.147263 420.462463 57.998428 C 421.062408 62.616531 414.397354 64.84758 411.947113 61.047333 C 409.940689 56.859085 412.146423 51.809174 410.418457 47.525101 C 408.672043 44.128067 403.239822 44.091141 401.485428 47.493607 C 399.682449 51.94043 402.673447 57.994751 398.495148 61.496994 C 394.197693 64.674515 385.375992 63.444214 385.062881 57.037506 C 384.774048 45.694077 385.081726 34.33548 384.926498 22.986282 C 385.054794 20.196045 384.498871 16.877274 386.643784 14.676376 Z M 386.643784 14.676376 "/>
<path style="fill: none; stroke-width: 0.1; stroke-linecap: butt; stroke-linejoin: miter; stroke: rgb(0%,0%,0%); opacity: 1;stroke-miterlimit: 10;" d="M 72.432251 23.919556 C 72.410156 22.624893 72.949051 21.425049 73.419266 20.252441 C 74.390274 29.108002 73.602524 38.050644 73.894257 46.943039 C 73.74028 50.150513 74.578995 54.242203 71.624619 56.477249 C 70.163727 57.849655 68.112823 57.709183 66.312027 57.299118 C 68.626389 56.069931 72.542877 55.469299 72.32959 52.020737 C 72.615967 42.659912 72.26799 33.283768 72.432251 23.919556 Z M 72.432251 23.919556 " transform="matrix(1,0,0,1,0,0)"/>
<path style="stroke: none; fill-rule: nonzero; fill: rgb(0%,0%,0%); opacity: 1;" d="M 72.432251 23.919556 C 72.410156 22.624893 72.949051 21.425049 73.419266 20.252441 C 74.390274 29.108002 73.602524 38.050644 73.894257 46.943039 C 73.74028 50.150513 74.578995 54.242203 71.624619 56.477249 C 70.163727 57.849655 68.112823 57.709183 66.312027 57.299118 C 68.626389 56.069931 72.542877 55.469299 72.32959 52.020737 C 72.615967 42.659912 72.26799 33.283768 72.432251 23.919556 Z M 72.432251 23.919556 "/>
<path style="fill: none; stroke-width: 0.1; stroke-linecap: butt; stroke-linejoin: miter; stroke: rgb(100%,100%,100%); opacity: 1;stroke-miterlimit: 10;" d="M 292.653503 26.815521 C 293.341537 24.767426 294.199936 22.781876 295.239761 20.885361 C 295.274933 25.348145 295.154739 29.812317 295.413559 34.271988 C 295.265884 31.511002 293.905228 29.16452 292.653503 26.815521 Z M 292.653503 26.815521 " transform="matrix(1,0,0,1,0,0)"/>
<path style="stroke: none; fill-rule: nonzero; fill: rgb(100%,100%,100%); opacity: 1;" d="M 292.653503 26.815521 C 293.341537 24.767426 294.199936 22.781876 295.239761 20.885361 C 295.274933 25.348145 295.154739 29.812317 295.413559 34.271988 C 295.265884 31.511002 293.905228 29.16452 292.653503 26.815521 Z M 292.653503 26.815521 "/>
<path style="fill: none; stroke-width: 0.1; stroke-linecap: butt; stroke-linejoin: miter; stroke: rgb(0%,0%,0%); opacity: 1;stroke-miterlimit: 10;" d="M 301.80426 22.091019 L 303.167542 22.13858 C 303.273804 29.090591 303.139008 36.043655 303.209457 42.99559 C 303.207886 45.684402 303.71051 48.439774 305.194824 50.728989 C 307.03743 53.876404 310.67482 55.262283 312.848099 58.124512 C 306.950089 56.565582 302.19313 51.197769 301.878906 45.030884 C 301.584991 37.391098 301.81665 29.736359 301.80426 22.091019 Z M 301.80426 22.091019 " transform="matrix(1,0,0,1,0,0)"/>
<path style="stroke: none; fill-rule: nonzero; fill: rgb(0%,0%,0%); opacity: 1;" d="M 301.80426 22.091019 L 303.167542 22.13858 C 303.273804 29.090591 303.139008 36.043655 303.209457 42.99559 C 303.207886 45.684402 303.71051 48.439774 305.194824 50.728989 C 307.03743 53.876404 310.67482 55.262283 312.848099 58.124512 C 306.950089 56.565582 302.19313 51.197769 301.878906 45.030884 C 301.584991 37.391098 301.81665 29.736359 301.80426 22.091019 Z M 301.80426 22.091019 "/>
<path style="fill: none; stroke-width: 0.1; stroke-linecap: butt; stroke-linejoin: miter; stroke: rgb(0%,0%,0%); opacity: 1;stroke-miterlimit: 10;" d="M 388.125122 21.257904 C 388.964737 22.665359 389.247574 24.314743 389.22818 25.933578 C 389.289749 34.938995 389.045227 43.952133 389.284332 52.953415 C 389.138962 56.33493 392.989655 57.018936 395.320312 58.235886 C 392.723495 58.963852 389.715942 58.20134 388.473251 55.613663 C 387.277893 52.575027 387.880264 49.194504 387.744965 46.006439 C 387.968399 37.759689 387.337433 29.479553 388.125122 21.257904 Z M 388.125122 21.257904 " transform="matrix(1,0,0,1,0,0)"/>
<path style="stroke: none; fill-rule: nonzero; fill: rgb(0%,0%,0%); opacity: 1;" d="M 388.125122 21.257904 C 388.964737 22.665359 389.247574 24.314743 389.22818 25.933578 C 389.289749 34.938995 389.045227 43.952133 389.284332 52.953415 C 389.138962 56.33493 392.989655 57.018936 395.320312 58.235886 C 392.723495 58.963852 389.715942 58.20134 388.473251 55.613663 C 387.277893 52.575027 387.880264 49.194504 387.744965 46.006439 C 387.968399 37.759689 387.337433 29.479553 388.125122 21.257904 Z M 388.125122 21.257904 "/>
<path style="fill: none; stroke-width: 0.1; stroke-linecap: butt; stroke-linejoin: miter; stroke: rgb(0%,0%,0%); opacity: 1;stroke-miterlimit: 10;" d="M 80.585754 45.02095 C 79.556473 32.326416 92.69902 21.443039 104.989807 23.950546 C 108.629852 25.101166 112.275085 22.849274 115.902328 24.009644 C 120.274918 25.140656 123.557846 29.45108 123.414703 33.989792 C 123.385803 41.648285 123.663651 49.329193 123.265244 56.976379 C 122.578262 63.477417 115.218231 67.157776 109.281326 65.249832 C 105.043854 66.436127 100.538788 66.985535 96.234222 65.790085 C 87.177902 63.471863 79.823547 54.584122 80.585754 45.02095 Z M 80.585754 45.02095 " transform="matrix(1,0,0,1,0,0)"/>
<path style="stroke: none; fill-rule: nonzero; fill: rgb(0%,0%,0%); opacity: 1;" d="M 80.585754 45.02095 C 79.556473 32.326416 92.69902 21.443039 104.989807 23.950546 C 108.629852 25.101166 112.275085 22.849274 115.902328 24.009644 C 120.274918 25.140656 123.557846 29.45108 123.414703 33.989792 C 123.385803 41.648285 123.663651 49.329193 123.265244 56.976379 C 122.578262 63.477417 115.218231 67.157776 109.281326 65.249832 C 105.043854 66.436127 100.538788 66.985535 96.234222 65.790085 C 87.177902 63.471863 79.823547 54.584122 80.585754 45.02095 Z M 80.585754 45.02095 "/>
<path style="fill: none; stroke-width: 0.1; stroke-linecap: butt; stroke-linejoin: miter; stroke: rgb(0%,0%,0%); opacity: 1;stroke-miterlimit: 10;" d="M 145.259521 38.029617 C 145.01712 30.588638 151.542221 23.69252 159.019852 23.664154 C 166.003876 23.556549 172.995621 23.580627 179.981201 23.648895 C 185.223953 23.381516 189.621246 28.889389 188.16629 33.938736 C 187.669891 36.772263 185.222794 38.51886 183.014618 40.028915 C 185.881348 42.604477 188.18103 46.012299 188.330765 49.98259 C 189.394974 57.776276 182.742889 65.431519 174.927261 65.653763 C 167.656891 65.731415 160.378967 65.76033 153.110519 65.641876 C 148.325806 65.536362 144.467026 60.652786 145.369003 55.974319 C 145.768646 52.939972 148.151596 50.768066 150.709503 49.38327 C 147.421539 46.545914 145.124817 42.459 145.259521 38.029617 Z M 145.259521 38.029617 " transform="matrix(1,0,0,1,0,0)"/>
<path style="stroke: none; fill-rule: nonzero; fill: rgb(0%,0%,0%); opacity: 1;" d="M 145.259521 38.029617 C 145.01712 30.588638 151.542221 23.69252 159.019852 23.664154 C 166.003876 23.556549 172.995621 23.580627 179.981201 23.648895 C 185.223953 23.381516 189.621246 28.889389 188.16629 33.938736 C 187.669891 36.772263 185.222794 38.51886 183.014618 40.028915 C 185.881348 42.604477 188.18103 46.012299 188.330765 49.98259 C 189.394974 57.776276 182.742889 65.431519 174.927261 65.653763 C 167.656891 65.731415 160.378967 65.76033 153.110519 65.641876 C 148.325806 65.536362 144.467026 60.652786 145.369003 55.974319 C 145.768646 52.939972 148.151596 50.768066 150.709503 49.38327 C 147.421539 46.545914 145.124817 42.459 145.259521 38.029617 Z M 145.259521 38.029617 "/>
<path style="fill: none; stroke-width: 0.1; stroke-linecap: butt; stroke-linejoin: miter; stroke: rgb(0%,0%,0%); opacity: 1;stroke-miterlimit: 10;" d="M 313.549286 26.535522 C 316.903137 25.911362 320.349747 25.908066 323.716934 26.46933 C 320.569168 28.061462 316.740326 27.932526 313.549286 26.535522 Z M 313.549286 26.535522 " transform="matrix(1,0,0,1,0,0)"/>
<path style="stroke: none; fill-rule: nonzero; fill: rgb(0%,0%,0%); opacity: 1;" d="M 313.549286 26.535522 C 316.903137 25.911362 320.349747 25.908066 323.716934 26.46933 C 320.569168 28.061462 316.740326 27.932526 313.549286 26.535522 Z M 313.549286 26.535522 "/>
<path style="fill: none; stroke-width: 0.1; stroke-linecap: butt; stroke-linejoin: miter; stroke: rgb(37.647063%,58.823532%,74.901962%); opacity: 1;stroke-miterlimit: 10;" d="M 108.543716 28.402618 C 112.319901 26.464264 117.974579 27.087387 119.36087 31.70224 C 120.232346 37.758194 119.487122 43.937393 119.756546 50.042267 C 119.596069 53.545319 120.534317 57.928986 117.417908 60.45929 C 115.162247 62.627548 111.900299 61.833603 109.162094 61.353622 C 102.732712 63.792145 94.893326 63.166718 89.786057 58.235001 C 82.243744 51.82547 81.986389 38.96965 89.318619 32.302963 C 94.235092 27.185104 102.011017 26.330322 108.543716 28.402618 Z M 108.543716 28.402618 " transform="matrix(1,0,0,1,0,0)"/>
<path style="stroke: none; fill-rule: nonzero; fill: rgb(37.647063%,58.823532%,74.901962%); opacity: 1;" d="M 108.543716 28.402618 C 112.319901 26.464264 117.974579 27.087387 119.36087 31.70224 C 120.232346 37.758194 119.487122 43.937393 119.756546 50.042267 C 119.596069 53.545319 120.534317 57.928986 117.417908 60.45929 C 115.162247 62.627548 111.900299 61.833603 109.162094 61.353622 C 102.732712 63.792145 94.893326 63.166718 89.786057 58.235001 C 82.243744 51.82547 81.986389 38.96965 89.318619 32.302963 C 94.235092 27.185104 102.011017 26.330322 108.543716 28.402618 Z M 108.543716 28.402618 "/>
<path style="fill: none; stroke-width: 0.1; stroke-linecap: butt; stroke-linejoin: miter; stroke: rgb(37.647063%,58.823532%,74.901962%); opacity: 1;stroke-miterlimit: 10;" d="M 157.436874 27.574707 C 163.587692 26.93399 169.798477 27.477417 175.974518 27.266281 C 178.610977 27.429031 182.042648 26.684738 183.821289 29.209061 C 185.916031 31.758377 184.182297 36.19809 180.853668 36.487915 C 177.377365 36.831573 173.874588 36.61438 170.3918 36.827866 C 170.85672 37.993271 170.185867 40.466187 172.109863 40.447388 C 176.073151 40.815613 180.510071 41.568604 182.778412 45.272095 C 187.297028 51.087006 183.430908 60.650833 176.172989 61.737045 C 169.80899 62.348022 163.394226 61.833344 157.010193 62.033478 C 154.602676 61.903061 151.524246 62.448883 149.908813 60.175522 C 147.959518 57.828323 149.152405 53.819214 152.085526 52.955566 C 155.134109 52.411392 158.275711 52.882584 161.319336 52.272202 C 161.696396 51.090912 162.140442 48.987167 160.306625 48.960693 C 156.798569 48.141815 152.835922 47.361725 150.832123 43.993988 C 146.447662 38.162827 150.222672 28.726547 157.436874 27.574707 Z M 157.436874 27.574707 " transform="matrix(1,0,0,1,0,0)"/>
<path style="stroke: none; fill-rule: nonzero; fill: rgb(37.647063%,58.823532%,74.901962%); opacity: 1;" d="M 157.436874 27.574707 C 163.587692 26.93399 169.798477 27.477417 175.974518 27.266281 C 178.610977 27.429031 182.042648 26.684738 183.821289 29.209061 C 185.916031 31.758377 184.182297 36.19809 180.853668 36.487915 C 177.377365 36.831573 173.874588 36.61438 170.3918 36.827866 C 170.85672 37.993271 170.185867 40.466187 172.109863 40.447388 C 176.073151 40.815613 180.510071 41.568604 182.778412 45.272095 C 187.297028 51.087006 183.430908 60.650833 176.172989 61.737045 C 169.80899 62.348022 163.394226 61.833344 157.010193 62.033478 C 154.602676 61.903061 151.524246 62.448883 149.908813 60.175522 C 147.959518 57.828323 149.152405 53.819214 152.085526 52.955566 C 155.134109 52.411392 158.275711 52.882584 161.319336 52.272202 C 161.696396 51.090912 162.140442 48.987167 160.306625 48.960693 C 156.798569 48.141815 152.835922 47.361725 150.832123 43.993988 C 146.447662 38.162827 150.222672 28.726547 157.436874 27.574707 Z M 157.436874 27.574707 "/>
<path style="fill: none; stroke-width: 0.1; stroke-linecap: butt; stroke-linejoin: miter; stroke: rgb(37.647063%,58.823532%,74.901962%); opacity: 1;stroke-miterlimit: 10;" d="M 203.374023 27.614532 C 207.743866 26.048981 212.461472 26.586502 217.011673 26.437469 C 219.645203 26.501678 222.358963 26.173218 224.930817 26.893875 C 228.530807 28.464203 228.373077 34.250687 224.667313 35.574814 C 220.710831 36.552246 216.412445 35.156631 212.570862 36.622574 C 208.94017 38.483246 209.358337 44.414856 213.199173 45.765182 C 216.385498 46.462662 219.69281 45.825211 222.899567 46.388977 C 230.177383 48.388687 229.179138 62.206345 221.057663 61.945038 C 213.594421 61.81308 204.990753 63.461609 198.76944 58.246552 C 191.631592 52.939835 189.78624 42.032257 194.721756 34.656311 C 196.796722 31.507034 199.824783 28.939865 203.374023 27.614532 Z M 203.374023 27.614532 " transform="matrix(1,0,0,1,0,0)"/>
<path style="stroke: none; fill-rule: nonzero; fill: rgb(37.647063%,58.823532%,74.901962%); opacity: 1;" d="M 203.374023 27.614532 C 207.743866 26.048981 212.461472 26.586502 217.011673 26.437469 C 219.645203 26.501678 222.358963 26.173218 224.930817 26.893875 C 228.530807 28.464203 228.373077 34.250687 224.667313 35.574814 C 220.710831 36.552246 216.412445 35.156631 212.570862 36.622574 C 208.94017 38.483246 209.358337 44.414856 213.199173 45.765182 C 216.385498 46.462662 219.69281 45.825211 222.899567 46.388977 C 230.177383 48.388687 229.179138 62.206345 221.057663 61.945038 C 213.594421 61.81308 204.990753 63.461609 198.76944 58.246552 C 191.631592 52.939835 189.78624 42.032257 194.721756 34.656311 C 196.796722 31.507034 199.824783 28.939865 203.374023 27.614532 Z M 203.374023 27.614532 "/>
<path style="fill: none; stroke-width: 0.1; stroke-linecap: butt; stroke-linejoin: miter; stroke: rgb(37.647063%,58.823532%,74.901962%); opacity: 1;stroke-miterlimit: 10;" d="M 239.386948 27.637146 C 241.58548 26.838791 243.865356 27.762878 245.997375 28.329147 C 251.990128 26.495621 258.995804 26.889755 263.878357 31.183838 C 269.866516 35.709625 271.517838 43.85112 270.205505 50.909058 C 269.215332 54.408707 263.906677 55.124054 262.008621 52.054199 C 261.101547 50.097412 260.992447 47.860641 260.006714 45.939606 C 257.860962 42.782196 252.380524 43.520111 251.221786 47.182144 C 250.474457 50.618042 251.242859 54.201157 250.475403 57.63269 C 248.196686 64.345261 235.471313 63.605637 235.062729 56.051727 C 234.837189 48.670532 234.931107 41.27124 235.011398 33.887009 C 234.889938 31.112732 236.76265 28.491013 239.386948 27.637146 Z M 239.386948 27.637146 " transform="matrix(1,0,0,1,0,0)"/>
<path style="stroke: none; fill-rule: nonzero; fill: rgb(37.647063%,58.823532%,74.901962%); opacity: 1;" d="M 239.386948 27.637146 C 241.58548 26.838791 243.865356 27.762878 245.997375 28.329147 C 251.990128 26.495621 258.995804 26.889755 263.878357 31.183838 C 269.866516 35.709625 271.517838 43.85112 270.205505 50.909058 C 269.215332 54.408707 263.906677 55.124054 262.008621 52.054199 C 261.101547 50.097412 260.992447 47.860641 260.006714 45.939606 C 257.860962 42.782196 252.380524 43.520111 251.221786 47.182144 C 250.474457 50.618042 251.242859 54.201157 250.475403 57.63269 C 248.196686 64.345261 235.471313 63.605637 235.062729 56.051727 C 234.837189 48.670532 234.931107 41.27124 235.011398 33.887009 C 234.889938 31.112732 236.76265 28.491013 239.386948 27.637146 Z M 239.386948 27.637146 "/>
<path style="fill: none; stroke-width: 0.1; stroke-linecap: butt; stroke-linejoin: miter; stroke: rgb(37.647063%,58.823532%,74.901962%); opacity: 1;stroke-miterlimit: 10;" d="M 282.470139 27.614273 C 286.653168 26.065445 291.72876 29.445038 291.374924 34.036392 C 291.432846 41.347946 291.537613 48.673477 291.319473 55.981827 C 291.280533 61.242874 284.249054 63.873383 280.426529 60.589417 C 277.675812 58.634689 277.943665 54.98555 277.926636 52.010239 C 278.034775 45.976379 277.828598 39.939209 278.009064 33.908066 C 277.884338 31.100037 279.792145 28.43396 282.470139 27.614273 Z M 282.470139 27.614273 " transform="matrix(1,0,0,1,0,0)"/>
<path style="stroke: none; fill-rule: nonzero; fill: rgb(37.647063%,58.823532%,74.901962%); opacity: 1;" d="M 282.470139 27.614273 C 286.653168 26.065445 291.72876 29.445038 291.374924 34.036392 C 291.432846 41.347946 291.537613 48.673477 291.319473 55.981827 C 291.280533 61.242874 284.249054 63.873383 280.426529 60.589417 C 277.675812 58.634689 277.943665 54.98555 277.926636 52.010239 C 278.034775 45.976379 277.828598 39.939209 278.009064 33.908066 C 277.884338 31.100037 279.792145 28.43396 282.470139 27.614273 Z M 282.470139 27.614273 "/>
<path style="fill: none; stroke-width: 0.1; stroke-linecap: butt; stroke-linejoin: miter; stroke: rgb(37.647063%,58.823532%,74.901962%); opacity: 1;stroke-miterlimit: 10;" d="M 353.414886 28.597855 C 357.756424 27.060242 362.437164 27.582703 366.955917 27.438019 C 369.595169 27.496948 372.309097 27.184753 374.89502 27.876526 C 378.528168 29.424088 378.388565 35.255295 374.658936 36.577286 C 370.708328 37.546677 366.42392 36.165115 362.586655 37.613373 C 358.941605 39.462952 359.349884 45.405106 363.192535 46.762436 C 366.371933 47.469055 369.675995 46.821121 372.879105 47.385925 C 380.164001 49.353577 379.201477 63.16832 371.092941 62.942383 C 365.68663 62.953812 360.163712 63.484299 354.840775 62.349945 C 347.306656 60.316391 341.620407 52.800858 341.966293 44.955551 C 341.860718 37.801712 346.777893 31.073624 353.414886 28.597855 Z M 353.414886 28.597855 " transform="matrix(1,0,0,1,0,0)"/>
<path style="stroke: none; fill-rule: nonzero; fill: rgb(37.647063%,58.823532%,74.901962%); opacity: 1;" d="M 353.414886 28.597855 C 357.756424 27.060242 362.437164 27.582703 366.955917 27.438019 C 369.595169 27.496948 372.309097 27.184753 374.89502 27.876526 C 378.528168 29.424088 378.388565 35.255295 374.658936 36.577286 C 370.708328 37.546677 366.42392 36.165115 362.586655 37.613373 C 358.941605 39.462952 359.349884 45.405106 363.192535 46.762436 C 366.371933 47.469055 369.675995 46.821121 372.879105 47.385925 C 380.164001 49.353577 379.201477 63.16832 371.092941 62.942383 C 365.68663 62.953812 360.163712 63.484299 354.840775 62.349945 C 347.306656 60.316391 341.620407 52.800858 341.966293 44.955551 C 341.860718 37.801712 346.777893 31.073624 353.414886 28.597855 Z M 353.414886 28.597855 "/>
<path style="fill: none; stroke-width: 0.1; stroke-linecap: butt; stroke-linejoin: miter; stroke: rgb(0%,0%,0%); opacity: 1;stroke-miterlimit: 10;" d="M 209.169983 29.321136 C 213.050842 29.302368 216.93277 29.302322 220.816101 29.321747 C 220.816849 29.677292 220.818344 30.388397 220.819092 30.743942 C 216.931885 30.757874 213.046082 30.757812 209.161362 30.744324 C 209.163513 30.388535 209.167831 29.676941 209.169983 29.321136 Z M 209.169983 29.321136 " transform="matrix(1,0,0,1,0,0)"/>
<path style="stroke: none; fill-rule: nonzero; fill: rgb(0%,0%,0%); opacity: 1;" d="M 209.169983 29.321136 C 213.050842 29.302368 216.93277 29.302322 220.816101 29.321747 C 220.816849 29.677292 220.818344 30.388397 220.819092 30.743942 C 216.931885 30.757874 213.046082 30.757812 209.161362 30.744324 C 209.163513 30.388535 209.167831 29.676941 209.169983 29.321136 Z M 209.169983 29.321136 "/>
<path style="fill: none; stroke-width: 0.1; stroke-linecap: butt; stroke-linejoin: miter; stroke: rgb(0%,0%,0%); opacity: 1;stroke-miterlimit: 10;" d="M 151.870117 40.05574 C 151.301834 34.950195 155.726166 29.974792 160.89006 30.08252 C 166.880066 29.972 172.904587 29.781769 178.876587 30.379044 C 174.918777 32.47641 170.229904 31.131302 165.958847 31.443542 C 162.064148 31.416458 157.166931 30.991241 154.735794 34.744629 C 151.81871 38.334885 154.28717 42.784103 155.294632 46.571915 C 153.646667 44.736481 151.894196 42.669037 151.870117 40.05574 Z M 151.870117 40.05574 " transform="matrix(1,0,0,1,0,0)"/>
<path style="stroke: none; fill-rule: nonzero; fill: rgb(0%,0%,0%); opacity: 1;" d="M 151.870117 40.05574 C 151.301834 34.950195 155.726166 29.974792 160.89006 30.08252 C 166.880066 29.972 172.904587 29.781769 178.876587 30.379044 C 174.918777 32.47641 170.229904 31.131302 165.958847 31.443542 C 162.064148 31.416458 157.166931 30.991241 154.735794 34.744629 C 151.81871 38.334885 154.28717 42.784103 155.294632 46.571915 C 153.646667 44.736481 151.894196 42.669037 151.870117 40.05574 Z M 151.870117 40.05574 "/>
<path style="fill: none; stroke-width: 0.1; stroke-linecap: butt; stroke-linejoin: miter; stroke: rgb(0%,0%,0%); opacity: 1;stroke-miterlimit: 10;" d="M 240.142715 31.195969 C 241.656006 29.814026 243.770294 30.284439 245.612823 30.40036 C 243.11763 31.690598 238.999069 32.354813 239.273682 36.01355 C 239.160416 41.996475 239.043671 48.002045 239.3423 53.979721 C 239.519379 57.414902 243.567993 57.644455 246.001556 58.751022 C 242.836502 59.975754 238.753967 58.490784 238.029678 54.946976 C 237.414169 49.985886 237.905457 44.961884 237.73024 39.97525 C 237.814606 36.972275 237.273041 33.147324 240.142715 31.195969 Z M 240.142715 31.195969 " transform="matrix(1,0,0,1,0,0)"/>
<path style="stroke: none; fill-rule: nonzero; fill: rgb(0%,0%,0%); opacity: 1;" d="M 240.142715 31.195969 C 241.656006 29.814026 243.770294 30.284439 245.612823 30.40036 C 243.11763 31.690598 238.999069 32.354813 239.273682 36.01355 C 239.160416 41.996475 239.043671 48.002045 239.3423 53.979721 C 239.519379 57.414902 243.567993 57.644455 246.001556 58.751022 C 242.836502 59.975754 238.753967 58.490784 238.029678 54.946976 C 237.414169 49.985886 237.905457 44.961884 237.73024 39.97525 C 237.814606 36.972275 237.273041 33.147324 240.142715 31.195969 Z M 240.142715 31.195969 "/>
<path style="fill: none; stroke-width: 0.1; stroke-linecap: butt; stroke-linejoin: miter; stroke: rgb(0%,0%,0%); opacity: 1;stroke-miterlimit: 10;" d="M 245.721176 32.461227 C 254.640305 24.827866 270.523315 35.546219 266.948273 46.661758 C 265.963623 42.10202 265.048004 36.956223 260.849136 34.163162 C 256.591629 30.465332 250.763 31.468887 245.721176 32.461227 Z M 245.721176 32.461227 " transform="matrix(1,0,0,1,0,0)"/>
<path style="stroke: none; fill-rule: nonzero; fill: rgb(0%,0%,0%); opacity: 1;" d="M 245.721176 32.461227 C 254.640305 24.827866 270.523315 35.546219 266.948273 46.661758 C 265.963623 42.10202 265.048004 36.956223 260.849136 34.163162 C 256.591629 30.465332 250.763 31.468887 245.721176 32.461227 Z M 245.721176 32.461227 "/>
<path style="fill: none; stroke-width: 0.1; stroke-linecap: butt; stroke-linejoin: miter; stroke: rgb(0%,0%,0%); opacity: 1;stroke-miterlimit: 10;" d="M 282.281555 29.96759 C 285.537766 29.700455 289.570892 31.225037 289.882309 34.940491 C 290.206467 41.291168 290.145981 47.681976 289.921906 54.036972 C 289.817123 57.933044 285.66243 59.612701 282.284454 59.258072 C 284.394226 57.651245 288.209976 57.142517 288.467117 53.983383 C 288.767776 48.000824 288.648972 41.989594 288.538773 36.001526 C 288.740952 32.37944 284.584641 31.701065 282.281555 29.96759 Z M 282.281555 29.96759 " transform="matrix(1,0,0,1,0,0)"/>
<path style="stroke: none; fill-rule: nonzero; fill: rgb(0%,0%,0%); opacity: 1;" d="M 282.281555 29.96759 C 285.537766 29.700455 289.570892 31.225037 289.882309 34.940491 C 290.206467 41.291168 290.145981 47.681976 289.921906 54.036972 C 289.817123 57.933044 285.66243 59.612701 282.284454 59.258072 C 284.394226 57.651245 288.209976 57.142517 288.467117 53.983383 C 288.767776 48.000824 288.648972 41.989594 288.538773 36.001526 C 288.740952 32.37944 284.584641 31.701065 282.281555 29.96759 Z M 282.281555 29.96759 "/>
<path style="fill: none; stroke-width: 0.1; stroke-linecap: butt; stroke-linejoin: miter; stroke: rgb(0%,0%,0%); opacity: 1;stroke-miterlimit: 10;" d="M 359.176697 30.334076 C 363.317429 30.64711 367.902695 29.297821 371.719345 31.388 C 367.548431 31.944214 363.336914 31.747208 359.147064 31.735733 C 359.15448 31.385315 359.169281 30.684494 359.176697 30.334076 Z M 359.176697 30.334076 " transform="matrix(1,0,0,1,0,0)"/>
<path style="stroke: none; fill-rule: nonzero; fill: rgb(0%,0%,0%); opacity: 1;" d="M 359.176697 30.334076 C 363.317429 30.64711 367.902695 29.297821 371.719345 31.388 C 367.548431 31.944214 363.336914 31.747208 359.147064 31.735733 C 359.15448 31.385315 359.169281 30.684494 359.176697 30.334076 Z M 359.176697 30.334076 "/>
<path style="fill: none; stroke-width: 0.1; stroke-linecap: butt; stroke-linejoin: miter; stroke: rgb(0%,0%,0%); opacity: 1;stroke-miterlimit: 10;" d="M 411.657837 33.153854 C 415.477432 34.831573 417.201035 39.067886 417.528427 42.983093 C 417.807373 46.898056 417.668991 50.82724 417.707703 54.749268 C 417.348206 54.765717 416.629227 54.798615 416.269745 54.815063 C 416.171722 50.524612 416.453476 46.20842 415.90506 41.940964 C 415.438431 38.631073 413.092255 36.060776 411.657837 33.153854 Z M 411.657837 33.153854 " transform="matrix(1,0,0,1,0,0)"/>
<path style="stroke: none; fill-rule: nonzero; fill: rgb(0%,0%,0%); opacity: 1;" d="M 411.657837 33.153854 C 415.477432 34.831573 417.201035 39.067886 417.528427 42.983093 C 417.807373 46.898056 417.668991 50.82724 417.707703 54.749268 C 417.348206 54.765717 416.629227 54.798615 416.269745 54.815063 C 416.171722 50.524612 416.453476 46.20842 415.90506 41.940964 C 415.438431 38.631073 413.092255 36.060776 411.657837 33.153854 Z M 411.657837 33.153854 "/>
<path style="fill: none; stroke-width: 0.1; stroke-linecap: butt; stroke-linejoin: miter; stroke: rgb(0%,0%,0%); opacity: 1;stroke-miterlimit: 10;" d="M 53.284531 35.386612 C 57.533569 33.412186 62.799133 37.500259 61.901657 42.105637 C 61.434006 46.711075 55.304977 49.158569 51.793747 46.115463 C 48.104416 43.407852 48.994461 36.979401 53.284531 35.386612 Z M 53.284531 35.386612 " transform="matrix(1,0,0,1,0,0)"/>
<path style="stroke: none; fill-rule: nonzero; fill: rgb(0%,0%,0%); opacity: 1;" d="M 53.284531 35.386612 C 57.533569 33.412186 62.799133 37.500259 61.901657 42.105637 C 61.434006 46.711075 55.304977 49.158569 51.793747 46.115463 C 48.104416 43.407852 48.994461 36.979401 53.284531 35.386612 Z M 53.284531 35.386612 "/>
<path style="fill: none; stroke-width: 0.1; stroke-linecap: butt; stroke-linejoin: miter; stroke: rgb(0%,0%,0%); opacity: 1;stroke-miterlimit: 10;" d="M 97.386459 35.456573 C 101.637466 33.334412 107.03334 37.424957 106.139709 42.08699 C 105.678299 46.732025 99.475403 49.180481 95.981339 46.056351 C 92.365799 43.375473 93.214905 37.112473 97.386459 35.456573 Z M 97.386459 35.456573 " transform="matrix(1,0,0,1,0,0)"/>
<path style="stroke: none; fill-rule: nonzero; fill: rgb(0%,0%,0%); opacity: 1;" d="M 97.386459 35.456573 C 101.637466 33.334412 107.03334 37.424957 106.139709 42.08699 C 105.678299 46.732025 99.475403 49.180481 95.981339 46.056351 C 92.365799 43.375473 93.214905 37.112473 97.386459 35.456573 Z M 97.386459 35.456573 "/>
<path style="fill: none; stroke-width: 0.1; stroke-linecap: butt; stroke-linejoin: miter; stroke: rgb(0%,0%,0%); opacity: 1;stroke-miterlimit: 10;" d="M 114.829346 55.691238 C 116.818069 48.841507 113.698471 41.173859 116.51091 34.525726 C 117.130356 39.678055 116.787628 44.876678 116.896927 50.051514 C 116.821991 52.710831 117.204224 55.950455 114.882828 57.840256 C 113.412659 59.391083 111.190094 59.337357 109.259705 58.969299 C 111.069504 57.874985 113.551743 57.517609 114.829346 55.691238 Z M 114.829346 55.691238 " transform="matrix(1,0,0,1,0,0)"/>
<path style="stroke: none; fill-rule: nonzero; fill: rgb(0%,0%,0%); opacity: 1;" d="M 114.829346 55.691238 C 116.818069 48.841507 113.698471 41.173859 116.51091 34.525726 C 117.130356 39.678055 116.787628 44.876678 116.896927 50.051514 C 116.821991 52.710831 117.204224 55.950455 114.882828 57.840256 C 113.412659 59.391083 111.190094 59.337357 109.259705 58.969299 C 111.069504 57.874985 113.551743 57.517609 114.829346 55.691238 Z M 114.829346 55.691238 "/>
<path style="fill: none; stroke-width: 0.1; stroke-linecap: butt; stroke-linejoin: miter; stroke: rgb(100%,100%,100%); opacity: 1;stroke-miterlimit: 10;" d="M 225.279312 39.253265 C 228.384613 38.509674 230.231628 35.635361 231.392151 32.878006 C 231.152969 38.868774 231.199265 44.870697 231.373779 50.862991 C 230.392212 48.062302 228.879013 45.257675 226.187668 43.78183 C 222.44223 41.503479 217.92807 42.867477 213.832199 42.26062 C 213.834091 41.654678 213.837845 40.44278 213.839737 39.836838 C 217.631119 39.300598 221.527481 40.100754 225.279312 39.253265 Z M 225.279312 39.253265 " transform="matrix(1,0,0,1,0,0)"/>
<path style="stroke: none; fill-rule: nonzero; fill: rgb(100%,100%,100%); opacity: 1;" d="M 225.279312 39.253265 C 228.384613 38.509674 230.231628 35.635361 231.392151 32.878006 C 231.152969 38.868774 231.199265 44.870697 231.373779 50.862991 C 230.392212 48.062302 228.879013 45.257675 226.187668 43.78183 C 222.44223 41.503479 217.92807 42.867477 213.832199 42.26062 C 213.834091 41.654678 213.837845 40.44278 213.839737 39.836838 C 217.631119 39.300598 221.527481 40.100754 225.279312 39.253265 Z M 225.279312 39.253265 "/>
<path style="fill: none; stroke-width: 0.1; stroke-linecap: butt; stroke-linejoin: miter; stroke: rgb(100%,100%,100%); opacity: 1;stroke-miterlimit: 10;" d="M 374.581436 40.427582 C 378.343124 39.770966 381.031723 36.236862 381.442734 32.536575 C 381.132385 39.232224 381.171082 45.946289 381.418716 52.643707 C 380.789291 48.959091 378.405121 45.522964 374.880661 44.13974 C 371.345413 42.776382 367.493317 43.805313 363.834885 43.262329 C 363.835175 42.656372 363.835724 41.444443 363.836014 40.838486 C 367.400513 40.377014 371.019333 40.93306 374.581436 40.427582 Z M 374.581436 40.427582 " transform="matrix(1,0,0,1,0,0)"/>
<path style="stroke: none; fill-rule: nonzero; fill: rgb(100%,100%,100%); opacity: 1;" d="M 374.581436 40.427582 C 378.343124 39.770966 381.031723 36.236862 381.442734 32.536575 C 381.132385 39.232224 381.171082 45.946289 381.418716 52.643707 C 380.789291 48.959091 378.405121 45.522964 374.880661 44.13974 C 371.345413 42.776382 367.493317 43.805313 363.834885 43.262329 C 363.835175 42.656372 363.835724 41.444443 363.836014 40.838486 C 367.400513 40.377014 371.019333 40.93306 374.581436 40.427582 Z M 374.581436 40.427582 "/>
<path style="fill: none; stroke-width: 0.1; stroke-linecap: butt; stroke-linejoin: miter; stroke: rgb(100%,100%,100%); opacity: 1;stroke-miterlimit: 10;" d="M 318.455414 37.032684 C 319.438156 37.020142 320.42511 37.009781 321.416245 37.001587 C 321.360092 38.407364 321.309845 39.813889 321.252029 41.220322 C 320.384369 41.244949 319.520218 41.267395 318.659561 41.287674 C 318.573639 39.869705 318.507019 38.450836 318.455414 37.032684 Z M 318.455414 37.032684 " transform="matrix(1,0,0,1,0,0)"/>
<path style="stroke: none; fill-rule: nonzero; fill: rgb(100%,100%,100%); opacity: 1;" d="M 318.455414 37.032684 C 319.438156 37.020142 320.42511 37.009781 321.416245 37.001587 C 321.360092 38.407364 321.309845 39.813889 321.252029 41.220322 C 320.384369 41.244949 319.520218 41.267395 318.659561 41.287674 C 318.573639 39.869705 318.507019 38.450836 318.455414 37.032684 Z M 318.455414 37.032684 "/>
<path style="fill: none; stroke-width: 0.1; stroke-linecap: butt; stroke-linejoin: miter; stroke: rgb(100%,100%,100%); opacity: 1;stroke-miterlimit: 10;" d="M 98.413101 38.446976 C 101.614853 36.203857 104.97406 41.663345 101.595322 43.538681 C 98.403564 45.817871 95.007446 40.328644 98.413101 38.446976 Z M 98.413101 38.446976 " transform="matrix(1,0,0,1,0,0)"/>
<path style="stroke: none; fill-rule: nonzero; fill: rgb(100%,100%,100%); opacity: 1;" d="M 98.413101 38.446976 C 101.614853 36.203857 104.97406 41.663345 101.595322 43.538681 C 98.403564 45.817871 95.007446 40.328644 98.413101 38.446976 Z M 98.413101 38.446976 "/>
<path style="fill: none; stroke-width: 0.1; stroke-linecap: butt; stroke-linejoin: miter; stroke: rgb(100%,100%,100%); opacity: 1;stroke-miterlimit: 10;" d="M 54.318146 39.323105 C 57.05043 37.526993 59.661057 42.3927 56.665115 43.684189 C 53.936127 45.436035 51.363525 40.638519 54.318146 39.323105 Z M 54.318146 39.323105 " transform="matrix(1,0,0,1,0,0)"/>
<path style="stroke: none; fill-rule: nonzero; fill: rgb(100%,100%,100%); opacity: 1;" d="M 54.318146 39.323105 C 57.05043 37.526993 59.661057 42.3927 56.665115 43.684189 C 53.936127 45.436035 51.363525 40.638519 54.318146 39.323105 Z M 54.318146 39.323105 "/>
<path style="fill: none; stroke-width: 0.1; stroke-linecap: butt; stroke-linejoin: miter; stroke: rgb(0%,0%,0%); opacity: 1;stroke-miterlimit: 10;" d="M 43.9888 41.996582 C 45.867722 45.543121 45.985199 50.034927 49.105942 52.875961 C 51.900162 56.079315 56.301254 56.590179 60.133469 57.734436 C 51.273407 60.262207 42.58226 50.682693 43.9888 41.996582 Z M 43.9888 41.996582 " transform="matrix(1,0,0,1,0,0)"/>
<path style="stroke: none; fill-rule: nonzero; fill: rgb(0%,0%,0%); opacity: 1;" d="M 43.9888 41.996582 C 45.867722 45.543121 45.985199 50.034927 49.105942 52.875961 C 51.900162 56.079315 56.301254 56.590179 60.133469 57.734436 C 51.273407 60.262207 42.58226 50.682693 43.9888 41.996582 Z M 43.9888 41.996582 "/>
<path style="fill: none; stroke-width: 0.1; stroke-linecap: butt; stroke-linejoin: miter; stroke: rgb(0%,0%,0%); opacity: 1;stroke-miterlimit: 10;" d="M 330.988647 42.288925 C 332.81897 48.533234 328.169327 55.317444 322.298904 57.408005 C 323.925827 55.054764 326.266479 53.331848 327.97644 51.05011 C 329.753723 48.452484 329.978363 45.197678 330.988647 42.288925 Z M 330.988647 42.288925 " transform="matrix(1,0,0,1,0,0)"/>
<path style="stroke: none; fill-rule: nonzero; fill: rgb(0%,0%,0%); opacity: 1;" d="M 330.988647 42.288925 C 332.81897 48.533234 328.169327 55.317444 322.298904 57.408005 C 323.925827 55.054764 326.266479 53.331848 327.97644 51.05011 C 329.753723 48.452484 329.978363 45.197678 330.988647 42.288925 Z M 330.988647 42.288925 "/>
<path style="fill: none; stroke-width: 0.1; stroke-linecap: butt; stroke-linejoin: miter; stroke: rgb(0%,0%,0%); opacity: 1;stroke-miterlimit: 10;" d="M 103.129059 59.973587 C 94.366684 61.043594 84.950165 52.462357 87.510406 43.477768 C 88.634796 47.611588 89.233505 52.351105 92.854004 55.180542 C 95.600098 58.116959 100.046555 57.637955 103.129059 59.973587 Z M 103.129059 59.973587 " transform="matrix(1,0,0,1,0,0)"/>
<path style="stroke: none; fill-rule: nonzero; fill: rgb(0%,0%,0%); opacity: 1;" d="M 103.129059 59.973587 C 94.366684 61.043594 84.950165 52.462357 87.510406 43.477768 C 88.634796 47.611588 89.233505 52.351105 92.854004 55.180542 C 95.600098 58.116959 100.046555 57.637955 103.129059 59.973587 Z M 103.129059 59.973587 "/>
<path style="fill: none; stroke-width: 0.1; stroke-linecap: butt; stroke-linejoin: miter; stroke: rgb(0%,0%,0%); opacity: 1;stroke-miterlimit: 10;" d="M 194.982056 42.713715 C 196.755295 46.378281 196.979645 50.934692 200.195236 53.786972 C 205.289215 59.07843 213.332245 57.798294 219.943756 57.537811 C 223.779007 56.807678 222.858322 52.052856 224.542175 49.401184 C 225.144119 52.84729 224.904999 57.620865 220.871994 58.814926 C 216.62114 59.53035 212.251007 59.264053 207.965073 59.039795 C 200.132675 58.43425 193.708298 50.551498 194.982056 42.713715 Z M 194.982056 42.713715 " transform="matrix(1,0,0,1,0,0)"/>
<path style="stroke: none; fill-rule: nonzero; fill: rgb(0%,0%,0%); opacity: 1;" d="M 194.982056 42.713715 C 196.755295 46.378281 196.979645 50.934692 200.195236 53.786972 C 205.289215 59.07843 213.332245 57.798294 219.943756 57.537811 C 223.779007 56.807678 222.858322 52.052856 224.542175 49.401184 C 225.144119 52.84729 224.904999 57.620865 220.871994 58.814926 C 216.62114 59.53035 212.251007 59.264053 207.965073 59.039795 C 200.132675 58.43425 193.708298 50.551498 194.982056 42.713715 Z M 194.982056 42.713715 "/>
<path style="fill: none; stroke-width: 0.1; stroke-linecap: butt; stroke-linejoin: miter; stroke: rgb(0%,0%,0%); opacity: 1;stroke-miterlimit: 10;" d="M 344.993622 43.682907 C 346.774261 47.615402 347.117798 52.483932 350.768387 55.322144 C 355.644699 59.887131 362.868988 58.715759 368.968002 58.665009 C 373.60817 58.759293 372.879929 53.319305 374.528458 50.390747 C 375.148636 53.825348 374.908142 58.587753 370.907791 59.803177 C 366.634552 60.542908 362.235886 60.260071 357.926743 60.03511 C 350.103638 59.409378 343.683701 51.516052 344.993622 43.682907 Z M 344.993622 43.682907 " transform="matrix(1,0,0,1,0,0)"/>
<path style="stroke: none; fill-rule: nonzero; fill: rgb(0%,0%,0%); opacity: 1;" d="M 344.993622 43.682907 C 346.774261 47.615402 347.117798 52.483932 350.768387 55.322144 C 355.644699 59.887131 362.868988 58.715759 368.968002 58.665009 C 373.60817 58.759293 372.879929 53.319305 374.528458 50.390747 C 375.148636 53.825348 374.908142 58.587753 370.907791 59.803177 C 366.634552 60.542908 362.235886 60.260071 357.926743 60.03511 C 350.103638 59.409378 343.683701 51.516052 344.993622 43.682907 Z M 344.993622 43.682907 "/>
<path style="fill: none; stroke-width: 0.1; stroke-linecap: butt; stroke-linejoin: miter; stroke: rgb(0%,0%,0%); opacity: 1;stroke-miterlimit: 10;" d="M 174.704605 57.515045 C 179.105453 56.626572 179.898544 51.75386 181.771744 48.423798 C 182.218307 52.485672 180.321075 56.813095 176.427032 58.460464 C 172.764725 59.784836 168.773956 59.120026 164.965088 59.294846 C 161.569946 59.14769 157.936737 59.855774 154.808517 58.178314 C 161.41069 57.276672 168.112 58.389618 174.704605 57.515045 Z M 174.704605 57.515045 " transform="matrix(1,0,0,1,0,0)"/>
<path style="stroke: none; fill-rule: nonzero; fill: rgb(0%,0%,0%); opacity: 1;" d="M 174.704605 57.515045 C 179.105453 56.626572 179.898544 51.75386 181.771744 48.423798 C 182.218307 52.485672 180.321075 56.813095 176.427032 58.460464 C 172.764725 59.784836 168.773956 59.120026 164.965088 59.294846 C 161.569946 59.14769 157.936737 59.855774 154.808517 58.178314 C 161.41069 57.276672 168.112 58.389618 174.704605 57.515045 Z M 174.704605 57.515045 "/>
<path style="fill: none; stroke-width: 0.1; stroke-linecap: butt; stroke-linejoin: miter; stroke: rgb(0%,0%,0%); opacity: 1;stroke-miterlimit: 10;" d="M 248.004761 69.883972 C 247.621246 64.544342 256.208939 63.639267 258.227707 67.888 C 258.720123 69.535995 258.513153 71.291763 258.615402 72.989349 C 260.962753 73.056076 263.370895 72.784164 265.680817 73.33847 C 267.997543 74.401794 268.031647 77.867233 265.793793 79.050552 C 263.391113 79.598709 260.901718 79.329819 258.463074 79.41095 C 258.636459 82.024033 257.771866 85.989212 261.141693 86.905533 C 264.139954 87.593491 265.154037 84.628769 265.770416 82.364319 C 266.448349 79.334854 271.468735 80.147659 271.594894 83.11319 C 271.848831 86.902283 271.713654 91.100739 269.294067 94.244263 C 266.954697 97.502975 262.869919 99.335327 258.879013 98.938065 C 253.280319 98.667191 248.30603 93.768066 248.062897 88.149399 C 247.866333 82.065567 247.959991 75.970001 248.004761 69.883972 Z M 248.004761 69.883972 " transform="matrix(1,0,0,1,0,0)"/>
<path style="stroke: none; fill-rule: nonzero; fill: rgb(0%,0%,0%); opacity: 1;" d="M 248.004761 69.883972 C 247.621246 64.544342 256.208939 63.639267 258.227707 67.888 C 258.720123 69.535995 258.513153 71.291763 258.615402 72.989349 C 260.962753 73.056076 263.370895 72.784164 265.680817 73.33847 C 267.997543 74.401794 268.031647 77.867233 265.793793 79.050552 C 263.391113 79.598709 260.901718 79.329819 258.463074 79.41095 C 258.636459 82.024033 257.771866 85.989212 261.141693 86.905533 C 264.139954 87.593491 265.154037 84.628769 265.770416 82.364319 C 266.448349 79.334854 271.468735 80.147659 271.594894 83.11319 C 271.848831 86.902283 271.713654 91.100739 269.294067 94.244263 C 266.954697 97.502975 262.869919 99.335327 258.879013 98.938065 C 253.280319 98.667191 248.30603 93.768066 248.062897 88.149399 C 247.866333 82.065567 247.959991 75.970001 248.004761 69.883972 Z M 248.004761 69.883972 "/>
<path style="fill: none; stroke-width: 0.1; stroke-linecap: butt; stroke-linejoin: miter; stroke: rgb(0%,0%,0%); opacity: 1;stroke-miterlimit: 10;" d="M 376.006699 69.88681 C 375.612457 64.343582 385.006104 63.551483 386.383835 68.470444 C 386.816635 71.276215 386.357742 74.138199 386.742462 76.95166 C 387.130646 79.828568 391.768097 80.480972 392.890823 77.75766 C 393.37236 76.176773 393.41008 74.493469 393.940292 72.925354 C 395.225357 70.960632 398.555222 71.280029 399.400009 73.48111 C 400.250961 77.833374 399.678787 82.556229 397.160217 86.295898 C 398.851334 89.104568 400.477036 92.561066 399.255096 95.859177 C 398.011734 98.953888 393.656143 100.041016 391.140381 97.840881 C 389.055008 96.204193 389.478897 93.271103 388.699036 91.006653 C 387.54422 90.410034 386.429504 90.443039 385.354889 91.105698 C 384.654938 93.429398 385.457397 96.54184 383.200836 98.145355 C 380.676239 100.193115 376.115723 98.515411 376.053726 95.112259 C 375.874954 86.708557 375.964355 78.292664 376.006699 69.88681 Z M 376.006699 69.88681 " transform="matrix(1,0,0,1,0,0)"/>
<path style="stroke: none; fill-rule: nonzero; fill: rgb(0%,0%,0%); opacity: 1;" d="M 376.006699 69.88681 C 375.612457 64.343582 385.006104 63.551483 386.383835 68.470444 C 386.816635 71.276215 386.357742 74.138199 386.742462 76.95166 C 387.130646 79.828568 391.768097 80.480972 392.890823 77.75766 C 393.37236 76.176773 393.41008 74.493469 393.940292 72.925354 C 395.225357 70.960632 398.555222 71.280029 399.400009 73.48111 C 400.250961 77.833374 399.678787 82.556229 397.160217 86.295898 C 398.851334 89.104568 400.477036 92.561066 399.255096 95.859177 C 398.011734 98.953888 393.656143 100.041016 391.140381 97.840881 C 389.055008 96.204193 389.478897 93.271103 388.699036 91.006653 C 387.54422 90.410034 386.429504 90.443039 385.354889 91.105698 C 384.654938 93.429398 385.457397 96.54184 383.200836 98.145355 C 380.676239 100.193115 376.115723 98.515411 376.053726 95.112259 C 375.874954 86.708557 375.964355 78.292664 376.006699 69.88681 Z M 376.006699 69.88681 "/>
<path style="fill: none; stroke-width: 0.1; stroke-linecap: butt; stroke-linejoin: miter; stroke: rgb(0%,0%,0%); opacity: 1;stroke-miterlimit: 10;" d="M 202.252243 76.378281 C 204.647644 75.422165 207.334595 76.921341 209.838272 76.117355 C 215.439087 74.789139 221.347046 78.544754 223.051208 83.919098 C 224.08754 87.872009 223.688202 92.045471 223.603088 96.088074 C 223.67244 99.184036 218.978989 100.041931 217.725128 97.31459 C 217.046524 94.604477 217.667114 91.759079 217.160217 89.022629 C 216.183685 86.698486 212.693985 86.212952 211.264069 88.341248 C 209.52005 91.368164 212.068298 96.116592 208.566956 98.32843 C 205.824951 99.725052 201.132019 99.415527 200.162476 95.916855 C 199.741089 90.932159 200.026794 85.908051 199.984756 80.908936 C 199.836121 79.114288 200.576584 77.212982 202.252243 76.378281 Z M 202.252243 76.378281 " transform="matrix(1,0,0,1,0,0)"/>
<path style="stroke: none; fill-rule: nonzero; fill: rgb(0%,0%,0%); opacity: 1;" d="M 202.252243 76.378281 C 204.647644 75.422165 207.334595 76.921341 209.838272 76.117355 C 215.439087 74.789139 221.347046 78.544754 223.051208 83.919098 C 224.08754 87.872009 223.688202 92.045471 223.603088 96.088074 C 223.67244 99.184036 218.978989 100.041931 217.725128 97.31459 C 217.046524 94.604477 217.667114 91.759079 217.160217 89.022629 C 216.183685 86.698486 212.693985 86.212952 211.264069 88.341248 C 209.52005 91.368164 212.068298 96.116592 208.566956 98.32843 C 205.824951 99.725052 201.132019 99.415527 200.162476 95.916855 C 199.741089 90.932159 200.026794 85.908051 199.984756 80.908936 C 199.836121 79.114288 200.576584 77.212982 202.252243 76.378281 Z M 202.252243 76.378281 "/>
<path style="fill: none; stroke-width: 0.1; stroke-linecap: butt; stroke-linejoin: miter; stroke: rgb(0%,0%,0%); opacity: 1;stroke-miterlimit: 10;" d="M 232.373795 76.608627 C 236.524155 75.486206 242.328171 74.852783 245.103043 78.947372 C 248.140442 82.980164 245.228378 89.75325 240.066437 89.892334 C 238.064697 90.050812 234.172363 89.633026 235.896622 92.757492 C 239.236969 93.603714 245.463806 91.066788 246.21048 95.978287 C 245.673721 100.479279 240.058502 98.748077 236.983704 99.041611 C 230.869781 99.420715 225.119003 94.235275 225.014069 88.090607 C 224.584381 83.171829 227.781372 78.319244 232.373795 76.608627 Z M 232.373795 76.608627 " transform="matrix(1,0,0,1,0,0)"/>
<path style="stroke: none; fill-rule: nonzero; fill: rgb(0%,0%,0%); opacity: 1;" d="M 232.373795 76.608627 C 236.524155 75.486206 242.328171 74.852783 245.103043 78.947372 C 248.140442 82.980164 245.228378 89.75325 240.066437 89.892334 C 238.064697 90.050812 234.172363 89.633026 235.896622 92.757492 C 239.236969 93.603714 245.463806 91.066788 246.21048 95.978287 C 245.673721 100.479279 240.058502 98.748077 236.983704 99.041611 C 230.869781 99.420715 225.119003 94.235275 225.014069 88.090607 C 224.584381 83.171829 227.781372 78.319244 232.373795 76.608627 Z M 232.373795 76.608627 "/>
<path style="fill: none; stroke-width: 0.1; stroke-linecap: butt; stroke-linejoin: miter; stroke: rgb(0%,0%,0%); opacity: 1;stroke-miterlimit: 10;" d="M 288.055191 78.86467 C 287.890961 76.258194 291.52597 74.875626 293.253342 76.744629 C 295.363174 79.353439 293.300034 83.228302 294.912292 86.062805 C 296.566422 88.610764 301.380005 87.286545 300.993179 84.116592 C 301.380112 81.3405 299.932968 76.277847 304.052597 75.902313 C 310.777161 76.258026 303.881454 87.354431 310.997574 87.407059 C 316.809555 86.623001 311.830872 78.691849 316.315186 76.417755 C 319.334732 74.95462 324.610657 75.813583 324.716736 79.92691 C 324.714783 85.187683 325.652542 91.370575 321.682083 95.557999 C 317.977264 100.01973 311.24762 100.447937 306.379181 97.723709 C 301.565002 100.394196 294.976242 100.04628 291.201401 95.762314 C 286.761978 91.30983 288.083878 84.527252 288.055191 78.86467 Z M 288.055191 78.86467 " transform="matrix(1,0,0,1,0,0)"/>
<path style="stroke: none; fill-rule: nonzero; fill: rgb(0%,0%,0%); opacity: 1;" d="M 288.055191 78.86467 C 287.890961 76.258194 291.52597 74.875626 293.253342 76.744629 C 295.363174 79.353439 293.300034 83.228302 294.912292 86.062805 C 296.566422 88.610764 301.380005 87.286545 300.993179 84.116592 C 301.380112 81.3405 299.932968 76.277847 304.052597 75.902313 C 310.777161 76.258026 303.881454 87.354431 310.997574 87.407059 C 316.809555 86.623001 311.830872 78.691849 316.315186 76.417755 C 319.334732 74.95462 324.610657 75.813583 324.716736 79.92691 C 324.714783 85.187683 325.652542 91.370575 321.682083 95.557999 C 317.977264 100.01973 311.24762 100.447937 306.379181 97.723709 C 301.565002 100.394196 294.976242 100.04628 291.201401 95.762314 C 286.761978 91.30983 288.083878 84.527252 288.055191 78.86467 Z M 288.055191 78.86467 "/>
<path style="fill: none; stroke-width: 0.1; stroke-linecap: butt; stroke-linejoin: miter; stroke: rgb(0%,0%,0%); opacity: 1;stroke-miterlimit: 10;" d="M 335.272369 76.168335 C 342.113556 74.354675 349.646912 79.892197 349.779312 86.993652 C 350.436569 93.898697 343.926666 100.306168 337.020309 99.468887 C 330.069214 99.200974 324.746704 91.83136 326.435272 85.125397 C 327.322098 80.7724 330.931747 77.117004 335.272369 76.168335 Z M 335.272369 76.168335 " transform="matrix(1,0,0,1,0,0)"/>
<path style="stroke: none; fill-rule: nonzero; fill: rgb(0%,0%,0%); opacity: 1;" d="M 335.272369 76.168335 C 342.113556 74.354675 349.646912 79.892197 349.779312 86.993652 C 350.436569 93.898697 343.926666 100.306168 337.020309 99.468887 C 330.069214 99.200974 324.746704 91.83136 326.435272 85.125397 C 327.322098 80.7724 330.931747 77.117004 335.272369 76.168335 Z M 335.272369 76.168335 "/>
<path style="fill: none; stroke-width: 0.1; stroke-linecap: butt; stroke-linejoin: miter; stroke: rgb(0%,0%,0%); opacity: 1;stroke-miterlimit: 10;" d="M 353.331192 76.328644 C 355.385483 75.469376 357.649582 76.76976 359.791077 76.247986 C 363.456543 75.432449 367.559845 75.964294 370.413422 78.577866 C 374.22258 81.630585 375.30545 86.926392 374.488373 91.542221 C 374.094009 92.9552 372.484543 93.956375 371.052307 93.603439 C 367.300095 93.17395 369.284302 86.728912 365.03302 86.970779 C 358.759933 87.506958 364.000595 95.910904 359.488052 98.379486 C 356.741791 99.691254 352.157959 99.39801 351.168579 95.949295 C 350.732025 90.959991 351.030823 85.929077 350.983719 80.924362 C 350.827988 79.09111 351.604065 77.154785 353.331192 76.328644 Z M 353.331192 76.328644 " transform="matrix(1,0,0,1,0,0)"/>
<path style="stroke: none; fill-rule: nonzero; fill: rgb(0%,0%,0%); opacity: 1;" d="M 353.331192 76.328644 C 355.385483 75.469376 357.649582 76.76976 359.791077 76.247986 C 363.456543 75.432449 367.559845 75.964294 370.413422 78.577866 C 374.22258 81.630585 375.30545 86.926392 374.488373 91.542221 C 374.094009 92.9552 372.484543 93.956375 371.052307 93.603439 C 367.300095 93.17395 369.284302 86.728912 365.03302 86.970779 C 358.759933 87.506958 364.000595 95.910904 359.488052 98.379486 C 356.741791 99.691254 352.157959 99.39801 351.168579 95.949295 C 350.732025 90.959991 351.030823 85.929077 350.983719 80.924362 C 350.827988 79.09111 351.604065 77.154785 353.331192 76.328644 Z M 353.331192 76.328644 "/>
<path style="fill: none; stroke-width: 0.1; stroke-linecap: butt; stroke-linejoin: miter; stroke: rgb(0%,0%,0%); opacity: 1;stroke-miterlimit: 10;" d="M 405.412857 76.373932 C 410.506683 75.307983 415.827072 76.046295 421.013107 75.884262 C 423.491501 75.389648 425.76532 78.205261 424.426529 80.453247 C 422.646255 84.262711 415.526215 79.659103 415.195114 84.153046 C 417.994781 85.157364 421.610138 84.815979 423.404907 87.683197 C 426.617584 91.538559 424.028412 98.151108 419.075333 98.839203 C 414.002151 99.153397 408.896072 99.041718 403.819778 98.912766 C 401.015823 98.950104 399.953918 94.80217 402.293274 93.363617 C 404.58963 92.292175 407.320328 93.199036 409.675781 92.216354 C 409.480545 89.027084 405.252945 90.455704 403.546814 88.472534 C 399.405487 85.341919 400.544312 78.134781 405.412857 76.373932 Z M 405.412857 76.373932 " transform="matrix(1,0,0,1,0,0)"/>
<path style="stroke: none; fill-rule: nonzero; fill: rgb(0%,0%,0%); opacity: 1;" d="M 405.412857 76.373932 C 410.506683 75.307983 415.827072 76.046295 421.013107 75.884262 C 423.491501 75.389648 425.76532 78.205261 424.426529 80.453247 C 422.646255 84.262711 415.526215 79.659103 415.195114 84.153046 C 417.994781 85.157364 421.610138 84.815979 423.404907 87.683197 C 426.617584 91.538559 424.028412 98.151108 419.075333 98.839203 C 414.002151 99.153397 408.896072 99.041718 403.819778 98.912766 C 401.015823 98.950104 399.953918 94.80217 402.293274 93.363617 C 404.58963 92.292175 407.320328 93.199036 409.675781 92.216354 C 409.480545 89.027084 405.252945 90.455704 403.546814 88.472534 C 399.405487 85.341919 400.544312 78.134781 405.412857 76.373932 Z M 405.412857 76.373932 "/>
<path style="fill: none; stroke-width: 0.1; stroke-linecap: butt; stroke-linejoin: miter; stroke: rgb(100%,100%,100%); opacity: 1;stroke-miterlimit: 10;" d="M 235.7453 78.698486 C 236.764694 79.279663 237.407257 80.280197 238.240356 81.081909 C 239.881226 81.15744 241.331985 82.751312 240.090546 84.238327 C 239.005219 84.324677 237.921051 84.336121 236.838043 84.27269 L 237.8022 82.69957 C 236.651932 81.970032 235.321335 82.158737 234.178299 82.776489 L 236.256699 82.711227 C 237.369339 85.38092 235.008926 88.715652 232.124161 87.305344 C 228.821671 85.915115 230.776138 80.521484 234.261963 81.741959 C 234.768082 80.733673 235.262527 79.719177 235.7453 78.698486 Z M 235.7453 78.698486 " transform="matrix(1,0,0,1,0,0)"/>
<path style="stroke: none; fill-rule: nonzero; fill: rgb(100%,100%,100%); opacity: 1;" d="M 235.7453 78.698486 C 236.764694 79.279663 237.407257 80.280197 238.240356 81.081909 C 239.881226 81.15744 241.331985 82.751312 240.090546 84.238327 C 239.005219 84.324677 237.921051 84.336121 236.838043 84.27269 L 237.8022 82.69957 C 236.651932 81.970032 235.321335 82.158737 234.178299 82.776489 L 236.256699 82.711227 C 237.369339 85.38092 235.008926 88.715652 232.124161 87.305344 C 228.821671 85.915115 230.776138 80.521484 234.261963 81.741959 C 234.768082 80.733673 235.262527 79.719177 235.7453 78.698486 Z M 235.7453 78.698486 "/>
<path style="fill: none; stroke-width: 0.1; stroke-linecap: butt; stroke-linejoin: miter; stroke: rgb(0%,0%,0%); opacity: 1;stroke-miterlimit: 10;" d="M 273.48085 82.951706 C 275.810959 82.456253 277.998199 81.508224 279.880707 80.032562 C 280.989731 82.167236 282.595566 83.944687 284.60556 85.275284 C 282.930969 86.963882 281.744461 89.01268 281.084427 91.295242 C 278.907776 90.283615 276.565201 89.832169 274.173065 89.921799 C 274.525818 87.556564 274.28566 85.200821 273.48085 82.951706 Z M 273.48085 82.951706 " transform="matrix(1,0,0,1,0,0)"/>
<path style="stroke: none; fill-rule: nonzero; fill: rgb(0%,0%,0%); opacity: 1;" d="M 273.48085 82.951706 C 275.810959 82.456253 277.998199 81.508224 279.880707 80.032562 C 280.989731 82.167236 282.595566 83.944687 284.60556 85.275284 C 282.930969 86.963882 281.744461 89.01268 281.084427 91.295242 C 278.907776 90.283615 276.565201 89.832169 274.173065 89.921799 C 274.525818 87.556564 274.28566 85.200821 273.48085 82.951706 Z M 273.48085 82.951706 "/>
<path style="fill: none; stroke-width: 0.1; stroke-linecap: butt; stroke-linejoin: miter; stroke: rgb(100%,100%,100%); opacity: 1;stroke-miterlimit: 10;" d="M 338.318436 89.51944 C 339.046982 88.225098 339.233307 86.358139 340.94809 85.974915 C 341.315079 86.481293 342.049042 87.494064 342.416016 88.000443 C 341.567444 89.015793 340.58429 89.898819 339.690262 90.867035 C 341.788879 94.382263 336.86203 97.696136 334.227188 94.973099 C 331.633652 92.37735 334.917175 87.616943 338.318436 89.51944 Z M 338.318436 89.51944 " transform="matrix(1,0,0,1,0,0)"/>
<path style="stroke: none; fill-rule: nonzero; fill: rgb(100%,100%,100%); opacity: 1;" d="M 338.318436 89.51944 C 339.046982 88.225098 339.233307 86.358139 340.94809 85.974915 C 341.315079 86.481293 342.049042 87.494064 342.416016 88.000443 C 341.567444 89.015793 340.58429 89.898819 339.690262 90.867035 C 341.788879 94.382263 336.86203 97.696136 334.227188 94.973099 C 331.633652 92.37735 334.917175 87.616943 338.318436 89.51944 Z M 338.318436 89.51944 "/>
<path style="fill: none; stroke-width: 0.1; stroke-linecap: butt; stroke-linejoin: miter; stroke: rgb(100%,100%,100%); opacity: 1;stroke-miterlimit: 10;" d="M 342.494278 91.622971 C 342.948761 91.61293 343.857727 91.59288 344.31221 91.582855 C 344.320328 92.039505 344.336594 92.952805 344.344727 93.409454 C 343.89032 93.41716 342.981506 93.432571 342.5271 93.440277 C 342.51889 92.985947 342.502487 92.077286 342.494278 91.622971 Z M 342.494278 91.622971 " transform="matrix(1,0,0,1,0,0)"/>
<path style="stroke: none; fill-rule: nonzero; fill: rgb(100%,100%,100%); opacity: 1;" d="M 342.494278 91.622971 C 342.948761 91.61293 343.857727 91.59288 344.31221 91.582855 C 344.320328 92.039505 344.336594 92.952805 344.344727 93.409454 C 343.89032 93.41716 342.981506 93.432571 342.5271 93.440277 C 342.51889 92.985947 342.502487 92.077286 342.494278 91.622971 Z M 342.494278 91.622971 "/>
</g>
</svg>
