<?xml version="1.0" encoding="UTF-8" standalone="no"?>
<!-- Created with Inkscape (http://www.inkscape.org/) -->
<svg id="svg3100" xmlns:rdf="http://www.w3.org/1999/02/22-rdf-syntax-ns#" xmlns="http://www.w3.org/2000/svg" height="32" width="224" version="1.1" xmlns:cc="http://creativecommons.org/ns#" xmlns:dc="http://purl.org/dc/elements/1.1/">
	<metadata id="metadata3105">
		<rdf:RDF>
			<cc:Work rdf:about="">
				<dc:format>image/svg+xml</dc:format>
				<dc:type rdf:resource="http://purl.org/dc/dcmitype/StillImage"/>
				<dc:title/>
			</cc:Work>
		</rdf:RDF>
	</metadata>
<g>
    <path
       
       style="fill:#ffffff"
       d="m 9.3659759,28.053021 -5.3501813,0 0,-16.848383 5.3501813,0 z M 6.6908863,8.7977239 c -1.4775236,0 -2.6750917,-1.0775112 -2.6750917,-2.4069112 0,-1.3294005 1.1975681,-2.4069144 2.6750917,-2.4069144 1.4775226,0 2.6750896,1.0775139 2.6750896,2.4069144 0,1.3294 -1.197567,2.4069112 -2.6750896,2.4069112 z m 21.4007347,19.2552971 -5.350186,0 0,-9.627647 c 0,-1.329405 -1.197566,-2.406915 -2.675091,-2.406915 -1.477523,0 -2.675091,1.07751 -2.675091,2.406915 l 0,9.627647 -5.350185,0 0,-16.848383 5.350185,0 0,2.988889 c 1.103229,-1.363586 2.790393,-2.988889 4.681522,-2.988889 3.324534,0 6.019282,2.694167 6.019282,6.017081 l -4.36e-4,10.831302 z" />
    <path
       transform="translate(32.156074,-36.728195)"
       style="fill:#0873aa"
       d="m 2,50 c -22.770716,12.485463 -11.385358,6.242732 0,0 z"  />
    <path
       style="fill:#ffffff"
       d="m 54.01406,16.002823 -4.430128,0 0,11.913802 -5.105915,0 0,-11.913802 -2.460565,0 0,-3.897723 2.460565,0 0,-2.5314228 c 0,-3.4395115 1.483563,-5.4849342 5.528004,-5.4849342 l 4.660482,0 0,4.217 -3.806579,0 c -1.129831,-0.00195 -1.269879,0.5890906 -1.269879,1.6889117 l -0.0064,2.1101673 5.106191,0 -0.675507,3.897723 0,2.78e-4 z" />
    <path
       style="fill:#ffffff"
       d="m 94.625451,6.9924691 c -1.075552,0.4796137 -2.231039,0.8038302 -3.444092,0.9496829 1.237809,-0.7465629 2.188685,-1.9285961 2.63698,-3.3373123 -1.158767,0.6913835 -2.441913,1.1930689 -3.808276,1.4638957 -1.093746,-1.1724885 -2.65249,-1.9050329 -4.377369,-1.9050329 -3.311959,0 -5.997259,2.7005117 -5.997259,6.0318585 0,0.472753 0.05279,0.93298 0.155099,1.374714 -4.984046,-0.252035 -9.402876,-2.6530873 -12.360792,-6.3026854 -0.516002,0.8912225 -0.811884,1.927403 -0.811884,3.0327815 0,2.0929409 1.058849,3.9395139 2.668001,5.0210309 -0.983089,-0.03102 -1.908015,-0.302443 -2.716022,-0.754318 -5.96e-4,0.02535 -5.96e-4,0.05071 -5.96e-4,0.07606 0,2.922722 2.06729,5.360459 4.810752,5.914938 -0.503475,0.138098 -1.032899,0.21177 -1.579921,0.21177 -0.386555,0 -0.762073,-0.03788 -1.128345,-0.108272 0.763266,2.396279 2.9779,4.140546 5.602056,4.189165 -2.052377,1.617801 -4.638355,2.582099 -7.448032,2.582099 -0.484088,0 -0.961315,-0.02863 -1.43049,-0.08411 2.653982,1.711458 5.806368,2.710355 9.192597,2.710355 11.03052,0 17.062675,-9.191702 17.062675,-17.163192 0,-0.261581 -0.006,-0.521372 -0.0176,-0.780566 1.171594,-0.8509562 2.188387,-1.9136824 2.992516,-3.1228579 z" />
    <path
       style="fill:#ffffff"
       d="m 134.37012,6.6525078 19.24081,0 c 0.34321,0 0.67658,0.073822 0.98246,0.2128269 L 143.99053,19.235216 133.38768,6.8649422 c 0.30587,-0.1390051 0.63925,-0.212827 0.98244,-0.2124344 z m -2.40509,16.8357112 0,-14.4306096 c 0,-0.05026 0.002,-0.1005236 0.005,-0.1503924 l 7.05236,8.227607 -6.9746,6.974991 c -0.0545,-0.200655 -0.0829,-0.409161 -0.0834,-0.621596 z m 21.6459,2.405101 -19.24081,0 c -0.21243,0 -0.42095,-0.02868 -0.62158,-0.08324 l 6.84383,-6.843838 3.39816,3.964786 3.39777,-3.964393 6.84385,6.843838 c -0.20027,0.05419 -0.40879,0.08285 -0.62122,0.08285 z m 2.40511,-2.405101 c 0,0.212435 -0.0286,0.420941 -0.0829,0.621596 l -6.9746,-6.974991 7.05233,-8.227607 c 0.003,0.049868 0.005,0.1001304 0.005,0.1503924 z" />
    <path
       style="fill:#ffffff"
       d="m 172.54903,4.0197862 c -5.70423,0 -8.616,3.2857721 -8.616,9.4198658 l 0,0 v 12.869743 l 5.5879,-5.593773 v -6.537253 c 0,-2.541177 0.67356,-4.158467 2.93307,-4.5214571 l 0,0 c 0.78918,-0.1543077 2.43193,-0.1004225 3.47634,-0.1004225 l 0,0 v 3.8814486 c 0,0.03527 0.006,0.09871 0.0139,0.131039 l 0,0 c 0.0438,0.157246 0.18592,0.272121 0.35418,0.272608 l 0,0 c 0.0953,2.47e-4 0.18443,-0.04922 0.27628,-0.139856 l 0,0 9.6839,-9.6802282 -13.70961,-0.00172 0,0 z m 9.79926,7.3075668 v 6.537252 c 0,2.541178 -0.67356,4.158713 -2.93281,4.521459 l 0,0 c -0.78918,0.154307 -2.43195,0.100422 -3.47658,0.100422 l 0,0 v -3.881447 c 0,-0.03502 -0.006,-0.09871 -0.014,-0.130796 l 0,0 c -0.0436,-0.157246 -0.18594,-0.272365 -0.35421,-0.272609 l 0,0 c -0.0952,-2.46e-4 -0.18443,0.04947 -0.27627,0.139856 l 0,0 -9.68367,9.680229 13.70986,0.0013 c 5.70423,0 8.61575,-3.285771 8.61575,-9.419621 l 0,0 V 5.7340703 l -5.58813,5.5932827 0,0 z"  />
    <g
       transform="matrix(0.28409785,0,0,0.28088655,92.391746,-2.4346224)" >
      <g>
        <path
           style="fill:#ffffff"
           d="m 70.479,71.845 -3.983,-3.093 c -1.213,-1.006 -2.872,-2.334 -2.872,-4.765 0,-2.441 1.659,-3.993 3.099,-5.43 4.64,-3.652 9.276,-7.539 9.276,-15.73 0,-8.423 -5.3,-12.854 -7.84,-14.956 h 6.849 l 7.189,-4.517 H 60.418 c -5.976,0 -14.588,1.414 -20.893,6.619 -4.752,4.1 -7.07,9.753 -7.07,14.842 0,8.639 6.633,17.396 18.346,17.396 1.106,0 2.316,-0.109 3.534,-0.222 -0.547,1.331 -1.1,2.439 -1.1,4.32 0,3.431 1.763,5.535 3.317,7.528 -4.977,0.342 -14.268,0.893 -21.117,5.103 -6.523,3.879 -8.508,9.525 -8.508,13.51 0,8.202 7.731,15.842 23.762,15.842 19.01,0 29.074,-10.519 29.074,-20.932 10e-4,-7.651 -4.419,-11.417 -9.284,-15.515 z M 56,59.107 c -9.51,0 -13.818,-12.294 -13.818,-19.712 0,-2.888 0.547,-5.87 2.428,-8.199 1.773,-2.218 4.861,-3.657 7.744,-3.657 9.168,0 13.923,12.404 13.923,20.382 0,1.996 -0.22,5.533 -2.762,8.09 -1.778,1.774 -4.753,3.096 -7.515,3.096 z m 0.109,44.543 c -11.826,0 -19.452,-5.657 -19.452,-13.523 0,-7.864 7.071,-10.524 9.504,-11.405 4.64,-1.561 10.611,-1.779 11.607,-1.779 1.105,0 1.658,0 2.538,0.111 8.407,5.983 12.056,8.965 12.056,14.629 0,6.859 -5.639,11.967 -16.253,11.967 z" />
        <polygon
           style="fill:#ffffff"
           points="98.393,47.863 92.923,47.863 92.923,58.938 81.866,58.938 81.866,64.469 92.923,64.469 92.923,75.612 98.393,75.612 98.393,64.469 109.506,64.469 109.506,58.938 98.393,58.938 "/>
      </g>
    </g>
    <path
       style="fill:#ffffff"
       d="m 207.97323,3.9811183 c -6.63175,0 -12.00784,5.3760846 -12.00784,12.0078467 0,6.631763 5.37609,12.007847 12.00784,12.007847 6.63177,0 12.00786,-5.376084 12.00786,-12.007847 0,-6.6317621 -5.37609,-12.0078467 -12.00786,-12.0078467 z m 7.13095,19.1387927 c -0.9268,0.926809 -2.00555,1.654142 -3.2061,2.162147 -0.30509,0.128901 -0.61484,0.242363 -0.92876,0.339896 v -1.799707 c 0,-0.945924 -0.32446,-1.641644 -0.97337,-2.087159 0.40654,-0.03921 0.77977,-0.09386 1.11991,-0.164189 0.34014,-0.07034 0.69964,-0.172032 1.07875,-0.305098 0.37911,-0.133066 0.71924,-0.291374 1.02017,-0.474922 0.30094,-0.183794 0.59035,-0.422236 0.86775,-0.715325 0.27741,-0.29309 0.51022,-0.625388 0.69769,-0.996651 0.18747,-0.371264 0.33621,-0.817024 0.44552,-1.336792 0.10929,-0.519769 0.16418,-1.09247 0.16418,-1.717858 0,-1.211812 -0.39479,-2.243507 -1.18437,-3.095819 0.3595,-0.938082 0.32054,-1.958259 -0.11713,-3.0605302 l -0.29334,-0.035043 c -0.20315,-0.023525 -0.56878,0.06249 -1.09639,0.2580456 -0.52761,0.195557 -1.11991,0.515848 -1.77643,0.961609 -0.93048,-0.258047 -1.89576,-0.386947 -2.89658,-0.386947 -1.00842,0 -1.97002,0.1289 -2.88482,0.386947 -0.41415,-0.281572 -0.80722,-0.513887 -1.17849,-0.697681 -0.37126,-0.183793 -0.66828,-0.308773 -0.89127,-0.3754289 -0.22276,-0.06641 -0.42984,-0.1075805 -0.62147,-0.1232643 -0.19164,-0.015684 -0.31466,-0.019359 -0.3693,-0.011763 -0.0547,0.0076 -0.0939,0.015684 -0.11715,0.023525 -0.43791,1.1101129 -0.47687,2.1305349 -0.11713,3.0605309 -0.78958,0.852066 -1.18437,1.884006 -1.18437,3.095818 0,0.625389 0.0547,1.19809 0.1642,1.717858 0.10953,0.519768 0.25804,0.965528 0.44551,1.336792 0.18747,0.371263 0.42027,0.703562 0.69768,0.996652 0.2774,0.293089 0.56682,0.53153 0.86775,0.715324 0.30093,0.184039 0.64107,0.342101 1.02017,0.474922 0.37911,0.133067 0.73861,0.234521 1.07875,0.305098 0.34014,0.07034 0.71337,0.125225 1.11992,0.164189 -0.64108,0.437918 -0.96161,1.133639 -0.96161,2.087159 v 1.83475 c -0.35411,-0.105374 -0.70307,-0.229864 -1.04591,-0.374939 -1.20054,-0.508005 -2.27928,-1.235338 -3.2061,-2.162147 -0.9268,-0.926809 -1.65413,-2.005556 -2.16215,-3.206095 -0.52515,-1.241955 -0.79153,-2.562328 -0.79153,-3.92485 0,-1.362524 0.26638,-2.682897 0.79178,-3.924851 0.50801,-1.20054 1.23534,-2.2792857 2.16215,-3.2060951 0.92681,-0.9268098 2.00556,-1.6541422 3.20609,-2.1621477 1.24197,-0.5254045 2.56233,-0.7917826 3.92485,-0.7917826 1.36253,0 2.6829,0.2663781 3.92485,0.7917826 1.20079,0.5080055 2.2793,1.2353379 3.2061,2.1621477 0.92681,0.9268094 1.65415,2.0055551 2.16215,3.2060951 0.52516,1.242199 0.79154,2.562572 0.79154,3.924851 0,1.362277 -0.26638,2.682895 -0.79179,3.92485 -0.508,1.200539 -1.23533,2.279286 -2.1619,3.206095 l 0,0 z" />
  </g>
</svg>
