<?xml version="1.0" encoding="UTF-8" standalone="no"?>
<!-- Created with Inkscape (http://www.inkscape.org/) -->

<svg
   xmlns:dc="http://purl.org/dc/elements/1.1/"
   xmlns:cc="http://creativecommons.org/ns#"
   xmlns:rdf="http://www.w3.org/1999/02/22-rdf-syntax-ns#"
   xmlns:svg="http://www.w3.org/2000/svg"
   xmlns="http://www.w3.org/2000/svg"
   xmlns:sodipodi="http://sodipodi.sourceforge.net/DTD/sodipodi-0.dtd"
   xmlns:inkscape="http://www.inkscape.org/namespaces/inkscape"
   width="192"
   height="32"
   id="svg3100"
   version="1.1"
   inkscape:version="0.48.4 r9939"
   sodipodi:docname="social.inkscape.svg">
  <defs
     id="defs3102" />
  <sodipodi:namedview
     id="base"
     pagecolor="#5e7a5c"
     bordercolor="#666666"
     borderopacity="1.0"
     inkscape:pageopacity="0.56862745"
     inkscape:pageshadow="2"
     inkscape:zoom="6.04"
     inkscape:cx="84.483665"
     inkscape:cy="4.681101"
     inkscape:current-layer="layer1"
     showgrid="true"
     inkscape:grid-bbox="true"
     inkscape:document-units="px"
     showguides="true"
     inkscape:guide-bbox="true"
     inkscape:window-width="1613"
     inkscape:window-height="833"
     inkscape:window-x="56"
     inkscape:window-y="91"
     inkscape:window-maximized="0"
     inkscape:snap-global="false">
    <inkscape:grid
       type="xygrid"
       id="grid3108"
       empspacing="8"
       visible="true"
       enabled="true"
       snapvisiblegridlinesonly="true"
       spacingx="1px"
       spacingy="1px"
       dotted="false" />
  </sodipodi:namedview>
  <metadata
     id="metadata3105">
    <rdf:RDF>
      <cc:Work
         rdf:about="">
        <dc:format>image/svg+xml</dc:format>
        <dc:type
           rdf:resource="http://purl.org/dc/dcmitype/StillImage" />
        <dc:title></dc:title>
      </cc:Work>
    </rdf:RDF>
  </metadata>
  <g
     id="layer1"
     inkscape:label="Layer 1"
     inkscape:groupmode="layer">
    <path
       inkscape:connector-curvature="0"
       class="inner-shape"
       style="fill:#ffffff"
       d="m 9.3659759,28.053021 -5.3501813,0 0,-16.848383 5.3501813,0 z M 6.6908863,8.7977239 c -1.4775236,0 -2.6750917,-1.0775112 -2.6750917,-2.4069112 0,-1.3294005 1.1975681,-2.4069144 2.6750917,-2.4069144 1.4775226,0 2.6750896,1.0775139 2.6750896,2.4069144 0,1.3294 -1.197567,2.4069112 -2.6750896,2.4069112 z m 21.4007347,19.2552971 -5.350186,0 0,-9.627647 c 0,-1.329405 -1.197566,-2.406915 -2.675091,-2.406915 -1.477523,0 -2.675091,1.07751 -2.675091,2.406915 l 0,9.627647 -5.350185,0 0,-16.848383 5.350185,0 0,2.988889 c 1.103229,-1.363586 2.790393,-2.988889 4.681522,-2.988889 3.324534,0 6.019282,2.694167 6.019282,6.017081 l -4.36e-4,10.831302 z"
       id="path3051"
       sodipodi:nodetypes="cccccsssssccssscccccsccc" />
    <path
       transform="translate(32.156074,-36.728195)"
       style="fill:#0873aa"
       d="m 2,50 c -22.770716,12.485463 -11.385358,6.242732 0,0 z"
       id="circle3090"
       inkscape:connector-curvature="0"
       sodipodi:nodetypes="cc" />
    <path
       inkscape:connector-curvature="0"
       class="inner-shape"
       style="fill:#ffffff"
       d="m 54.01406,16.002823 -4.430128,0 0,11.913802 -5.105915,0 0,-11.913802 -2.460565,0 0,-3.897723 2.460565,0 0,-2.5314228 c 0,-3.4395115 1.483563,-5.4849342 5.528004,-5.4849342 l 4.660482,0 0,4.217 -3.806579,0 c -1.129831,-0.00195 -1.269879,0.5890906 -1.269879,1.6889117 l -0.0064,2.1101673 5.106191,0 -0.675507,3.897723 0,2.78e-4 z"
       id="path3092"
       sodipodi:nodetypes="ccccccccssccccccccc" />
    <path
       inkscape:connector-curvature="0"
       class="inner-shape"
       style="fill:#ffffff"
       d="m 94.625451,6.9924691 c -1.075552,0.4796137 -2.231039,0.8038302 -3.444092,0.9496829 1.237809,-0.7465629 2.188685,-1.9285961 2.63698,-3.3373123 -1.158767,0.6913835 -2.441913,1.1930689 -3.808276,1.4638957 -1.093746,-1.1724885 -2.65249,-1.9050329 -4.377369,-1.9050329 -3.311959,0 -5.997259,2.7005117 -5.997259,6.0318585 0,0.472753 0.05279,0.93298 0.155099,1.374714 -4.984046,-0.252035 -9.402876,-2.6530873 -12.360792,-6.3026854 -0.516002,0.8912225 -0.811884,1.927403 -0.811884,3.0327815 0,2.0929409 1.058849,3.9395139 2.668001,5.0210309 -0.983089,-0.03102 -1.908015,-0.302443 -2.716022,-0.754318 -5.96e-4,0.02535 -5.96e-4,0.05071 -5.96e-4,0.07606 0,2.922722 2.06729,5.360459 4.810752,5.914938 -0.503475,0.138098 -1.032899,0.21177 -1.579921,0.21177 -0.386555,0 -0.762073,-0.03788 -1.128345,-0.108272 0.763266,2.396279 2.9779,4.140546 5.602056,4.189165 -2.052377,1.617801 -4.638355,2.582099 -7.448032,2.582099 -0.484088,0 -0.961315,-0.02863 -1.43049,-0.08411 2.653982,1.711458 5.806368,2.710355 9.192597,2.710355 11.03052,0 17.062675,-9.191702 17.062675,-17.163192 0,-0.261581 -0.006,-0.521372 -0.0176,-0.780566 1.171594,-0.8509562 2.188387,-1.9136824 2.992516,-3.1228579 z"
       id="path3040" />
    <path
       class="inner-shape"
       style="fill:#ffffff"
       d="m 157.13101,5.2576647 -25.97341,0.041303 -0.0925,21.5909165 26.01049,-0.09609 z m -21.72266,2.2691436 17.49221,0 c 0.31202,0 0.61509,0.067113 0.89318,0.1934853 L 144.15446,18.966002 134.51519,7.7199367 c 0.27808,-0.1263724 0.58116,-0.1934853 0.89316,-0.1931284 z m -2.18652,15.3056847 0,-13.1191582 c 0,-0.045693 0.002,-0.091388 0.005,-0.1367248 l 6.41144,7.479884 -6.34075,6.341105 c -0.0496,-0.182419 -0.0754,-0.371977 -0.0758,-0.565106 z m 19.67873,2.186527 -17.49221,0 c -0.19313,0 -0.38269,-0.02607 -0.56509,-0.07568 l 6.22186,-6.221872 3.08934,3.604467 3.08899,-3.60411 6.22187,6.221872 c -0.18206,0.04927 -0.37163,0.07532 -0.56476,0.07532 z m 2.18654,-2.186527 c 0,0.193129 -0.026,0.382687 -0.0754,0.565106 l -6.34075,-6.341105 6.41142,-7.479884 c 0.003,0.045336 0.005,0.091031 0.005,0.1367248 z"
       id="path3021"
       inkscape:connector-curvature="0"
       sodipodi:nodetypes="ccccccsccccccsccccccscccccccccc" />
    <path
       inkscape:connector-curvature="0"
       class="inner-shape"
       style="fill:#ffffff"
       d="m 172.54903,4.0197862 c -5.70423,0 -8.616,3.2857721 -8.616,9.4198658 l 0,0 v 12.869743 l 5.5879,-5.593773 v -6.537253 c 0,-2.541177 0.67356,-4.158467 2.93307,-4.5214571 l 0,0 c 0.78918,-0.1543077 2.43193,-0.1004225 3.47634,-0.1004225 l 0,0 v 3.8814486 c 0,0.03527 0.006,0.09871 0.0139,0.131039 l 0,0 c 0.0438,0.157246 0.18592,0.272121 0.35418,0.272608 l 0,0 c 0.0953,2.47e-4 0.18443,-0.04922 0.27628,-0.139856 l 0,0 9.6839,-9.6802282 -13.70961,-0.00172 0,0 z m 9.79926,7.3075668 v 6.537252 c 0,2.541178 -0.67356,4.158713 -2.93281,4.521459 l 0,0 c -0.78918,0.154307 -2.43195,0.100422 -3.47658,0.100422 l 0,0 v -3.881447 c 0,-0.03502 -0.006,-0.09871 -0.014,-0.130796 l 0,0 c -0.0436,-0.157246 -0.18594,-0.272365 -0.35421,-0.272609 l 0,0 c -0.0952,-2.46e-4 -0.18443,0.04947 -0.27627,0.139856 l 0,0 -9.68367,9.680229 13.70986,0.0013 c 5.70423,0 8.61575,-3.285771 8.61575,-9.419621 l 0,0 V 5.7340703 l -5.58813,5.5932827 0,0 z"
       id="path2999" />
    <g
       transform="matrix(0.28409785,0,0,0.28088655,92.391746,-2.4346224)"
       id="g3298">
      <g
         id="g3302">
        <path
           style="fill:#ffffff"
           inkscape:connector-curvature="0"
           d="m 70.479,71.845 -3.983,-3.093 c -1.213,-1.006 -2.872,-2.334 -2.872,-4.765 0,-2.441 1.659,-3.993 3.099,-5.43 4.64,-3.652 9.276,-7.539 9.276,-15.73 0,-8.423 -5.3,-12.854 -7.84,-14.956 h 6.849 l 7.189,-4.517 H 60.418 c -5.976,0 -14.588,1.414 -20.893,6.619 -4.752,4.1 -7.07,9.753 -7.07,14.842 0,8.639 6.633,17.396 18.346,17.396 1.106,0 2.316,-0.109 3.534,-0.222 -0.547,1.331 -1.1,2.439 -1.1,4.32 0,3.431 1.763,5.535 3.317,7.528 -4.977,0.342 -14.268,0.893 -21.117,5.103 -6.523,3.879 -8.508,9.525 -8.508,13.51 0,8.202 7.731,15.842 23.762,15.842 19.01,0 29.074,-10.519 29.074,-20.932 10e-4,-7.651 -4.419,-11.417 -9.284,-15.515 z M 56,59.107 c -9.51,0 -13.818,-12.294 -13.818,-19.712 0,-2.888 0.547,-5.87 2.428,-8.199 1.773,-2.218 4.861,-3.657 7.744,-3.657 9.168,0 13.923,12.404 13.923,20.382 0,1.996 -0.22,5.533 -2.762,8.09 -1.778,1.774 -4.753,3.096 -7.515,3.096 z m 0.109,44.543 c -11.826,0 -19.452,-5.657 -19.452,-13.523 0,-7.864 7.071,-10.524 9.504,-11.405 4.64,-1.561 10.611,-1.779 11.607,-1.779 1.105,0 1.658,0 2.538,0.111 8.407,5.983 12.056,8.965 12.056,14.629 0,6.859 -5.639,11.967 -16.253,11.967 z"
           id="path3304" />
        <polygon
           style="fill:#ffffff"
           points="109.506,64.469 109.506,58.938 98.393,58.938 98.393,47.863 92.923,47.863 92.923,58.938 81.866,58.938 81.866,64.469 92.923,64.469 92.923,75.612 98.393,75.612 98.393,64.469 "
           id="polygon3306" />
      </g>
    </g>
  </g>
</svg>
